<svg width="64" height="65" viewBox="0 0 64 65" fill="none" xmlns="http://www.w3.org/2000/svg">
<path d="M32.0013 1.1167C14.3302 1.1167 0 15.4417 0 33.1154C0 47.2554 9.16966 59.2494 21.8833 63.4796C23.4818 63.7752 24.0704 62.7857 24.0704 61.9402C24.0704 61.1769 24.0395 58.6558 24.0267 55.983C15.1243 57.9182 13.2456 52.2077 13.2456 52.2077C11.791 48.5095 9.69136 47.5252 9.69136 47.5252C6.78729 45.5387 9.90981 45.5798 9.90981 45.5798C13.1223 45.8059 14.8159 48.877 14.8159 48.877C17.6711 53.7703 22.3022 52.3542 24.1269 51.537C24.4147 49.4681 25.2423 48.0572 26.1597 47.258C19.0512 46.4484 11.5803 43.7037 11.5803 31.4424C11.5803 27.9498 12.8293 25.0945 14.8776 22.8535C14.546 22.0491 13.4512 18.7955 15.1885 14.388C15.1885 14.388 17.8767 13.5271 23.9907 17.6673C26.5427 16.958 29.2797 16.6033 32.0013 16.5905C34.7203 16.6033 37.4599 16.958 40.017 17.6673C46.1258 13.5271 48.8089 14.388 48.8089 14.388C50.5513 18.7955 49.454 22.0517 49.1224 22.8561C51.1733 25.0971 52.4146 27.9523 52.4146 31.4449C52.4146 43.7345 44.9282 46.4433 37.8017 47.2348C38.9505 48.2268 39.9733 50.1749 39.9733 53.1612C39.9733 57.4428 39.9374 60.8891 39.9374 61.9428C39.9374 62.7934 40.513 63.7932 42.1347 63.4771C54.8432 59.2417 64 47.2503 64 33.1154C64 15.4417 49.6724 1.1167 32.0013 1.1167Z" fill="currentColor"/>
</svg>
