<svg width="65" height="65" viewBox="0 0 65 65" fill="none" xmlns="http://www.w3.org/2000/svg">
<path d="M32.0445 64.9531C31.2979 64.9531 30.6579 64.7398 30.1245 64.3131C29.5912 63.8865 29.1912 63.3265 28.9245 62.6331C27.9112 59.6465 26.6312 56.8465 25.0845 54.2331C23.5912 51.6198 21.4845 48.5531 18.7645 45.0331C16.0445 41.5131 13.8312 38.1531 12.1245 34.9531C10.4712 31.7531 9.64453 27.8865 9.64453 23.3531C9.64453 17.1131 11.8045 11.8331 16.1245 7.51312C20.4979 3.13979 25.8045 0.953125 32.0445 0.953125C38.2845 0.953125 43.5645 3.13979 47.8845 7.51312C52.2579 11.8331 54.4445 17.1131 54.4445 23.3531C54.4445 28.2065 53.5112 32.2598 51.6445 35.5131C49.8312 38.7131 47.7245 41.8865 45.3245 45.0331C42.4445 48.8731 40.2579 52.0731 38.7645 54.6331C37.3245 57.1398 36.1245 59.8065 35.1645 62.6331C34.8979 63.3798 34.4712 63.9665 33.8845 64.3931C33.3512 64.7665 32.7379 64.9531 32.0445 64.9531ZM32.0445 31.3531C34.2845 31.3531 36.1779 30.5798 37.7245 29.0331C39.2712 27.4865 40.0445 25.5931 40.0445 23.3531C40.0445 21.1131 39.2712 19.2198 37.7245 17.6731C36.1779 16.1265 34.2845 15.3531 32.0445 15.3531C29.8045 15.3531 27.9112 16.1265 26.3645 17.6731C24.8179 19.2198 24.0445 21.1131 24.0445 23.3531C24.0445 25.5931 24.8179 27.4865 26.3645 29.0331C27.9112 30.5798 29.8045 31.3531 32.0445 31.3531Z" fill="currentColor"/>
</svg>
