<svg width="64" height="64" viewBox="0 0 64 64" fill="none" xmlns="http://www.w3.org/2000/svg">
<g clip-path="url(#clip0_72_214)">
<path d="M59.2715 0.000976562C61.883 0.000976562 64 2.05546 64 4.58594V59.417C64 61.9482 61.883 64.001 59.2715 64.001H4.75195C2.14166 64.001 0.0234375 61.9487 0.0234375 59.418V4.58594C0.0234375 2.05546 2.14141 0.000976562 4.75195 0.000976562H59.2715ZM42.9658 24.0723C37.8874 24.0724 35.6103 26.8653 34.3379 28.8281V24.749H24.7646C24.8891 27.444 24.7655 53.3779 24.7646 53.5605H34.3369V37.4717C34.3369 36.6119 34.3996 35.7499 34.6523 35.1357C35.3441 33.4146 36.9194 31.633 39.5645 31.6328C43.0277 31.6328 44.4141 34.2747 44.4141 38.1484V53.5605H53.9863V37.04C53.9863 28.1904 49.2642 24.0723 42.9658 24.0723ZM9.8916 53.5605H19.4658V24.748H9.8916V53.5605ZM14.7441 10.8584C11.4676 10.8584 9.32812 13.0092 9.32812 15.8369C9.32819 18.6018 11.4051 20.8145 14.6182 20.8145H14.6807C18.0184 20.8145 20.0967 18.6019 20.0967 15.8369C20.0341 13.009 18.0184 10.8584 14.7441 10.8584Z" fill="currentColor"/>
</g>
<defs>
<clipPath id="clip0_72_214">
<rect width="64" height="64" fill="currentColor"/>
</clipPath>
</defs>
</svg>
