<svg width="65" height="65" viewBox="0 0 65 65" fill="none" xmlns="http://www.w3.org/2000/svg">
<path d="M14.583 31.5049V56.2314L4.40039 56.2324C1.98961 56.2322 0.0371094 54.2789 0.0371094 51.8682V20.5957L14.583 31.5049ZM64.0371 51.8682C64.0371 54.2789 62.0846 56.2313 59.6738 56.2314H49.4922V31.5049L64.0371 20.5957V51.8682ZM0.0371094 14.7764C0.0374493 9.38414 6.19338 6.30473 10.5098 9.54102L14.583 12.5947V12.5957L32.0371 25.6865L49.4912 12.5957V31.5049L32.0371 44.5957L14.583 31.5049V31.5039L0.0371094 20.5947V14.7764ZM53.5645 9.54102C57.881 6.30464 64.0371 9.38459 64.0371 14.7773V20.5947L49.4922 31.5039V12.5947L53.5645 9.54102Z" fill="currentColor"/>
</svg>
