<svg width="65" height="65" viewBox="0 0 65 65" fill="none" xmlns="http://www.w3.org/2000/svg">
<path d="M54.6473 9.59044C48.7576 3.58136 40.678 0.210193 32.2647 0.249858H32.211C14.8845 0.249912 0.626474 14.508 0.626474 31.8346C0.626474 31.9159 0.628208 31.9955 0.628208 32.0768C0.693471 37.5856 2.11956 42.9928 4.77955 47.8172L0.282227 64.2495L17.0432 59.9252C21.6735 62.4673 26.879 63.7776 32.1609 63.7306C49.5515 63.6355 63.8079 49.2961 63.7975 31.9038C63.839 23.5475 60.5439 15.5112 54.6473 9.59044ZM32.2647 58.3685C27.5826 58.3929 22.983 57.1368 18.9632 54.7361L17.9253 54.2171L7.94486 56.8117L10.5394 46.9523L9.84757 45.9145C7.27755 41.7647 5.91597 36.9804 5.9159 32.0992C5.9159 17.7046 17.761 5.85937 32.1558 5.85937C46.5504 5.85937 58.3955 17.7046 58.3955 32.0992C58.3955 41.163 53.6994 49.6075 45.9987 54.3901C41.9259 56.9991 37.188 58.3802 32.3512 58.3685M47.5554 39.1686L45.6527 38.3038C45.6527 38.3038 42.8852 37.0929 41.1555 36.2281C40.9825 36.2281 40.8095 36.0551 40.6365 36.0551C40.2101 36.0656 39.7934 36.1847 39.4257 36.4011C39.0573 36.6173 39.2528 36.574 36.8312 39.3415C36.6669 39.665 36.3295 39.8674 35.9663 39.8605H35.7933C35.5333 39.817 35.2923 39.6965 35.1015 39.5146L34.2366 39.1686C32.3809 38.383 30.6817 37.2697 29.2204 35.8822C28.8744 35.5362 28.3556 35.1902 28.0096 34.8443C26.7291 33.6176 25.6233 32.2208 24.7232 30.693L24.5501 30.3471C24.3999 30.1356 24.2832 29.9022 24.2042 29.6551C24.159 29.3555 24.2202 29.0495 24.3772 28.7903C24.5346 28.5308 25.0691 27.9254 25.588 27.4065C26.1069 26.8876 26.1069 26.5417 26.4528 26.1957C26.6306 25.9488 26.7535 25.6667 26.8132 25.3683C26.8728 25.0699 26.8679 24.7623 26.7988 24.466C25.9927 22.2278 25.0689 20.0338 24.0312 17.8931C23.7531 17.4605 23.3198 17.151 22.8204 17.0282H20.9177C20.5718 17.0282 20.2259 17.2012 19.8799 17.2012L19.7069 17.3741C19.361 17.5471 19.0151 17.8931 18.6691 18.066C18.3232 18.239 18.1502 18.7579 17.8043 19.1039C16.5951 20.6319 15.926 22.5175 15.9016 24.466C15.9207 25.8366 16.2148 27.1895 16.7664 28.4444L16.9394 28.9632C18.4925 32.2839 20.6647 35.2779 23.3394 37.7848L24.0312 38.4767C24.5347 38.8937 24.998 39.357 25.415 39.8605C28.999 42.9792 33.2558 45.2278 37.8517 46.4334C38.3706 46.6064 39.0625 46.6064 39.5814 46.7794H41.3111C42.2152 46.7348 43.0995 46.499 43.9057 46.0875C44.3294 45.8955 44.7342 45.6637 45.1165 45.3956L45.4624 45.0496C45.8084 44.7037 46.1543 44.5307 46.5003 44.1848C46.8384 43.8836 47.1298 43.5338 47.3651 43.147C47.6973 42.372 47.9307 41.5591 48.057 40.7254V39.5146C47.9016 39.3749 47.7268 39.2584 47.5381 39.1686" fill="currentColor"/>
</svg>
