<svg xmlns="http://www.w3.org/2000/svg" width="403" height="401" fill="none" xmlns:v="https://vecta.io/nano"><g clip-path="url(#C)"><path d="M297.93 202.722c3.112-1.908 7.029-1.908 10.241 0l77.308 44.579c3.214 1.807 5.122 5.221 5.122 8.936v89.156c0 3.715-1.908 7.129-5.122 8.936l-77.308 44.578c-3.113 1.907-7.028 1.907-10.241 0l-77.309-44.578c-1.607-.904-2.912-2.109-3.815-3.715-1.004-1.606-1.407-3.313-1.407-5.121v-89.256c0-3.715 1.909-7.129 5.223-8.936l77.308-44.579zm39.759 54.217a9.9 9.9 0 0 0-9.94 9.94v49.497l-41.566-49.698-3.012-3.614c-3.313-4.117-8.835-6.024-13.555-6.024-6.525 0-11.244 4.317-11.244 9.638v68.173a9.92 9.92 0 0 0 .745 3.81 9.91 9.91 0 0 0 2.154 3.23c.924.924 2.022 1.657 3.23 2.154a9.9 9.9 0 0 0 3.811.746c1.306.005 2.601-.248 3.809-.746s2.307-1.229 3.231-2.153 1.656-2.023 2.154-3.231a9.92 9.92 0 0 0 .745-3.81v-49.397l44.578 53.213c3.313 4.116 8.835 6.023 13.555 6.023 6.525 0 11.244-4.317 11.244-9.638v-68.173c0-5.522-4.417-9.94-9.939-9.94z" fill="#1e1e1e"/></g><g clip-path="url(#D)"><mask id="A" maskUnits="userSpaceOnUse" x="104" y="3" width="198" height="198"><path d="M301.395 3.664H104.472v196.923h196.923V3.664z" fill="#fff"/></mask><g mask="url(#A)"><path d="M261.025 60.873c.457.361 12.056 7.033 14.065 20.83 2.74-.451 5.572-.721 8.312-.721 10.594 0 15.528 3.695 16.076 4.147l1.917 1.352-.824 2.347c-1.37 3.245-3.287 6.13-5.844 8.474-3.836 3.787-10.777 8.206-22.01 8.206h-1.827c-4.475 11.362-10.596 24.167-20.917 35.619-6.146 6.883-13.362 12.73-21.37 17.314-9.772 5.5-20.368 9.287-31.418 11.271a134.42 134.42 0 0 1-24.02 2.163c-17.81 0-33.61-3.336-43.291-9.197-8.585-5.23-15.251-13.798-19.726-25.34-3.928-10.55-5.847-21.731-5.664-32.912 0-3.336 2.741-6.042 6.12-6.042h129.691c1.646-.09 9.499-.721 14.339-3.426-4.019-6.312-5.208-13.706-3.29-21.55 1.004-4.058 2.741-8.025 5.024-11.542l1.826-2.617 2.831 1.625zM140.012 76.291a1.53 1.53 0 0 1 1.554 1.532v15.331c0 .901-.731 1.532-1.554 1.532H122.66c-.822-.001-1.46-.631-1.551-1.532V77.823c.001-.901.73-1.532 1.551-1.532h17.352zm23.931 0a1.53 1.53 0 0 1 1.553 1.532v15.331c0 .901-.731 1.532-1.553 1.532H146.59c-.822 0-1.462-.631-1.553-1.532V77.823c0-.901.731-1.532 1.553-1.532h17.353zm24.384 0a1.53 1.53 0 0 1 1.553 1.532v15.331c0 .901-.731 1.532-1.553 1.532h-17.353c-.913 0-1.553-.631-1.553-1.532V77.823c0-.901.732-1.532 1.553-1.532h17.353zm24.02 0a1.53 1.53 0 0 1 1.554 1.532v15.331c0 .901-.732 1.532-1.554 1.532h-17.353c-.821 0-1.553-.631-1.553-1.532V77.823c.001-.901.732-1.532 1.553-1.532h17.353zm24.204 0a1.53 1.53 0 0 1 1.55 1.532v15.331c0 .901-.729 1.532-1.55 1.532h-17.353c-.822 0-1.462-.631-1.553-1.532V77.823c0-.901.731-1.532 1.553-1.532h17.353zm-72.608-21.911c.912 0 1.55.721 1.55 1.532v15.331c0 .811-.729 1.532-1.55 1.532H146.59c-.821 0-1.462-.721-1.553-1.532V55.912c0-.902.731-1.532 1.553-1.532h17.353zm24.384 0a1.53 1.53 0 0 1 1.553 1.532v15.331c0 .811-.732 1.532-1.553 1.532h-17.353a1.53 1.53 0 0 1-1.553-1.532V55.912c0-.901.731-1.532 1.553-1.532h17.353zm24.02 0c.822 0 1.553.721 1.554 1.532v15.331c-.001.811-.732 1.532-1.554 1.532h-17.353c-.821 0-1.553-.721-1.553-1.532V55.912c0-.902.732-1.532 1.553-1.532h17.353zm0-22.001c.822 0 1.554.721 1.554 1.532v15.331c-.001.901-.732 1.532-1.554 1.532h-17.353c-.821 0-1.552-.722-1.553-1.532V33.911c0-.902.732-1.532 1.553-1.532h17.353z" fill="#1e1e1e"/></g></g><mask id="B" maskUnits="userSpaceOnUse" x="2" y="200" width="200" height="201"><path d="M201.445 200.865H2.345v200h199.1v-200z" fill="#fff"/></mask><g mask="url(#B)"><path d="M142.355 211.85c3.353.005 6.423.74 9.05 2.282 11.445 6.605 14.044 27.234 8.2 53.162 25.323 7.787 41.84 20.342 41.84 33.591 0 13.208-16.436 25.764-41.597 33.551 5.884 25.845 3.326 46.432-8.078 53.036-2.678 1.549-5.763 2.283-9.172 2.283-11.16-.001-25.771-7.907-40.542-21.686-14.772 13.86-29.382 21.851-40.542 21.851-3.408 0-6.492-.734-9.129-2.283-11.444-6.604-14.044-27.234-8.2-53.161-25.323-7.787-41.839-20.342-41.839-33.591 0-13.209 16.436-25.724 41.679-33.551-5.884-25.845-3.328-46.432 8.075-53.037 2.678-1.549 5.763-2.282 9.172-2.282v-.043c11.16 0 25.77 7.91 40.542 21.689 14.772-13.861 29.382-21.851 40.542-21.851v.04zM52.871 336.923c-.893 4.117-1.622 8.153-2.069 11.984-1.867 15.572.527 27.679 6.045 30.859 1.218.694 2.761 1.061 4.587 1.102 8.441 0 20.86-6.767 34.09-19.119-5.722-5.993-11.404-12.841-16.882-20.383-9.131-.978-17.817-2.486-25.771-4.443zm98.131-.082c-7.954 1.997-16.64 3.504-25.811 4.483-5.398 7.541-11.08 14.35-16.761 20.342 13.23 12.271 25.689 18.998 34.089 18.998 1.867 0 3.449-.325 4.667-1.059 5.478-3.221 7.831-15.329 5.924-30.902-.447-3.791-1.175-7.746-2.108-11.862zm-37.866 5.423c-3.693.203-7.467.283-11.281.283-3.774 0-7.509-.121-11.161-.283 3.733 4.769 7.509 9.129 11.283 13.043a159.09 159.09 0 0 0 11.159-13.043zm-11.241-73.911c-6.169 0-12.297.285-18.344.815-3.368 4.851-6.614 10.07-9.779 15.573-3.044 5.34-5.887 10.803-8.403 16.266 2.557 5.463 5.358 10.886 8.443 16.226 3.165 5.463 6.454 10.64 9.822 15.491 6.006.489 12.134.775 18.261.775 6.169 0 12.297-.288 18.344-.818 3.367-4.85 6.614-10.067 9.779-15.57 3.043-5.34 5.846-10.803 8.403-16.266a212.45 212.45 0 0 0-8.443-16.226c-3.165-5.463-6.453-10.64-9.822-15.491-6.006-.489-12.133-.775-18.261-.775zm-41.271 43.619c-2.11 5.422-3.979 10.845-5.481 16.104 5.316 1.305 10.876 2.363 16.639 3.22a271.6 271.6 0 0 1-5.842-9.54c-1.907-3.261-3.653-6.523-5.317-9.784zm82.503-.162c-1.664 3.261-3.41 6.562-5.277 9.824-1.867 3.302-3.854 6.523-5.842 9.662 5.803-.857 11.405-1.955 16.721-3.26a175.37 175.37 0 0 0-5.602-16.226zm-96.87-35.672c-3.937 1.264-7.753 2.612-11.243 4.12-14.365 6.115-23.657 14.227-23.657 20.627s9.292 14.471 23.657 20.626c3.53 1.509 7.347 2.896 11.365 4.16 2.273-7.949 5.274-16.225 9.008-24.704-3.774-8.52-6.816-16.839-9.129-24.829zm111.115-.04c-2.272 7.95-5.277 16.225-9.011 24.704 3.774 8.52 6.819 16.837 9.133 24.826 3.936-1.263 7.75-2.608 11.24-4.117 14.366-6.114 23.659-14.226 23.7-20.626 0-6.4-9.292-14.471-23.657-20.627-3.571-1.508-7.387-2.896-11.405-4.16zm-55.517 6.156c10.243 0 18.547 8.342 18.547 18.631s-8.304 18.63-18.547 18.631-18.546-8.342-18.547-18.631 8.304-18.631 18.547-18.631zm-30.112-11.78c-5.803.856-11.405 1.956-16.721 3.22 1.542 5.299 3.411 10.763 5.602 16.226 1.664-3.261 3.407-6.523 5.274-9.784 1.867-3.302 3.857-6.523 5.845-9.662zm60.225 0c1.988 3.097 3.976 6.276 5.842 9.537 1.908 3.26 3.653 6.523 5.317 9.784 2.11-5.422 3.976-10.843 5.477-16.101-5.315-1.305-10.874-2.364-16.636-3.22zm-70.697-49.368c-1.866 0-3.449.325-4.666 1.059-5.479 3.22-7.831 15.329-5.924 30.902a123.44 123.44 0 0 0 2.108 11.822c7.954-1.997 16.64-3.508 25.811-4.486 5.397-7.542 11.079-14.35 16.761-20.343-13.23-12.27-25.689-18.997-34.09-18.997v.043zm81.045-.205c-8.441.022-20.841 6.787-34.05 19.12 5.722 5.992 11.404 12.841 16.882 20.382 9.131.978 17.817 2.487 25.771 4.443.893-4.116 1.623-8.152 2.069-11.984 1.867-15.571-.527-27.678-6.045-30.859-1.258-.693-2.761-1.062-4.627-1.062v-.04zm-40.543 25.562c-3.733 3.913-7.509 8.273-11.161 13.043 3.693-.204 7.468-.284 11.283-.284 3.774 0 7.509.121 11.162.284-3.734-4.77-7.509-9.13-11.284-13.043z" fill="#1e1e1e"/></g><defs><clipPath id="C"><path fill="#fff" transform="translate(203 200.814)" d="M0 0h200v200H0z"/></clipPath><clipPath id="D"><path fill="#fff" transform="translate(101.895 .814)" d="M0 0h200v200H0z"/></clipPath></defs></svg>