<svg xmlns="http://www.w3.org/2000/svg" width="142" height="36" fill="none" xmlns:v="https://vecta.io/nano"><path d="M.46 34.5v-.48l.96-.336c1.088-.352 1.632-1.264 1.632-2.736V6.372c0-.64-.08-1.152-.24-1.536-.128-.384-.496-.704-1.104-.96L.46 3.3v-.48h9.264l8.88 23.232L26.956 2.82h9.456v.48l-.768.288c-.608.224-1.024.544-1.248.96-.224.384-.336.896-.336 1.536v25.104c0 .64.08 1.136.24 1.488s.544.656 1.152.912l.96.432v.48H24.46v-.48l1.008-.432c.608-.256.992-.56 1.152-.912s.24-.848.24-1.488v-10.8l.096-13.728L16.924 34.5h-2.4L4.06 6.996l.144 11.952v12.096c0 .704.096 1.28.288 1.728.224.416.64.72 1.248.912l1.056.336v.48H.46zM44.189 8.196c-1.088 0-2.016-.336-2.784-1.008-.736-.704-1.104-1.584-1.104-2.64 0-1.088.368-1.968 1.104-2.64C42.173 1.236 43.101.9 44.189.9s2 .336 2.736 1.008 1.104 1.552 1.104 2.64c0 1.056-.368 1.936-1.104 2.64-.736.672-1.648 1.008-2.736 1.008zM38.525 34.5v-.48l.672-.192c.64-.192 1.072-.48 1.296-.864.256-.384.384-.896.384-1.536V16.404c0-.672-.128-1.168-.384-1.488-.224-.352-.656-.592-1.296-.72l-.672-.144v-.48l8.784-2.832.48.48-.144 6.816v13.44c0 .64.112 1.152.336 1.536.256.384.688.672 1.296.864l.48.144v.48H38.525zm13.501 0v-.48l.576-.192c1.152-.384 1.728-1.184 1.728-2.4V5.748c0-.64-.128-1.12-.384-1.44-.256-.352-.704-.608-1.344-.768l-.624-.144v-.48L60.762.852l.576.432-.192 6.72V24.42v3.552l.048 3.456c0 .64.128 1.168.384 1.584.256.384.688.672 1.296.864l.624.144v.48H52.026zm25.638-23.808c2.08 0 3.856.432 5.328 1.296a8.32 8.32 0 0 1 3.36 3.456c.8 1.44 1.2 3.088 1.2 4.944l-.048 1.104a4.25 4.25 0 0 1-.192.96H73.008c.032 3.456.64 5.952 1.824 7.488 1.216 1.504 3.008 2.256 5.376 2.256 1.6 0 2.896-.256 3.888-.768s1.92-1.264 2.784-2.256l.48.432c-.992 1.76-2.32 3.136-3.984 4.128-1.632.992-3.6 1.488-5.904 1.488-2.272 0-4.288-.48-6.048-1.44-1.76-.992-3.136-2.4-4.128-4.224s-1.488-4-1.488-6.528c0-2.624.576-4.848 1.728-6.672 1.152-1.856 2.624-3.264 4.416-4.224 1.824-.96 3.728-1.44 5.712-1.44zm-.144.96c-.928 0-1.728.288-2.4.864-.64.544-1.152 1.536-1.536 2.976-.352 1.408-.544 3.408-.576 6h8.208c.32-3.488.192-6-.384-7.536s-1.68-2.304-3.312-2.304zM89.944 34.5v-.48l.672-.192c1.12-.32 1.68-1.104 1.68-2.352V16.452c0-.704-.112-1.216-.336-1.536-.224-.352-.656-.592-1.296-.72l-.72-.192v-.48l8.208-2.784.48.48.384 2.88a15.1 15.1 0 0 1 3.792-2.448c1.408-.64 2.8-.96 4.176-.96 2.112 0 3.728.576 4.848 1.728 1.152 1.152 1.728 2.912 1.728 5.28v13.824c0 1.248.608 2.032 1.824 2.352l.432.144v.48h-11.328v-.48l.624-.192c1.12-.352 1.68-1.136 1.68-2.352V16.164c0-2.048-1.024-3.072-3.072-3.072-1.408 0-2.944.704-4.608 2.112v16.32c0 1.248.56 2.032 1.68 2.352l.432.144v.48h-11.28zm34.477.72c-1.856 0-3.424-.528-4.704-1.584-1.248-1.056-1.872-2.576-1.872-4.56 0-1.504.768-2.88 2.304-4.128 1.536-1.28 3.952-2.24 7.248-2.88l1.728-.288 2.016-.384v-3.792c0-2.176-.272-3.696-.816-4.56-.512-.896-1.328-1.344-2.448-1.344-.768 0-1.376.256-1.824.768-.448.48-.736 1.328-.864 2.544l-.096.528c-.064 1.376-.4 2.384-1.008 3.024s-1.36.96-2.256.96c-.832 0-1.52-.256-2.064-.768s-.816-1.2-.816-2.064c0-1.312.448-2.416 1.344-3.312.928-.896 2.144-1.568 3.648-2.016s3.136-.672 4.896-.672c2.848 0 5.04.704 6.576 2.112 1.568 1.376 2.352 3.632 2.352 6.768V30.18c0 1.44.672 2.16 2.016 2.16h1.056l.432.384c-.608.768-1.28 1.36-2.016 1.776-.704.416-1.712.624-3.024.624-1.408 0-2.528-.32-3.36-.96-.8-.672-1.328-1.552-1.584-2.64-.96 1.024-1.952 1.904-2.976 2.64-.992.704-2.288 1.056-3.888 1.056zm2.928-2.928c.64 0 1.232-.144 1.776-.432.576-.32 1.248-.8 2.016-1.44v-8.064l-.96.192-1.104.192c-1.472.384-2.656 1.04-3.552 1.968-.864.896-1.296 2.112-1.296 3.648 0 1.312.304 2.304.912 2.976.608.64 1.344.96 2.208.96z" fill="#251518"/></svg>