<svg width="65" height="65" viewBox="0 0 65 65" fill="currentColor" xmlns="http://www.w3.org/2000/svg">
<path d="M32.8389 0.184082C34.2113 0.184082 35.5586 0.555322 36.7373 1.2583L56.9404 13.2534L56.9414 13.2544C58.1362 13.9752 59.1237 14.9936 59.8066 16.2104C60.4895 17.4272 60.8441 18.8006 60.8369 20.1958V44.1772C60.8437 45.5729 60.4882 46.9467 59.8047 48.1636C59.1211 49.3805 58.1331 50.3993 56.9375 51.1196L36.7334 63.1108C35.5547 63.8133 34.2081 64.184 32.8359 64.1841C31.4636 64.1841 30.1163 63.8134 28.9375 63.1108L8.73438 51.1196C7.54026 50.3992 6.55299 49.3815 5.87012 48.1655C5.1873 46.9495 4.83144 45.5767 4.83789 44.1821V20.1948C4.83074 18.7996 5.1863 17.4262 5.86914 16.2095C6.55205 14.9927 7.53959 13.9742 8.73438 13.2534L28.9414 1.2583C30.12 0.555404 31.4666 0.184122 32.8389 0.184082ZM32.8369 1.60791C31.7132 1.60797 30.6105 1.91208 29.6455 2.48779L9.44141 14.4819C8.4596 15.0764 7.64839 15.9154 7.08691 16.9165C6.52546 17.9175 6.2327 19.0471 6.2373 20.1948V44.1812C6.23312 45.3287 6.52654 46.4576 7.08789 47.4585C7.6493 48.4594 8.45994 49.2983 9.44141 49.8931L29.6455 61.8843C30.6113 62.4579 31.7136 62.7614 32.8369 62.7622C33.1923 62.759 33.5469 62.7247 33.8965 62.6606C32.8287 62.3328 32.1368 61.2205 32.1367 59.5015V35.9478C32.1408 33.0754 33.8974 31.5101 36.2803 30.1226L55.3789 18.2935C57.1387 17.2822 58.6477 17.6742 59.3193 19.1021C59.1694 18.1528 58.8141 17.2475 58.2783 16.4497C57.7424 15.6517 57.038 14.9799 56.2158 14.4819L36.0293 2.48779C35.0642 1.91202 33.9607 1.60791 32.8369 1.60791ZM41.2324 35.6499C41.2282 35.4194 41.0953 35.3387 40.9336 35.4194L39.9258 36.063C39.8353 36.1195 39.7606 36.1982 39.709 36.2915C39.6574 36.3849 39.6305 36.4904 39.6309 36.5972L39.7041 38.3608C38.9795 38.9361 38.3903 39.6642 37.9805 40.4937C37.5706 41.3232 37.3497 42.2336 37.333 43.1587C37.3614 45.3027 38.7248 45.5854 40.1934 45.5854C41.3299 45.5937 41.8114 45.958 41.8115 46.8315C41.7943 47.3419 41.6381 47.8383 41.3594 48.2661C41.0806 48.694 40.6895 49.0374 40.2295 49.2593C39.58 49.6283 38.8109 49.7261 38.0898 49.5308C38.0638 49.5191 38.0354 49.5122 38.0068 49.5122C37.9782 49.5122 37.9499 49.519 37.9238 49.5308C37.8883 49.5488 37.855 49.5716 37.8262 49.5991C37.7356 49.6869 37.6725 49.7993 37.6445 49.9224L37.2764 51.48C37.2318 51.662 37.2806 51.8203 37.3857 51.8608C37.952 52.0873 38.8383 52.0022 39.7119 51.6382V53.3325C39.716 53.5591 39.8489 53.64 40.0107 53.5591L41.0303 52.9731C41.1195 52.9171 41.1935 52.8394 41.2451 52.7476C41.2967 52.6557 41.3248 52.5521 41.3262 52.4468L41.293 50.7241C42.0469 50.1133 42.6594 49.3452 43.0869 48.4741C43.5144 47.6031 43.7475 46.6493 43.7695 45.6792C43.7493 43.7981 42.9401 42.9851 41.0752 42.9526C39.6633 42.9283 39.2588 42.7052 39.2588 41.896C39.2702 41.4554 39.4054 41.0267 39.6494 40.6597C39.8934 40.2927 40.2368 40.0018 40.6387 39.8208C41.1995 39.4876 41.866 39.381 42.5029 39.522C42.5541 39.531 42.6076 39.5223 42.6533 39.4976C42.6905 39.4787 42.7243 39.4536 42.7539 39.4243C42.8386 39.3395 42.8986 39.233 42.9277 39.1167L43.3125 37.5757C43.361 37.3735 43.308 37.2038 43.1826 37.1714C42.5293 37.0492 41.8542 37.1309 41.249 37.4058L41.2324 35.6499ZM51.8877 46.6372C51.8834 46.4878 51.7668 46.4237 51.6455 46.5005L46.6123 49.5103C46.5465 49.5368 46.4901 49.5821 46.4492 49.6401C46.4084 49.6982 46.3846 49.7665 46.3818 49.8374V51.1606C46.3819 51.3224 46.4915 51.3868 46.625 51.3101L51.7344 48.2036C51.7957 48.1577 51.8429 48.0946 51.8701 48.0229C51.8972 47.9514 51.903 47.8733 51.8877 47.7983V46.6372Z" fill="currentColor"/>
</svg>
