<svg width="65" height="65" viewBox="0 0 65 65" fill="currentColor" xmlns="http://www.w3.org/2000/svg">
<g clip-path="url(#clip0_345_352)">
<path d="M51.7172 19.519C51.8657 19.6362 55.6355 21.8047 56.2885 26.2886C57.1789 26.1421 58.0992 26.0542 58.9897 26.0542C62.4328 26.0542 64.0362 27.2552 64.2143 27.4019L64.8374 27.8413L64.5698 28.604C64.1245 29.6587 63.5013 30.5961 62.6704 31.3579C61.4237 32.5888 59.1679 34.0248 55.517 34.0249H54.9233C53.4689 37.7174 51.4796 41.8792 48.1254 45.6011C46.128 47.8379 43.7828 49.7384 41.1801 51.228C38.0041 53.0156 34.5606 54.2463 30.9692 54.8911C28.3868 55.36 25.7745 55.5942 23.1626 55.5942C17.3746 55.5942 12.2395 54.5098 9.09322 52.605C6.30315 50.9052 4.13642 48.1207 2.68208 44.3696C1.40576 40.941 0.781978 37.3071 0.841264 33.6733C0.841313 32.5891 1.73233 31.7095 2.83052 31.7095H44.9799C45.5148 31.6802 48.0672 31.4753 49.6401 30.5962C48.3341 28.5449 47.9475 26.1418 48.5708 23.5923C48.8972 22.2736 49.4616 20.9842 50.2036 19.8413L50.7973 18.9907L51.7172 19.519ZM12.3881 24.5298C12.6849 24.5298 12.8928 24.7642 12.893 25.0278V30.0103C12.893 30.3033 12.6554 30.5083 12.3881 30.5083H6.74849C6.48157 30.5081 6.27423 30.3031 6.24458 30.0103V25.0278C6.2448 24.7351 6.48165 24.53 6.74849 24.5298H12.3881ZM20.1655 24.5298C20.462 24.5298 20.6702 24.7642 20.6704 25.0278V30.0103C20.6704 30.3032 20.4326 30.5082 20.1655 30.5083H14.5258C14.2588 30.5083 14.0507 30.3033 14.021 30.0103V25.0278C14.0212 24.7349 14.2588 24.5298 14.5258 24.5298H20.1655ZM28.0903 24.5298C28.3869 24.5298 28.595 24.7642 28.5952 25.0278V30.0103C28.5952 30.3033 28.3574 30.5083 28.0903 30.5083H22.4506C22.1539 30.5083 21.9458 30.3032 21.9458 30.0103V25.0278C21.946 24.735 22.1837 24.5298 22.4506 24.5298H28.0903ZM35.8969 24.5298C36.1935 24.5298 36.4016 24.7642 36.4018 25.0278V30.0103C36.4018 30.3033 36.164 30.5083 35.8969 30.5083H30.2573C29.9902 30.5083 29.7524 30.3033 29.7524 30.0103V25.0278C29.7526 24.7349 29.9903 24.5298 30.2573 24.5298H35.8969ZM43.7631 24.5298C44.0597 24.53 44.2668 24.7643 44.267 25.0278V30.0103C44.267 30.3031 44.0301 30.5081 43.7631 30.5083H38.1235C37.8564 30.5083 37.6484 30.3033 37.6186 30.0103V25.0278C37.6188 24.7349 37.8564 24.5298 38.1235 24.5298H43.7631ZM20.1655 17.4087C20.4621 17.4088 20.6693 17.6431 20.6694 17.9067V22.8892C20.6693 23.1528 20.4324 23.3871 20.1655 23.3872H14.5258C14.2589 23.3872 14.0508 23.1528 14.021 22.8892V17.9067C14.0211 17.6137 14.2588 17.4087 14.5258 17.4087H20.1655ZM28.0903 17.4087C28.387 17.4087 28.5951 17.643 28.5952 17.9067V22.8892C28.595 23.1529 28.3573 23.3872 28.0903 23.3872H22.4506C22.154 23.3872 21.9459 23.1527 21.9458 22.8892V17.9067C21.9459 17.6138 22.1836 17.4087 22.4506 17.4087H28.0903ZM35.8969 17.4087C36.1639 17.4087 36.4017 17.643 36.4018 17.9067V22.8892C36.4017 23.1529 36.164 23.3872 35.8969 23.3872H30.2573C29.9902 23.3872 29.7525 23.1528 29.7524 22.8892V17.9067C29.7525 17.6137 29.9902 17.4087 30.2573 17.4087H35.8969ZM35.8969 10.2583C36.1639 10.2583 36.4018 10.4925 36.4018 10.7563V15.7388C36.4016 16.0316 36.1639 16.2368 35.8969 16.2368H30.2573C29.9903 16.2368 29.7527 16.0023 29.7524 15.7388V10.7563C29.7524 10.4632 29.9902 10.2583 30.2573 10.2583H35.8969Z" fill="currentColor"/>
</g>
<defs>
<clipPath id="clip0_345_352">
<rect width="64" height="64" fill="currentColor" transform="translate(0.837402 0.92627)"/>
</clipPath>
</defs>
</svg>
