<svg width="65" height="65" viewBox="0 0 65 65" fill="none" xmlns="http://www.w3.org/2000/svg">
<g clip-path="url(#clip0_345_337)">
<path d="M32.5 32.184C32.5 26.2931 37.2756 21.5173 43.1667 21.5173C49.0576 21.5173 53.8333 26.2931 53.8333 32.184C53.8333 38.0751 49.0576 42.8507 43.1667 42.8507C37.2756 42.8507 32.5 38.0751 32.5 32.184Z" fill="currentColor"/>
<path d="M11.167 53.5175C11.167 47.6266 15.9426 42.8508 21.8337 42.8508H32.5003V53.5175C32.5003 59.4086 27.7247 64.1842 21.8337 64.1842C15.9426 64.1842 11.167 59.4086 11.167 53.5175Z" fill="currentColor"/>
<path d="M43.167 0.934326C48.6437 0.934503 53.083 5.37457 53.083 10.8513C53.0828 16.3279 48.6436 20.7672 43.167 20.7673H33.25V0.934326H43.167Z" stroke="currentColor" stroke-width="1.5"/>
<path d="M11.167 10.8508C11.167 16.7418 15.9426 21.5174 21.8337 21.5174H32.5003V0.184082H21.8337C15.9426 0.184082 11.167 4.95981 11.167 10.8508Z" fill="currentColor"/>
<path d="M21.834 22.2673H31.75V42.1003H21.834C16.3572 42.1003 11.9172 37.661 11.917 32.1843C11.917 26.8788 16.0836 22.5457 21.3232 22.28L21.834 22.2673Z" stroke="currentColor" stroke-width="1.5"/>
</g>
<defs>
<clipPath id="clip0_345_337">
<rect width="64" height="64" fill="currentColor" transform="translate(0.162598 0.184082)"/>
</clipPath>
</defs>
</svg>
