<svg width="65" height="65" viewBox="0 0 65 65" fill="currentColor" xmlns="http://www.w3.org/2000/svg">
<g clip-path="url(#clip0_345_350)">
<path d="M63.6304 29.3328L35.6874 1.39126C34.0791 -0.217986 31.4691 -0.217986 29.8589 1.39126L24.0564 7.19376L31.4171 14.5545C33.1276 13.9765 35.0891 14.3643 36.4526 15.7278C37.8226 17.1 38.2076 19.0783 37.6156 20.7943L44.7094 27.8883C46.4256 27.297 48.4059 27.6795 49.7766 29.0525C51.6924 30.9675 51.6924 34.0713 49.7766 35.9875C47.8604 37.904 44.7566 37.904 42.8394 35.9875C41.3984 34.545 41.0424 32.4288 41.7719 30.6535L35.1564 24.038L35.1556 41.4473C35.6352 41.6844 36.0732 41.9976 36.4526 42.3748C38.3684 44.2898 38.3684 47.3938 36.4526 49.3115C34.5364 51.227 31.4311 51.227 29.5176 49.3115C27.6019 47.3938 27.6019 44.29 29.5176 42.375C29.9767 41.9157 30.5223 41.5519 31.1229 41.3048V23.7333C30.5215 23.4877 29.9756 23.1238 29.5176 22.663C28.0661 21.2135 27.7171 19.0838 28.4609 17.3015L21.2049 10.0448L2.0449 29.2035C0.434902 30.8143 0.434902 33.4245 2.0449 35.034L29.9884 62.976C31.5971 64.5855 34.2066 64.5855 35.8174 62.976L63.6301 35.1638C65.2396 33.5538 65.2399 30.942 63.6304 29.3328Z" fill="currentColor"/>
</g>
<defs>
<clipPath id="clip0_345_350">
<rect width="64" height="64" fill="currentColor" transform="translate(0.837402 0.184082)"/>
</clipPath>
</defs>
</svg>
