<svg xmlns="http://www.w3.org/2000/svg" fill="currentColor" width="800" height="800" viewBox="-1.5 0 24 24" xmlns:v="https://vecta.io/nano"><path d="M10.395 0L0 6v12l10.395 6 10.4-6V6zm6 16.59c-.059.728-.664 1.296-1.402 1.296-.045 0-.089-.002-.133-.006h.006-.026a2.34 2.34 0 0 1-1.771-.807l-.002-.003-6-7.141v6.66.014c0 .703-.568 1.273-1.271 1.276h-.08a1.3 1.3 0 0 1-1.29-1.289V7.41c.049-.725.65-1.295 1.383-1.295l.122.005h-.005.039a2.38 2.38 0 0 1 1.789.808l.002.003 5.97 7.141V7.411a1.3 1.3 0 0 1 1.289-1.29h.076a1.3 1.3 0 0 1 1.29 1.289v9.181z"/></svg>