<svg width="65" height="65" viewBox="0 0 65 65" fill="none" xmlns="http://www.w3.org/2000/svg">
<g clip-path="url(#clip0_345_324)">
<path d="M29.8796 0.903382C31.4664 -0.00487128 33.5334 -0.00883952 35.1188 0.903382C43.0955 5.41063 51.0752 9.91098 59.0505 14.421C60.5505 15.2659 61.554 16.9357 61.5388 18.6641V45.7813C61.5499 47.5812 60.4473 49.2904 58.8649 50.1163C50.9145 54.5987 42.9674 59.087 35.0183 63.5694C33.3986 64.4953 31.2904 64.4238 29.7214 63.4219C27.3378 62.0402 24.9499 60.6656 22.5661 59.2852C22.079 58.9948 21.5302 58.7633 21.1862 58.2911C21.4902 57.8814 22.0336 57.8302 22.4753 57.6514C23.4702 57.3351 24.3845 56.8268 25.2985 56.334C25.5295 56.176 25.8114 56.2366 26.0329 56.378C28.0711 57.5466 30.0914 58.7498 32.1364 59.9073C32.5726 60.1591 33.0145 59.8242 33.3874 59.6163C41.1892 55.2068 49.001 50.8142 56.8015 46.4034C57.0905 46.2643 57.2507 45.9573 57.2272 45.6407C57.2327 36.6953 57.2278 27.7482 57.2292 18.8028C57.2622 18.4438 57.0547 18.1139 56.7302 17.9669C48.8073 13.505 40.888 9.03632 32.9665 4.5733C32.8294 4.47901 32.6671 4.42811 32.5007 4.4278C32.3342 4.42755 32.1713 4.47752 32.0339 4.57135C24.1124 9.03574 16.1947 13.5091 8.27315 17.9708C7.9496 18.118 7.73183 18.4423 7.77022 18.8028C7.77158 27.7482 7.77022 36.6958 7.77022 45.6426C7.75659 45.7969 7.79102 45.9516 7.86787 46.086C7.9449 46.2206 8.06172 46.3291 8.20186 46.3956C10.3156 47.5942 12.4325 48.784 14.5476 49.9786C15.7392 50.62 17.2025 51.0012 18.5153 50.5098C19.6738 50.0942 20.4857 48.9118 20.4636 47.6817C20.4745 38.7885 20.4577 29.8938 20.4714 21.002C20.4426 20.6074 20.8172 20.2815 21.2009 20.3184C22.2166 20.3116 23.234 20.3049 24.2497 20.3214C24.6737 20.3118 24.9652 20.7371 24.9128 21.1348C24.9087 30.0842 24.9237 39.0341 24.906 47.9835C24.9086 50.3685 23.9285 52.9639 21.7224 54.1309C19.0045 55.5386 15.6456 55.2397 12.9606 53.8897C10.6361 52.7295 8.41773 51.3602 6.13447 50.1172C4.5478 49.296 3.45045 47.58 3.46162 45.7813V18.6641C3.44498 16.9 4.48819 15.1999 6.03486 14.3672C13.984 9.8812 21.9318 5.39148 29.8796 0.903382ZM36.8142 19.6885C40.2809 19.4654 43.9923 19.556 47.112 21.2637C49.5274 22.5725 50.8672 25.3195 50.9099 28.003C50.8424 28.365 50.4634 28.5649 50.1179 28.5401C49.1121 28.5387 48.106 28.5538 47.1003 28.5333C46.6737 28.5496 46.4253 28.1556 46.3718 27.7784C46.0827 26.4946 45.3829 25.2228 44.1745 24.6036C42.3193 23.6747 40.1681 23.7219 38.1452 23.7413C36.6684 23.8197 35.08 23.947 33.8288 24.8155C32.8683 25.4733 32.5768 26.8017 32.9196 27.8712C33.2428 28.6389 34.129 28.8869 34.8542 29.1153C39.0322 30.208 43.4601 30.0992 47.5583 31.5372C49.2551 32.1234 50.915 33.2636 51.4958 35.0401C52.2554 37.4211 51.9222 40.2673 50.2282 42.1788C48.8545 43.7515 46.8535 44.6074 44.8581 45.0723C42.2035 45.6642 39.4485 45.6798 36.7526 45.4171C34.2175 45.128 31.5789 44.4618 29.6218 42.7344C27.9484 41.2814 27.1315 39.0172 27.2126 36.8321C27.232 36.4631 27.5993 36.2051 27.9528 36.2354C28.9657 36.2272 29.979 36.2251 30.9919 36.2374C31.3963 36.2086 31.6958 36.5583 31.7165 36.9395C31.9034 38.1628 32.3637 39.4467 33.4304 40.1719C35.489 41.5 38.0721 41.4092 40.4294 41.4464C42.3823 41.3597 44.5749 41.3337 46.1687 40.043C47.0095 39.3068 47.2582 38.0744 47.031 37.0147C46.7847 36.1203 45.8492 35.7033 45.0456 35.4307C40.9211 34.126 36.4437 34.5995 32.3591 33.1241C30.701 32.5381 29.0978 31.43 28.4606 29.7266C27.5717 27.3156 27.979 24.3334 29.8503 22.4864C31.6751 20.6492 34.3096 19.9418 36.8142 19.6885Z" fill="currentColor"/>
</g>
<defs>
<clipPath id="clip0_345_324">
<rect width="64" height="64" fill="currentColor" transform="translate(0.5 0.220703)"/>
</clipPath>
</defs>
</svg>
