<svg width="65" height="65" viewBox="0 0 65 65" fill="none" xmlns="http://www.w3.org/2000/svg">
<g clip-path="url(#clip0_345_356)">
<path d="M45.8674 0.182495C52.202 0.258163 57.453 2.7284 61.052 7.32703C62.412 9.06447 63.5756 12.906 61.3977 21.3378C60.0509 26.5523 57.7114 32.0924 54.8342 36.9501C55.5965 36.9287 56.6412 36.8177 58.0491 36.5272C58.8567 36.3608 59.5391 36.323 60.135 36.412C61.3989 36.6008 62.3761 37.3876 62.7493 38.5175C63.8377 41.8124 59.2155 44.2532 57.7727 44.9227C55.9471 45.7708 52.9743 46.2865 50.5432 46.1757L50.4309 46.1678L49.9934 46.1298L49.9544 46.4608C49.9356 46.6219 49.9169 46.7915 49.8958 46.9686C49.7326 53.233 48.8309 57.2089 46.9768 59.8485C45.0158 62.6407 42.305 63.4199 39.9182 63.9315C39.2486 64.0749 38.485 64.1805 37.6848 64.1805C36.0895 64.1805 34.3476 63.7633 32.9075 62.4042C31.5167 61.0919 30.9698 59.4159 30.6428 58.4149C30.5918 58.2577 30.5431 58.1088 30.5071 58.0116C29.8519 56.2431 29.6308 53.7153 29.5002 50.4647C29.4811 49.9841 29.466 49.4703 29.4514 48.9462C29.4427 48.6229 29.4328 48.2481 29.4192 47.8563C27.2163 48.8223 24.6338 48.9946 21.8772 48.3055C21.1123 48.1142 20.3463 47.7913 19.72 47.3964C19.2269 47.0851 18.8549 46.7503 18.5764 46.413C16.3791 48.2428 14.2898 47.9747 13.1399 47.5917C11.0882 46.9072 9.26004 45.001 7.55201 41.7645C6.34765 39.4821 5.18387 36.5108 4.09205 32.9335C2.1923 26.7096 0.985127 20.1471 0.877202 17.9901C0.537399 11.1965 2.37481 6.33178 6.33814 3.5321C9.61128 1.2198 14.0868 0.510247 19.6389 1.42175C21.9995 1.8092 24.044 2.41585 25.3176 2.84656C27.6182 1.48137 30.3105 0.817479 33.3577 0.866088C34.9833 0.89234 36.533 1.03371 37.9739 1.28796C39.5216 0.808155 42.4883 0.141176 45.8674 0.182495ZM45.7649 1.88464C41.7868 1.84 38.4259 2.85795 37.7737 3.14441C36.4013 2.80314 34.9044 2.59302 33.2756 2.56628C30.289 2.51798 27.707 3.23367 25.5696 4.69128C24.641 4.34562 22.2413 3.52146 19.3069 3.04871C14.2339 2.23209 10.2023 2.85059 7.32544 4.88855C3.89263 7.32067 2.30754 11.6686 2.61451 17.8104C2.71781 19.8767 3.8952 26.2336 5.75318 32.3212C8.19892 40.3337 10.8583 44.8695 13.6555 45.8026C13.9829 45.9117 14.3604 45.9882 14.7766 45.9882C15.797 45.9881 17.0483 45.5285 18.3499 43.9637C19.9375 42.0592 21.5798 40.2002 23.2747 38.3905C24.3743 38.9806 25.5822 39.3106 26.8176 39.3436C26.8201 39.3759 26.8235 39.4082 26.8264 39.4403C26.6138 39.6938 26.4051 39.951 26.2014 40.2118C25.3453 41.2985 25.167 41.5253 22.4114 42.0927C21.6275 42.2545 19.5459 42.6834 19.5149 44.1425C19.4818 45.7368 21.9753 46.4073 22.26 46.4784C23.2503 46.7263 24.2047 46.8485 25.1145 46.8485C27.3271 46.8485 29.2743 46.1208 30.8303 44.7137C30.7824 50.3981 31.0199 55.9994 31.7024 57.7059C32.2615 59.1031 33.6266 62.5175 37.9397 62.5175C38.5726 62.5175 39.27 62.4435 40.0364 62.2792C44.5378 61.3142 46.4931 59.3246 47.2493 54.9384C47.654 52.5941 48.3484 46.996 48.6751 43.993C49.3643 44.2081 50.252 44.3058 51.2112 44.3055C53.2121 44.3055 55.5211 43.8809 56.969 43.2089C58.5956 42.4534 61.5305 40.5996 60.9983 38.9891C60.7227 38.1557 59.8355 37.8879 58.3616 38.1923C53.9862 39.0953 52.4185 38.4697 51.9036 38.0907C55.3052 32.9086 58.1038 26.6442 59.6135 20.7997C60.3286 18.0313 60.7228 15.4598 60.7551 13.3641C60.7909 11.064 60.399 9.37325 59.5911 8.3407C56.3335 4.17833 51.5522 1.94589 45.7649 1.88464ZM33.2463 4.3573C39.8432 4.46522 44.0738 7.85144 46.4612 10.6727C48.5182 13.1034 49.6318 15.5521 50.0764 16.8729C46.7333 16.533 44.4595 17.1928 43.3069 18.8407C40.7992 22.4255 44.6787 29.3835 46.5432 32.7274C46.8852 33.3401 47.1808 33.8695 47.2737 34.0946C47.8808 35.566 48.6666 36.5485 49.2405 37.2655C49.4165 37.4852 49.5872 37.6985 49.717 37.8846C48.7045 38.1766 46.8854 38.8512 47.051 42.2225C46.9173 43.9143 45.9666 51.8352 45.4836 54.6337C44.8461 58.3307 43.4855 59.7078 39.6604 60.5282C35.6949 61.3778 34.2908 59.354 33.3655 57.0409C32.7683 55.5475 32.4746 48.813 32.6829 41.3759C32.6855 41.277 32.671 41.1815 32.6438 41.0917C32.6195 40.9142 32.5828 40.7384 32.5335 40.5663C32.2238 39.4842 31.4691 38.5784 30.5637 38.203C30.204 38.054 29.5435 37.7804 28.7502 37.9833C28.9194 37.2864 29.2125 36.4994 29.5305 35.6473L29.6643 35.288C29.8145 34.8839 30.0032 34.4654 30.2024 34.0223C31.2799 31.6286 32.7551 28.3493 31.1536 20.9423C30.5536 18.1681 28.5507 16.813 25.5139 17.1278C23.6933 17.3162 22.0273 18.0513 21.1965 18.4725C21.0181 18.5629 20.8549 18.6502 20.7024 18.7352C20.9343 15.94 21.8103 10.7163 25.0872 7.41101C27.1506 5.33036 29.8984 4.30189 33.2463 4.3573ZM28.5374 40.201C29.1233 39.545 29.3921 39.6565 29.8782 39.8583C30.272 40.0213 30.6553 40.5152 30.8108 41.0585C30.8844 41.3152 30.9671 41.8023 30.6965 42.1815C28.4127 45.3792 25.0846 45.3383 22.6946 44.7401C22.2022 44.6171 21.7591 44.4036 21.4993 44.2264C21.7163 44.1244 22.1029 43.9846 22.7727 43.8466C26.0145 43.1793 26.5153 42.7084 27.6086 41.3202C27.8592 41.0018 28.1439 40.6414 28.5374 40.202V40.201ZM8.35767 6.35242C13.0741 3.00784 20.8286 5.00996 23.9446 6.02527C23.8999 6.06951 23.8531 6.11116 23.8088 6.15613C18.6959 11.3199 18.8167 20.1422 18.8294 20.6815C18.8289 20.8896 18.8465 21.1846 18.8704 21.5897C18.9584 23.0738 19.1223 25.8355 18.6848 28.9628C18.2785 31.869 19.1748 34.7138 21.1428 36.7675C21.3447 36.9777 21.5569 37.1778 21.7786 37.3671C20.9025 38.3053 18.9986 40.3803 16.9719 42.8182C15.5379 44.5424 14.5476 44.2118 14.2219 44.1034C12.1 43.3955 9.63782 38.9106 7.46705 31.7987C5.58862 25.6447 4.49059 19.4558 4.40357 17.7206C4.12945 12.2328 5.45967 8.40778 8.35767 6.35242ZM50.7258 39.453C50.8019 39.515 50.8854 39.5763 50.9768 39.6366C52.4381 40.601 55.0442 40.7057 58.7239 39.9462L58.7639 39.9384C58.2675 40.4023 57.418 41.0247 56.2141 41.5839C55.1786 42.0643 53.446 42.4253 51.8001 42.5028C49.9824 42.5878 49.0572 42.2987 48.8391 42.121C48.7371 40.0202 49.5184 39.8006 50.346 39.5682C50.476 39.5318 50.6033 39.4958 50.7258 39.453ZM20.6282 20.9276C21.3755 20.2651 24.8366 18.411 27.3049 18.9764C28.4313 19.2343 29.1182 20.0018 29.4036 21.3212C30.8803 28.1519 29.5982 30.999 28.5686 33.287C28.3564 33.7582 28.1567 34.2041 27.9856 34.6649L27.8528 35.0214C27.5169 35.922 27.2037 36.7593 27.01 37.5546C25.3237 37.5496 23.6832 36.829 22.4358 35.5272C20.8499 33.872 20.1295 31.5702 20.4592 29.2108C20.9211 25.907 20.7501 23.0292 20.6585 21.4833C20.6456 21.267 20.6347 21.0771 20.6282 20.9276ZM45.9885 3.67956C51.1741 3.79405 55.2767 5.73403 58.1809 9.44519C60.4079 12.2924 57.9552 25.2442 50.8547 36.4178C50.7833 36.327 50.7111 36.2366 50.6389 36.1464L50.5491 36.0341C52.3839 33.0038 52.0257 30.0057 51.7063 27.3475C51.575 26.2566 51.4511 25.2256 51.4827 24.2577C51.5153 23.2322 51.6503 22.3524 51.7815 21.5018C51.9427 20.4535 52.107 19.3685 52.0618 18.0897C52.0955 17.9556 52.1097 17.7972 52.092 17.6093C51.9766 16.383 50.5765 12.7123 47.7229 9.3905C46.1619 7.57357 43.8847 5.54021 40.7766 4.16882C42.1134 3.89174 43.9418 3.63415 45.9885 3.67956ZM44.7747 19.868C45.3301 19.0747 46.7395 18.2589 50.2776 18.6981C50.2627 19.5844 50.1403 20.3895 50.011 21.2294C49.8718 22.1326 49.7279 23.0665 49.6917 24.2001C49.6559 25.3036 49.7938 26.4518 49.927 27.5614C50.1963 29.8023 50.4731 32.1093 49.4036 34.3856C49.2259 34.0708 49.067 33.7452 48.929 33.411C48.7959 33.0887 48.5073 32.5706 48.1077 31.8544C46.5522 29.0648 42.9106 22.5336 44.7747 19.868ZM27.0354 19.9081C26.3842 19.8175 25.7948 19.9019 25.4963 20.1278C25.3286 20.2549 25.2761 20.4024 25.262 20.5038C25.2248 20.7722 25.4129 21.0695 25.5286 21.2225C25.8557 21.656 26.334 21.9538 26.8069 22.0194C26.8752 22.0291 26.9434 22.0331 27.011 22.0331C27.7997 22.0331 28.5171 21.419 28.5803 20.9657C28.6592 20.398 27.8348 20.0192 27.0354 19.9081ZM48.6165 19.9266C48.5542 19.4817 47.7624 19.3544 47.011 19.4589C46.2604 19.5634 45.5323 19.9025 45.593 20.3485C45.6419 20.6954 46.268 21.2868 47.009 21.287C47.0716 21.287 47.135 21.2832 47.1985 21.2743C47.6934 21.2057 48.0572 20.8909 48.2297 20.7098C48.4919 20.434 48.6442 20.1266 48.6165 19.9266Z" fill="currentColor"/>
</g>
<defs>
<clipPath id="clip0_345_356">
<rect width="64" height="64" fill="currentColor" transform="translate(0.837402 0.180664)"/>
</clipPath>
</defs>
</svg>
