<svg width="65" height="65" viewBox="0 0 65 65" fill="none" xmlns="http://www.w3.org/2000/svg">
<g clip-path="url(#clip0_345_318)">
<path d="M55.3242 16.6721C55.3242 16.6721 64.3759 16.0923 64.376 32.4446C64.376 48.7334 54.0863 47.6302 54.0059 47.6213H32.3975V49.8069H47.8633L47.8809 57.0881C47.8809 57.0881 48.8929 64.1164 32.6865 64.1165C15.7499 64.1165 17.0586 55.6428 17.0586 55.6428V41.6409C17.0588 33.2001 25.6202 33.311 25.6758 33.3118H41.0146C50.213 33.3118 49.9219 24.26 49.9219 24.26V16.6721H55.3242ZM41.2139 53.6555C40.8485 53.6552 40.4861 53.7268 40.1484 53.8665C39.8109 54.0062 39.5044 54.2116 39.2461 54.47C38.9877 54.7284 38.7823 55.0356 38.6426 55.3733C38.503 55.7108 38.4313 56.0725 38.4316 56.4377C38.4313 56.8031 38.5029 57.1655 38.6426 57.5032C38.7823 57.8409 38.9877 58.1481 39.2461 58.4065C39.5045 58.6648 39.8118 58.8694 40.1494 59.009C40.487 59.1486 40.8486 59.2203 41.2139 59.22C41.5793 59.2203 41.9416 59.1487 42.2793 59.009C42.617 58.8693 42.9242 58.6649 43.1826 58.4065C43.441 58.1481 43.6455 57.8408 43.7852 57.5032C43.9249 57.1655 43.9964 56.8032 43.9961 56.4377C43.9964 56.0725 43.9247 55.7108 43.7852 55.3733C43.6455 55.0357 43.4409 54.7283 43.1826 54.47C42.9242 54.2116 42.617 54.0062 42.2793 53.8665C41.9416 53.7268 41.5793 53.6552 41.2139 53.6555ZM32.2256 0.608643C49.1625 0.608643 47.8535 9.08325 47.8535 9.08325V23.0842C47.8535 31.5217 39.2984 31.4142 39.2363 31.4133H23.8965C14.7066 31.4136 14.9897 40.4492 14.9902 40.4651V48.053H9.58789C9.58789 48.053 0.536133 48.6332 0.536133 32.2805C0.536187 15.9859 10.8338 17.0967 10.9062 17.1047H32.5146V14.9182H17.0498L17.0312 7.63696C17.0244 7.58773 16.0766 0.608733 32.2256 0.608643ZM23.6982 5.5061C23.3328 5.50577 22.9705 5.57734 22.6328 5.71704C22.2954 5.85669 21.9887 6.06138 21.7305 6.31958C21.472 6.578 21.2667 6.8852 21.127 7.2229C20.9873 7.56057 20.9157 7.92292 20.916 8.28833C20.9157 8.65356 20.9874 9.01528 21.127 9.35278C21.2667 9.69049 21.472 9.99768 21.7305 10.2561C21.9887 10.5143 22.2954 10.719 22.6328 10.8586C22.9705 10.9983 23.3328 11.0709 23.6982 11.0706C24.0637 11.0709 24.426 10.9983 24.7637 10.8586C25.1011 10.719 25.4077 10.5143 25.666 10.2561C25.9244 9.99768 26.1298 9.69049 26.2695 9.35278C26.4091 9.01529 26.4807 8.65355 26.4805 8.28833C26.4808 7.92293 26.4092 7.56056 26.2695 7.2229C26.1298 6.8852 25.9244 6.578 25.666 6.31958C25.4078 6.06138 25.1011 5.8567 24.7637 5.71704C24.426 5.57734 24.0637 5.50578 23.6982 5.5061Z" fill="currentColor"/>
</g>
<defs>
<clipPath id="clip0_345_318">
<rect width="64" height="64" fill="currentColor" transform="translate(0.5 0.591064)"/>
</clipPath>
</defs>
</svg>
