<svg width="65" height="64" viewBox="0 0 65 64" fill="none" xmlns="http://www.w3.org/2000/svg">
<g clip-path="url(#clip0_345_331)">
<path d="M45.5059 3.51514C46.5835 3.51698 47.5705 3.75196 48.415 4.24561C52.0938 6.35894 52.9293 12.9605 51.0508 21.2573C59.1907 23.749 64.5 27.7667 64.5 32.0063C64.5 36.233 59.2168 40.251 51.1289 42.7427C53.0204 51.0133 52.1979 57.601 48.5322 59.7144C47.6713 60.21 46.6797 60.4448 45.584 60.4448C41.9966 60.4446 37.3 57.9145 32.5518 53.5054C27.8034 57.9405 23.1069 60.4976 19.5195 60.4976C18.4241 60.4975 17.4327 60.2626 16.585 59.7671C12.9062 57.6538 12.0707 51.0522 13.9492 42.7554C5.80926 40.2637 0.500027 36.246 0.5 32.0063C0.5 27.7797 5.78331 23.7747 13.8975 21.27C12.006 12.9996 12.8277 6.41185 16.4932 4.29834C17.3541 3.80267 18.3457 3.56791 19.4414 3.56787V3.5542C23.0288 3.5542 27.7252 6.08544 32.4736 10.4946C37.222 6.05935 41.9184 3.50256 45.5059 3.50244V3.51514ZM16.7412 43.5386C16.4543 44.856 16.2197 46.1474 16.0762 47.3735C15.4761 52.3565 16.2456 56.2307 18.0195 57.2485C18.4109 57.4703 18.9071 57.588 19.4941 57.6011C22.2075 57.6009 26.1995 55.4355 30.4521 51.4829C28.6128 49.5653 26.7864 47.3737 25.0254 44.9604C22.0902 44.6474 19.2981 44.1647 16.7412 43.5386ZM48.2852 43.5122C45.7284 44.1514 42.9364 44.6337 39.9883 44.9468C38.2533 47.36 36.4268 49.539 34.6006 51.4565C38.8533 55.3831 42.8582 57.5356 45.5586 57.5356C46.1585 57.5356 46.6673 57.4316 47.0586 57.1968C48.8197 56.1662 49.576 52.2914 48.9629 47.3081C48.8194 46.095 48.5852 44.8296 48.2852 43.5122ZM36.1133 45.2476C34.9264 45.3128 33.7133 45.3384 32.4873 45.3384C31.2741 45.3384 30.0735 45.2997 28.8994 45.2476C30.0995 46.7738 31.3132 48.1691 32.5264 49.4214C33.7263 48.1692 34.9394 46.7736 36.1133 45.2476ZM32.5 21.5962C30.5171 21.5962 28.5473 21.6873 26.6035 21.8569C25.5208 23.4093 24.4775 25.0793 23.46 26.8403C22.4816 28.5493 21.5676 30.2973 20.7588 32.0454C21.5806 33.7935 22.4812 35.5289 23.4727 37.2378C24.4901 38.9858 25.5472 40.6425 26.6299 42.1948C28.5605 42.3514 30.5303 42.4429 32.5 42.4429C34.4829 42.4429 36.4527 42.3507 38.3965 42.1812C39.4791 40.629 40.5227 38.9596 41.54 37.1987C42.5184 35.4898 43.4194 33.7417 44.2412 31.9937C43.4194 30.2456 42.5188 28.5102 41.5273 26.8013C40.5098 25.0532 39.4529 23.3966 38.3701 21.8442C36.4395 21.6877 34.4698 21.5962 32.5 21.5962ZM19.2334 35.5542C18.555 37.2892 17.9544 39.0247 17.4717 40.7075C19.1806 41.125 20.9679 41.4638 22.8203 41.7378C22.1812 40.7464 21.5555 39.7286 20.9424 38.6851C20.3293 37.6415 19.7682 36.5978 19.2334 35.5542ZM45.7539 35.5024C45.2191 36.546 44.6577 37.6024 44.0576 38.646C43.4576 39.7026 42.8189 40.7334 42.1797 41.7378C44.0451 41.4638 45.8458 41.1123 47.5547 40.6948C47.059 38.9989 46.4583 37.2505 45.7539 35.5024ZM14.6152 24.0874C13.3498 24.4918 12.1229 24.9231 11.001 25.4058C6.38325 27.3625 3.39648 29.9583 3.39648 32.0063C3.39652 34.0544 6.38326 36.6371 11.001 38.6069C12.1359 39.0896 13.3628 39.5336 14.6543 39.938C15.3848 37.3943 16.3497 34.746 17.5498 32.0327C16.3366 29.3063 15.3588 26.6443 14.6152 24.0874ZM50.333 24.0747C49.6025 26.6185 48.6367 29.2666 47.4365 31.98C48.6497 34.7063 49.6285 37.3676 50.3721 39.9243C51.6374 39.5199 52.8635 39.0896 53.9854 38.6069C58.6033 36.6502 61.5904 34.0544 61.6035 32.0063C61.6035 29.9583 58.6168 27.3756 53.999 25.4058C52.8511 24.9231 51.6244 24.4791 50.333 24.0747ZM32.4873 26.0444C35.7797 26.0446 38.4492 28.7139 38.4492 32.0063C38.4491 35.2987 35.7797 37.9681 32.4873 37.9683C29.1948 37.9683 26.5255 35.2988 26.5254 32.0063C26.5254 28.7138 29.1948 26.0444 32.4873 26.0444ZM22.8076 22.2749C20.9421 22.5489 19.1415 22.9008 17.4326 23.3052C17.9283 25.0011 18.529 26.7495 19.2334 28.4976C19.7682 27.4541 20.3287 26.4102 20.9287 25.3667C21.5288 24.3101 22.1684 23.2793 22.8076 22.2749ZM42.167 22.2749C42.806 23.2661 43.445 24.2833 44.0449 25.3267C44.658 26.3701 45.2191 27.414 45.7539 28.4575C46.4322 26.7227 47.032 24.9878 47.5146 23.3052C45.806 22.8878 44.0191 22.5488 42.167 22.2749ZM19.4414 6.47705C18.8415 6.47709 18.3327 6.58114 17.9414 6.81592C16.1803 7.84655 15.424 11.7214 16.0371 16.7046C16.1936 17.9177 16.4148 19.1834 16.7148 20.4878C19.2716 19.8486 22.0636 19.3653 25.0117 19.0522C26.7467 16.6389 28.5731 14.4601 30.3994 12.5425C26.1468 8.61605 22.1417 6.46338 19.4414 6.46338V6.47705ZM45.4932 6.41162C42.78 6.4185 38.7938 8.58336 34.5479 12.5298C36.3872 14.4474 38.2136 16.639 39.9746 19.0522C42.9098 19.3653 45.7019 19.8479 48.2588 20.4741C48.5458 19.1567 48.7803 17.8653 48.9238 16.6392C49.5239 11.6562 48.7544 7.782 46.9805 6.76416C46.5761 6.5424 46.0932 6.42433 45.4932 6.42432V6.41162ZM32.4609 14.5913C31.2608 15.8436 30.0471 17.2389 28.873 18.7651C30.0602 18.6999 31.2737 18.6743 32.5 18.6743C33.7132 18.6743 34.9138 18.713 36.0879 18.7651C34.8878 17.2389 33.6741 15.8436 32.4609 14.5913Z" fill="currentColor"/>
</g>
<defs>
<clipPath id="clip0_345_331">
<rect width="64" height="64" fill="currentColor" transform="translate(0.5)"/>
</clipPath>
</defs>
</svg>
