<svg width="65" height="64" viewBox="0 0 65 64" fill="none" xmlns="http://www.w3.org/2000/svg">
<g clip-path="url(#clip0_345_335)">
<path d="M32.1753 12.8096C23.6451 12.8096 18.314 17.0735 16.1813 25.6005C19.3804 21.3366 23.1123 19.7382 27.377 20.8038C29.8106 21.4118 31.5497 23.1774 33.4753 25.1309C36.6112 28.3132 40.2407 31.9964 48.1694 31.9964C56.6988 31.9964 62.0307 27.7325 64.1626 19.2046C60.9643 23.4685 57.2324 25.0677 52.9669 24.0021C50.5341 23.3941 48.795 21.6286 46.8694 19.675C43.7335 16.4927 40.1032 12.8096 32.1753 12.8096ZM16.1813 31.9964C7.65183 31.9964 2.31994 36.2603 0.187988 44.7881C3.38632 40.5242 7.11824 38.925 11.3838 39.9914C13.8165 40.6002 15.5557 42.365 17.4812 44.3177C20.6172 47.5 24.2475 51.184 32.1753 51.184C40.7055 51.184 46.0366 46.9201 48.1694 38.3922C44.9703 42.6561 41.2383 44.2553 36.9736 43.1889C34.5401 42.5817 32.8009 40.8154 30.8753 38.8626C27.7394 35.6803 24.1099 31.9964 16.1813 31.9964Z" fill="currentColor"/>
</g>
<defs>
<clipPath id="clip0_345_335">
<rect width="64" height="64" fill="currentColor" transform="translate(0.162598 -0.00317383)"/>
</clipPath>
</defs>
</svg>
