<svg width="65" height="65" viewBox="0 0 65 65" fill="none" xmlns="http://www.w3.org/2000/svg">
<g clip-path="url(#clip0_345_321)">
<path d="M64.5 64.4631H0.5V0.463135H64.5V64.4631ZM51.9561 29.8713C50.852 29.5834 48.2118 29.4872 47.0918 29.7112C43.636 30.3513 41.2202 32.5914 40.5322 35.7913C40.3083 36.7033 40.3879 38.9756 40.6279 39.9036C40.948 40.9755 41.6367 42.2709 42.3887 43.1028C43.7006 44.4787 45.1081 45.3755 48.4199 46.7834C51.2996 48.0633 52.3239 48.6391 52.8359 49.343C53.2039 49.9029 53.3164 50.2391 53.3164 50.9749C53.3164 51.7749 53.0598 52.3508 52.4678 52.8948C51.0918 54.1427 48.3085 54.287 46.2285 53.2151C45.5405 52.8311 44.3561 51.7112 43.8281 50.8792L43.4121 50.3196L41.6045 51.3752L39.2041 52.7668L38.5967 53.1516C38.5338 53.265 39.668 54.9757 40.2598 55.6155C41.7638 57.2635 44.2125 58.5427 46.7725 59.0227C47.9725 59.2307 50.5324 59.2635 51.6523 59.0715C55.2203 58.4795 57.7162 56.6712 58.7402 53.9993C59.6522 51.5513 59.3482 48.2873 57.9883 46.2073C56.7883 44.3513 54.8043 43.0551 50.2285 41.0872C47.7486 39.9992 46.9486 39.471 46.5166 38.5911C46.3246 38.1751 46.2285 37.8872 46.2285 37.3752C46.2285 35.6952 47.5087 34.6867 49.4287 34.8147C50.7564 34.9108 51.6047 35.4229 52.4365 36.6067C52.6925 37.0227 52.9487 37.2953 53.0127 37.2473C54.6907 36.2085 57.4533 34.3397 57.46 34.2395C57.396 33.9515 56.5158 32.8317 55.9238 32.1917C54.8038 31.0237 53.5558 30.2876 51.9238 29.9036L51.9561 29.8713ZM14.5801 29.967V32.5911L14.5322 32.5754V35.1829H22.8525V58.8635H28.7559V35.1829H37.0762V32.6233C37.0762 31.1876 37.0761 30.0223 37.0127 29.9836C37.0127 29.9356 31.9403 29.9192 25.7803 29.9192L14.5801 29.967Z" fill="currentColor"/>
</g>
<defs>
<clipPath id="clip0_345_321">
<rect width="64" height="64" fill="currentColor" transform="translate(0.5 0.463135)"/>
</clipPath>
</defs>
</svg>
