<svg xmlns="http://www.w3.org/2000/svg" width="120" height="120" viewBox="0 0 240 240" fill="none"><path fill="#fff" d="M219.829 68.496c-6.552-6.725-13.051-14.123-4.524-44.05-29.971 8.371-36.6 2.68-43.291-3.907-27.181-32.424-45.797-9.79-47.49-7.403-1.892 2.667-3.716 6.923-3.803 9.933l-.102 3.512-1.233-.218-.102-3.512c-.088-3.01-1.911-7.266-3.803-9.933-1.694-2.387-20.31-25.021-47.49 7.403-6.691 6.586-13.32 12.278-43.29 3.907 8.526 29.927 2.027 37.325-4.525 44.05-32.283 27.348-9.552 45.846-7.156 47.527 2.676 1.878 6.942 3.68 9.952 3.752l3.513.083v.19l-3.513.084c-3.01.072-7.276 1.873-9.952 3.751-2.396 1.681-25.127 20.18 7.156 47.528 6.552 6.725 13.05 14.123 4.524 44.049 29.97-8.37 36.6-2.679 43.29 3.908 27.181 32.424 45.797 9.79 47.491 7.402 1.892-2.666 3.363-8.858 3.45-11.868h.502l-.399 1.936c.087 3.01 1.911 7.266 3.803 9.933 1.693 2.387 20.309 25.021 47.49-7.403 6.69-6.587 13.32-12.278 43.29-3.908-8.526-29.926-2.028-37.324 4.525-44.049 32.282-27.348 9.551-45.847 7.156-47.528-2.677-1.878-6.942-3.679-9.953-3.751l-3.513-.084 1.658-.055h3.543c3.011-.072 7.276-1.873 9.952-3.751 2.396-1.682 25.127-20.18-7.156-47.528"/><path fill="#16DDEB" d="M65.782 18.264C79.794 1.606 92.273-1.603 101.967.63c9.317 2.147 14.945 9.105 15.967 10.545.757 1.067 1.483 2.324 2.118 3.644a25 25 0 0 1 2.013-3.425c1.021-1.44 6.651-8.4 15.968-10.546 9.694-2.233 22.171.977 36.183 17.634 3.214 3.16 6.005 5.648 11.28 6.663 5.547 1.066 14.152.547 28.996-3.6l5.18-1.447-1.473 5.174c-4.21 14.775-4.57 23.545-3.344 29.269 1.179 5.503 3.88 8.513 7.04 11.76 16.585 14.098 19.729 26.593 17.446 36.275-2.196 9.306-9.183 14.899-10.629 15.913a25 25 0 0 1-3.076 1.816c.488.291.955.59 1.389.895 1.446 1.015 8.432 6.608 10.627 15.913 2.284 9.682-.861 22.175-17.445 36.273-3.16 3.247-5.861 6.259-7.04 11.762-1.227 5.724-.866 14.494 3.344 29.269l1.473 5.173-5.18-1.446c-14.844-4.146-23.449-4.666-28.996-3.599-5.275 1.014-8.065 3.501-11.279 6.661-14.012 16.658-26.49 19.868-36.183 17.634-9.317-2.147-14.946-9.104-15.968-10.545a23 23 0 0 1-1.281-2.035c-.353.745-.74 1.439-1.163 2.035-1.022 1.441-6.65 8.398-15.967 10.545-9.694 2.234-22.173-.976-36.185-17.635-3.214-3.159-6.004-5.646-11.278-6.66-5.547-1.067-14.152-.547-28.995 3.599l-5.182 1.446 1.475-5.173c4.21-14.775 4.57-23.545 3.343-29.269-1.18-5.504-3.88-8.514-7.04-11.762C1.521 159.288-1.625 146.795.659 137.113c2.195-9.306 9.183-14.898 10.628-15.913a24 24 0 0 1 2.398-1.465 24 24 0 0 1-2.398-1.464c-1.445-1.014-8.433-6.607-10.628-15.913-2.283-9.682.861-22.178 17.446-36.276 3.16-3.247 5.86-6.256 7.04-11.76 1.226-5.724.866-14.494-3.343-29.269l-1.475-5.172 5.182 1.447c14.843 4.146 23.448 4.664 28.995 3.598 5.274-1.014 8.064-3.502 11.278-6.662M100.614 6.5c-6.809-1.569-17.192.096-30.318 15.755l-.093.111-.103.101c-3.437 3.384-7.304 6.999-14.458 8.374-6.126 1.178-14.41.674-26.692-2.375 3.082 12.346 3.437 20.809 2.085 27.119-1.566 7.306-5.35 11.352-8.705 14.794l-.1.103-.11.094C6.53 83.784 4.918 94.175 6.522 100.976c1.699 7.2 7.274 11.697 8.225 12.364 1.12.785 2.637 1.597 4.217 2.214 1.611.629 3.061.967 4.077.992l6.453.154v6.071l-6.453.154c-1.016.024-2.466.364-4.077.993-1.58.617-3.098 1.427-4.217 2.213-.95.667-6.526 5.163-8.225 12.364-1.58 6.694-.043 16.868 14.877 29.783l.721.618.11.092.1.104c3.354 3.442 7.14 7.489 8.705 14.795 1.352 6.31.997 14.772-2.085 27.117 12.282-3.049 20.566-3.553 26.692-2.375 7.154 1.376 11.021 4.99 14.458 8.374l.103.101.093.111c13.126 15.659 23.51 17.324 30.318 15.756 7.209-1.661 11.735-7.213 12.408-8.161.628-.885 1.359-2.676 1.953-4.855.579-2.125.908-4.175.943-5.358l.085-2.925h7.123l-1.065 5.166c.081.991.418 2.314.995 3.767.625 1.576 1.444 3.09 2.235 4.205.672.948 5.198 6.499 12.406 8.161 6.809 1.568 17.192-.097 30.319-15.756l.093-.11.102-.101c3.438-3.384 7.305-6.999 14.46-8.375 6.126-1.178 14.409-.673 26.691 2.376-3.082-12.346-3.436-20.808-2.084-27.118 1.565-7.306 5.351-11.353 8.704-14.795l.1-.104.11-.092c15.591-13.208 17.203-23.6 15.599-30.401-1.699-7.2-7.275-11.697-8.226-12.364-1.119-.786-2.637-1.596-4.216-2.213-1.612-.629-3.063-.969-4.078-.993l-3.513-.083-.028-6.022 1.657-.055.05-.002h3.538c1.015-.027 2.459-.366 4.061-.992 1.58-.617 3.098-1.427 4.217-2.213.95-.667 6.526-5.164 8.225-12.365 1.604-6.8-.007-17.192-15.598-30.4l-.109-.093-.101-.103c-3.354-3.442-7.14-7.489-8.705-14.795-1.352-6.31-.997-14.773 2.085-27.118-12.282 3.048-20.565 3.553-26.691 2.375-7.155-1.376-11.023-4.99-14.461-8.374l-.101-.101-.094-.11C156.576 6.814 146.194 5.15 139.385 6.719c-7.209 1.66-11.735 7.213-12.407 8.16-.791 1.115-1.61 2.629-2.235 4.205-.638 1.608-.984 3.057-1.014 4.072l-.203 7-7.082-1.255-.173-5.963c-.03-1.016-.376-2.464-1.014-4.072-.625-1.576-1.444-3.09-2.235-4.205-.673-.948-5.199-6.5-12.408-8.161"/><path fill="#145189" d="M109.825 132.422h22.636v5.144h-22.636z"/><path fill="#16DDEB" d="M212.291 120.318c0-51.285-41.575-92.86-92.86-92.86s-92.86 41.575-92.86 92.86 41.575 92.86 92.86 92.86v4.016c-53.503 0-96.875-43.373-96.875-96.876s43.372-96.875 96.875-96.875 96.876 43.372 96.876 96.875-43.373 96.876-96.876 96.876v-4.016c51.285 0 92.86-41.575 92.86-92.86"/><path fill="#16DDEB" d="m151.525 90.579 3.546-1.884-34.132-64.25-3.546 1.885z"/><path fill="#16DDEB" d="m88.634 89.404-3.543-1.89 34.014-63.776 3.543 1.89z"/><path fill="#16DDEB" d="m88.689 89.23-1.884-3.547-64.25 34.133 1.884 3.546z"/><path fill="#16DDEB" d="M87.755 150.672a2.009 2.009 0 0 1-1.897 3.54l-62.303-33.396 1.897-3.538z"/><path fill="#16DDEB" d="m88.34 151.06-3.546 1.884 34.132 64.249 3.547-1.884z"/><path fill="#16DDEB" d="m150.532 151.038 3.533 1.907-34.132 63.245-3.534-1.908z"/><path fill="#16DDEB" d="m150.172 151.406 1.884 3.546 64.249-34.132-1.884-3.546z"/><path fill="#16DDEB" d="m151.175 90.233 1.886-3.545 62.242 33.128-1.887 3.545z"/><path fill="#16DDEB" d="M185.924 54.357v132.926H52.998V54.357zm-124.87 124.87h116.814V62.413H61.054z"/><path fill="#145189" d="M77.503 128.585s3.542-8.136 7.881-11.337c3.08-2.271 7.977-3.861 7.977-3.861s7.895-1.516 11.833 0c3.721 1.433 5.83 3.175 7.716 6.688.902 1.679 1.19 2.757 1.543 4.63.484 2.567.001 6.688.001 6.688h-3.087s-3.948-5.728-7.717-7.717c-5.165-2.725-9.235-2.372-14.919-1.029-4.827 1.141-11.228 5.938-11.228 5.938"/><path fill="#fff" d="m76.562 128.175.944.411zv-.001l.001-.002.002-.005.01-.02.032-.073q.042-.097.125-.275a50.361 50.361 0 0 1 2.2-4.202c1.437-2.452 3.495-5.444 5.843-7.176 1.638-1.208 3.72-2.211 5.354-2.902a43 43 0 0 1 2.685-1.032l.169-.057.045-.015.012-.004.005-.001.318.977c-.01.003-4.6 1.494-7.683 3.651l-.294.211c-4.34 3.2-7.88 11.337-7.88 11.337s6.4-4.797 11.227-5.938l1.048-.24c5.149-1.135 9.03-1.286 13.871 1.269l.354.197c3.658 2.144 7.363 7.52 7.363 7.52h3.087c.003-.025.481-4.129-.001-6.688-.308-1.639-.568-2.669-1.232-4.026l-.311-.604c-1.768-3.294-3.732-5.031-7.037-6.416l-.679-.272c-3.938-1.517-11.833-.001-11.833-.001l-.318-.977.061-.02.063-.013h.002l.006-.001.019-.004.072-.013.267-.048a46.827 46.827 0 0 1 4.189-.518c2.466-.189 5.636-.215 7.842.635 1.93.743 3.501 1.589 4.846 2.743 1.347 1.156 2.42 2.58 3.407 4.418.968 1.804 1.283 2.993 1.647 4.926.265 1.407.259 3.178.198 4.543a40 40 0 0 1-.18 2.403l-.006.048v.003l-.001.001-.106.91h-4.542l-.308-.445-.001-.003-.007-.009-.031-.045-.125-.177a40.783 40.783 0 0 0-2.21-2.788c-1.445-1.666-3.27-3.469-4.975-4.369-2.455-1.296-4.614-1.844-6.822-1.922-2.231-.079-4.561.318-7.38.984-2.247.531-4.937 1.941-7.126 3.274a55 55 0 0 0-3.451 2.288q-.135.097-.204.149l-.051.037-.012.01-.003.002-3.114 2.333z"/><path fill="#145189" d="M100.627 136.857s-3.478 1.245-4.63 3.087c-.775 1.24-1.093 2.14-1.029 3.601.055 1.27.25 2.083 1.029 3.087 1.618 2.089 4.098 1.553 6.688 1.029 2.84-.575 4.25-1.948 6.173-4.116 1.258-1.417 2.573-4.115 2.573-4.115h2.572s.514 0 0 2.058c-.515 2.057-2.103 4.089-4.116 6.173-2.206 2.285-3.666 3.649-6.688 4.63-3.248 1.055-5.145 1.029-8.745.515-1.725-.506-2.83-.922-4.116-2.058-1.622-1.433-1.877-2.989-2.058-5.145-.17-2.042-.03-3.39 1.029-5.144 1.267-2.1 2.804-2.871 5.145-3.602 2.3-.718 6.173 0 6.173 0"/><path fill="#fff" d="M115.191 139.437c.129.516.072 1.24-.193 2.299-.586 2.346-2.355 4.548-4.374 6.639-2.238 2.318-3.842 3.833-7.11 4.894-1.688.549-3.067.829-4.511.896-1.43.065-2.883-.082-4.698-.341l-.073-.011-.072-.021c-1.773-.521-3.051-.988-4.507-2.274-1.942-1.716-2.218-3.637-2.402-5.83-.088-1.057-.103-2.007.067-2.948.172-.954.524-1.847 1.107-2.813.707-1.171 1.512-2.006 2.487-2.644.956-.625 2.034-1.035 3.231-1.409 1.347-.42 3.055-.404 4.33-.313a24 24 0 0 1 2.147.251l.138.023.038.007.01.002.003.001h.002l3.75.697-3.59 1.284-.005.002-.023.008-.1.038a15 15 0 0 0-1.617.743c-.996.531-1.938 1.198-2.36 1.872-.363.582-.585 1.029-.716 1.467-.129.431-.185.903-.157 1.544.026.597.083 1.016.197 1.379.11.352.29.7.617 1.123.588.759 1.306 1.048 2.222 1.097.987.053 2.112-.177 3.448-.447 2.497-.506 3.718-1.66 5.608-3.79.554-.625 1.154-1.576 1.634-2.417a31 31 0 0 0 .73-1.358l.04-.083.01-.02.003-.005v-.001l.282-.577h3.215v1.028h-2.572c-.016.033-1.322 2.707-2.572 4.116-1.923 2.167-3.334 3.541-6.174 4.116-2.59.524-5.07 1.06-6.688-1.029l-.138-.187c-.663-.922-.839-1.71-.89-2.9l-.008-.267c-.013-1.133.229-1.933.767-2.883l.27-.451c1.144-1.83 4.583-3.07 4.629-3.087-.047-.009-3.886-.714-6.173 0-2.34.731-3.878 1.502-5.145 3.601-.926 1.535-1.15 2.76-1.077 4.409l.048.736c.17 2.022.406 3.515 1.77 4.874l.288.27c1.126.995 2.113 1.437 3.497 1.871l.619.187c3.375.483 5.254.535 8.152-.329l.594-.185c2.643-.859 4.092-2.01 5.891-3.815l.796-.815c1.887-1.954 3.402-3.862 4.008-5.788l.108-.386c.514-2.058 0-2.058 0-2.058 0-1.028.003-1.028.005-1.028h.029l.035.002a1.047 1.047 0 0 1 .256.047c.128.039.263.106.39.208.262.209.406.496.477.779"/><path fill="#145189" d="M123.201 147.091c.515 1.45 2.89 8.546 1.753 13.09-.929 3.714-4.84 8.253-4.84 8.253-.011-.013-3.911-4.544-4.84-8.253-1.137-4.544 1.238-11.64 1.754-13.09v-7.466h6.173z"/><path fill="#fff" d="M117.028 139.624v7.467c-.515 1.45-2.891 8.546-1.754 13.089.928 3.708 4.825 8.236 4.84 8.254 0 0 3.911-4.539 4.84-8.254 1.137-4.543-1.238-11.639-1.753-13.089v-7.467zm7.202 7.296c.305.876.982 2.938 1.475 5.35.522 2.553.874 5.654.247 8.161-.511 2.043-1.81 4.232-2.917 5.851a37 37 0 0 1-1.958 2.606l-.133.158-.036.043-.01.011-.003.004-.001.001-.78.905-.779-.905a35 35 0 0 1-2.146-2.831c-1.105-1.617-2.402-3.803-2.912-5.843-.628-2.507-.276-5.608.247-8.161a43 43 0 0 1 1.475-5.35v-8.325h8.231z"/><path fill="#145189" d="M139.892 136.857s3.477 1.245 4.63 3.087c.775 1.24 1.092 2.14 1.029 3.601-.056 1.27-.251 2.083-1.029 3.087-1.619 2.089-4.098 1.553-6.688 1.029-2.84-.575-4.251-1.948-6.174-4.116-1.258-1.417-2.572-4.115-2.572-4.115h-2.572s-.515 0 0 2.058c.514 2.057 2.103 4.089 4.115 6.173 2.207 2.285 3.667 3.649 6.688 4.63 3.249 1.055 5.145 1.029 8.746.515 1.724-.506 2.829-.922 4.116-2.058 1.621-1.433 1.877-2.989 2.057-5.145.171-2.042.03-3.39-1.028-5.144-1.267-2.1-2.804-2.871-5.145-3.602-2.301-.718-6.173 0-6.173 0"/><path fill="#fff" d="M125.322 139.437c-.129.516-.072 1.24.193 2.299.586 2.346 2.354 4.548 4.374 6.639 2.238 2.318 3.842 3.833 7.11 4.894 1.688.549 3.067.829 4.511.896 1.431.065 2.883-.082 4.698-.341l.073-.011.071-.021c1.774-.521 3.052-.988 4.508-2.274 1.942-1.716 2.218-3.637 2.401-5.83.089-1.057.103-2.007-.066-2.948-.172-.954-.524-1.847-1.107-2.813-.707-1.171-1.512-2.006-2.487-2.644-.956-.625-2.035-1.035-3.232-1.409-1.346-.42-3.054-.404-4.329-.313a24 24 0 0 0-2.285.274l-.038.007-.01.002-.003.001h-.002l-3.75.697 3.59 1.284.005.002.023.008.099.038a14.751 14.751 0 0 1 1.618.743c.995.531 1.937 1.198 2.359 1.872.364.582.586 1.029.717 1.467.128.431.184.903.157 1.544-.026.597-.083 1.016-.197 1.379-.111.352-.29.7-.617 1.123-.588.759-1.306 1.048-2.222 1.097-.987.053-2.112-.177-3.448-.447-2.497-.506-3.718-1.66-5.608-3.79-.554-.625-1.154-1.576-1.634-2.417a32 32 0 0 1-.73-1.358q-.028-.054-.041-.083l-.01-.02-.003-.005-.281-.578h-3.215v1.028h2.572c.016.033 1.322 2.707 2.572 4.116 1.923 2.167 3.334 3.541 6.174 4.116 2.589.524 5.069 1.06 6.688-1.029l.138-.187c.663-.922.839-1.71.89-2.9l.007-.267c.013-1.133-.228-1.933-.766-2.883l-.269-.451c-1.145-1.83-4.584-3.07-4.631-3.087.048-.009 3.887-.714 6.174 0 2.341.731 3.878 1.502 5.144 3.601.926 1.535 1.15 2.76 1.078 4.409l-.049.736c-.169 2.022-.405 3.515-1.77 4.874l-.287.27c-1.126.995-2.113 1.437-3.497 1.871l-.619.187c-3.376.483-5.254.535-8.152-.329l-.594-.185c-2.643-.859-4.092-2.01-5.891-3.815l-.797-.815c-1.886-1.954-3.401-3.862-4.007-5.788l-.108-.386c-.515-2.058 0-2.058 0-2.058 0-1.028-.005-1.028-.005-1.028h-.03l-.035.002a1.027 1.027 0 0 0-.255.047 1.2 1.2 0 0 0-.391.208 1.42 1.42 0 0 0-.476.779"/><path fill="#145189" d="M162.933 128.492s-3.542-8.136-7.881-11.337c-3.079-2.271-7.977-3.861-7.977-3.861s-7.895-1.516-11.832 0c-3.722 1.433-5.831 3.175-7.717 6.688-.901 1.679-1.19 2.757-1.542 4.63-.484 2.567-.001 6.688-.001 6.688h3.087s3.947-5.728 7.717-7.717c5.165-2.725 9.235-2.372 14.918-1.029 4.828 1.141 11.228 5.938 11.228 5.938"/><path fill="#fff" d="m163.877 128.081-.943.411zl-.001-.002-.002-.005-.009-.02-.032-.073-.125-.275a50.42 50.42 0 0 0-2.2-4.202c-1.438-2.451-3.495-5.443-5.844-7.176-1.637-1.208-3.72-2.211-5.353-2.902a44 44 0 0 0-2.685-1.032l-.169-.056-.045-.016-.012-.004-.005-.001-.319.978c.01.003 4.6 1.494 7.683 3.65l.294.211c4.34 3.2 7.881 11.337 7.881 11.337s-6.401-4.797-11.228-5.938l-1.048-.24c-5.148-1.135-9.029-1.286-13.871 1.269l-.353.197c-3.659 2.144-7.363 7.52-7.363 7.52h-3.088c-.002-.024-.481-4.129.001-6.688.309-1.638.569-2.669 1.233-4.026l.311-.604c1.768-3.294 3.731-5.031 7.036-6.416l.68-.272c3.937-1.516 11.832 0 11.832 0l.319-.978-.062-.02-.063-.012-.002-.001-.006-.001-.019-.004-.072-.013q-.094-.017-.267-.047a46.859 46.859 0 0 0-4.189-.518c-2.466-.19-5.635-.215-7.841.634-1.93.744-3.502 1.59-4.846 2.743-1.348 1.156-2.42 2.58-3.407 4.419-.969 1.804-1.284 2.992-1.648 4.926-.265 1.406-.259 3.178-.198 4.542a40 40 0 0 0 .166 2.26l.014.143.006.048v.003l.001.002.106.909h4.543l.307-.445.001-.003.008-.009.03-.045.126-.177a40.167 40.167 0 0 1 2.21-2.788c1.445-1.666 3.269-3.469 4.974-4.369 2.456-1.295 4.614-1.843 6.822-1.922 2.232-.079 4.562.318 7.381.984 2.246.531 4.937 1.942 7.125 3.274a56 56 0 0 1 3.452 2.288l.203.149.051.038.013.009.002.002 3.115 2.333z"/><path fill="#145189" d="M120.446 69.398c.016.011 6.257 4.62 9.095 8.589 1.785 2.498 2.885 3.96 3.766 6.902 1.223 4.078.552 6.682 0 10.904-.798 6.114-4.945 14.988-4.961 15.022l-4.63 10.098v10.48h-6.688v-10.915c-1.394-3.143-2.949-6.733-4.116-9.663-2.31-5.803-4.667-8.831-5.493-15.022-.563-4.221-1.082-6.833.166-10.904.9-2.936 1.981-4.404 3.767-6.902 2.841-3.974 9.094-8.59 9.094-8.59"/><path fill="#fff" d="M121.057 68.57c.02.015 1.606 1.186 3.549 2.859 1.928 1.659 4.277 3.869 5.772 5.96 1.782 2.492 2.979 4.08 3.915 7.205 1.301 4.338.574 7.202.035 11.333-.416 3.183-1.69 7.024-2.834 10.024-1.119 2.937-2.146 5.147-2.213 5.293l-4.536 9.895v11.284h-8.746v-11.728c-1.372-3.099-2.894-6.612-4.043-9.499-1.159-2.91-2.26-4.964-3.291-7.336-1.007-2.316-1.836-4.716-2.266-7.931-.557-4.18-1.122-7.02.202-11.342.954-3.111 2.128-4.7 3.914-7.199 1.496-2.093 3.85-4.306 5.779-5.965a72 72 0 0 1 3.256-2.639l.209-.157.075-.056h.001v-.001h.001l.61-.451zm2.659 62.824v-10.48l4.63-10.098c.022-.048 3.909-8.368 4.877-14.442l.085-.581c.534-4.09 1.18-6.661.108-10.526l-.108-.378c-.771-2.574-1.71-4.015-3.129-6.009l-.638-.893c-2.832-3.96-9.053-8.559-9.095-8.589 0 0-6.253 4.615-9.094 8.589l-.638.893c-1.416 1.995-2.342 3.44-3.129 6.009l-.214.746c-.969 3.658-.48 6.2.048 10.158.827 6.191 3.183 9.219 5.494 15.023 1.166 2.929 2.722 6.519 4.115 9.663v10.915z"/></svg>