<svg xmlns="http://www.w3.org/2000/svg" width="211" height="200" fill="none" xmlns:v="https://vecta.io/nano"><path d="M132.982.043c15.474 0 28.218-1.141 43.086 8.344 24.78 15.809 33.389 49.018 34.432 79.523v9.647l-1.043 17.729c-1.826 19.816-8.087 47.193-28.433 64.923-10.872 7.698-19.395 10.414-28.039 11.338A7.5 7.5 0 0 1 153 192a8 8 0 1 1-16 0v-.036l-4.018-.021H41.498c0 .019.002.038.002.057a8 8 0 1 1-16 0c0-.019.002-.038.002-.057H10c-5.523 0-10-4.477-10-10v-171.9c0-5.523 4.477-10 10-10h122.982zM94.425 64.184c0 2.88-2.336 5.215-5.217 5.215H28.171v5.215h61.037c2.881 0 5.217 2.335 5.217 5.215v33.895c0 2.88-2.336 5.215-5.217 5.215H28.171v5.214h61.037c2.881 0 5.217 2.335 5.217 5.215v38.068h5.217v-38.068a10.4 10.4 0 0 0-3.533-7.822 10.4 10.4 0 0 0 3.533-7.822V79.828c0-3.115-1.367-5.912-3.533-7.823a10.4 10.4 0 0 0 3.533-7.821V27.159h-5.217v37.024zm-34.953 74.048c-3.745.001-6.781 3.035-6.781 6.779a6.78 6.78 0 0 0 6.781 6.779c3.746 0 6.782-3.035 6.782-6.779s-3.037-6.779-6.782-6.779zm0-48.497c-3.745 0-6.781 2.919-6.781 6.519s3.036 6.518 6.781 6.518 6.782-2.918 6.782-6.518-3.037-6.519-6.782-6.519zm0-49.539a6.78 6.78 0 0 0-6.781 6.779 6.78 6.78 0 0 0 6.781 6.778c3.745 0 6.782-3.035 6.782-6.778s-3.037-6.779-6.782-6.779z" fill="#fff"/></svg>