<svg xmlns="http://www.w3.org/2000/svg" width="161" height="160" fill="none" xmlns:v="https://vecta.io/nano"><path d="M4.5 146v-2l4-1.4c4.533-1.467 6.8-5.267 6.8-11.4V28.8c0-2.667-.333-4.8-1-6.4-.533-1.6-2.067-2.933-4.6-4L4.5 16v-2h38.6l37 96.8L114.9 14h39.4v2l-3.2 1.2c-2.533.933-4.267 2.267-5.2 4-.933 1.6-1.4 3.733-1.4 6.4v104.6c0 2.667.333 4.733 1 6.2s2.267 2.733 4.8 3.8l4 1.8v2h-49.8v-2l4.2-1.8c2.533-1.067 4.133-2.333 4.8-3.8s1-3.533 1-6.2v-45l.4-57.2-41.8 116h-10L19.5 31.4l.6 49.8v50.4c0 2.933.4 5.333 1.2 7.2.933 1.733 2.667 3 5.2 3.8l4.4 1.4v2H4.5z" fill="#000"/></svg>