<svg width="700" height="700" viewBox="0 0 700 700" fill="none" xmlns="http://www.w3.org/2000/svg">
<path d="M443.765 89.126C430.272 112.527 426.628 140.33 433.635 166.418C440.641 192.506 457.724 214.742 481.125 228.234C504.526 241.727 532.329 245.371 558.417 238.364C584.505 231.358 606.741 214.275 620.233 190.874L622.962 192.447C609.052 216.572 586.129 234.183 559.234 241.406C532.34 248.629 503.677 244.873 479.552 230.963C455.427 217.053 437.816 194.13 430.593 167.235C423.37 140.341 427.126 111.678 441.036 87.5527L443.765 89.126Z" fill="#1E1E1E"/>
<path d="M350.465 30.5488C359.207 46.6714 372.14 60.135 387.899 69.5166C403.659 78.8982 421.659 83.8496 439.999 83.8496V87C421.092 87 402.535 81.8944 386.288 72.2227C370.042 62.5509 356.708 48.6719 347.695 32.0508L350.465 30.5488Z" fill="#1E1E1E"/>
<path d="M441.999 613.15C423.943 613.15 406.211 617.95 390.621 627.059C375.031 636.167 362.142 649.256 353.275 664.984L350.531 663.438C359.672 647.222 372.96 633.728 389.032 624.338C405.105 614.948 423.385 610 441.999 610V613.15Z" fill="#1E1E1E"/>
<path d="M351.666 34.2061C342.554 50.5173 329.256 64.1024 313.142 73.5586C297.028 83.0147 278.683 88 259.999 88V84.8496C278.122 84.8496 295.917 80.0143 311.548 70.8418C327.178 61.6693 340.078 48.4918 348.916 32.6699L351.666 34.2061Z" fill="#1E1E1E"/>
<path d="M260.457 610.01C278.825 610.265 296.805 615.334 312.601 624.712C328.396 634.09 341.456 647.448 350.475 663.451L347.73 664.998C338.983 649.475 326.315 636.517 310.993 627.421C295.671 618.325 278.23 613.408 260.413 613.16L260.457 610.01Z" fill="#1E1E1E"/>
<path d="M443.789 85.916C452.728 101.401 465.585 114.261 481.069 123.202C496.554 132.143 514.119 136.85 531.999 136.85V140C513.566 140 495.457 135.147 479.494 125.93C463.531 116.712 450.276 103.455 441.062 87.4912L443.789 85.916Z" fill="#1E1E1E"/>
<path d="M633.999 349C633.999 293.219 588.78 248 532.999 248C477.218 248 431.999 293.219 431.999 349C431.999 404.781 477.218 450 532.999 450V454C475.009 454 427.999 406.99 427.999 349C427.999 291.01 475.009 244 532.999 244C590.989 244 637.999 291.01 637.999 349C637.999 406.99 590.989 454 532.999 454V450C588.78 450 633.999 404.781 633.999 349Z" fill="#1E1E1E"/>
<path d="M480.479 466.509C504.743 452.845 533.443 449.379 560.263 456.875C587.083 464.371 609.826 482.215 623.49 506.479L620.745 508.025C607.491 484.489 585.43 467.18 559.415 459.909C533.4 452.638 505.561 456 482.024 469.254C458.488 482.508 441.179 504.569 433.908 530.584C426.637 556.599 429.999 584.438 443.253 607.975L440.508 609.521C426.844 585.256 423.378 556.556 430.874 529.736C438.37 502.916 456.214 480.173 480.479 466.509Z" fill="#1E1E1E"/>
<path d="M532.853 560.15C514.676 560.177 496.837 565.066 481.188 574.312C465.54 583.559 452.651 596.824 443.858 612.732L441.102 611.209C450.166 594.809 463.454 581.133 479.587 571.601C495.72 562.069 514.109 557.027 532.848 557L532.853 560.15Z" fill="#1E1E1E"/>
<path d="M450.999 138C450.999 82.2192 405.78 37 349.999 37C294.218 37 248.999 82.2192 248.999 138C248.999 193.781 294.218 239 349.999 239V243C292.009 243 244.999 195.99 244.999 138C244.999 80.0101 292.009 33 349.999 33C407.989 33 454.999 80.0101 454.999 138C454.999 195.99 407.989 243 349.999 243V239C405.78 239 450.999 193.781 450.999 138Z" fill="#1E1E1E"/>
<path d="M442.059 85.498C433.111 101.81 419.989 115.452 404.037 125.027C388.085 134.603 369.875 139.767 351.271 139.992C332.667 140.217 314.337 135.496 298.157 126.31C281.978 117.124 268.53 103.803 259.189 87.7119L261.913 86.1309C270.973 101.739 284.019 114.66 299.713 123.57C315.407 132.481 333.187 137.061 351.232 136.843C369.278 136.624 386.942 131.614 402.416 122.326C417.89 113.038 430.617 99.8054 439.297 83.9824L442.059 85.498Z" fill="#1E1E1E"/>
<path d="M450.999 349C450.999 293.219 405.78 248 349.999 248C294.218 248 248.999 293.219 248.999 349C248.999 404.781 294.218 450 349.999 450V454C292.009 454 244.999 406.99 244.999 349C244.999 291.01 292.009 244 349.999 244C407.989 244 454.999 291.01 454.999 349C454.999 406.99 407.989 454 349.999 454V450C405.78 450 450.999 404.781 450.999 349Z" fill="#1E1E1E"/>
<path d="M450.999 558C450.999 502.219 405.78 457 349.999 457C294.218 457 248.999 502.219 248.999 558C248.999 613.781 294.218 659 349.999 659V663C292.009 663 244.999 615.99 244.999 558C244.999 500.01 292.009 453 349.999 453C407.989 453 454.999 500.01 454.999 558C454.999 615.99 407.989 663 349.999 663V659C405.78 659 450.999 613.781 450.999 558Z" fill="#1E1E1E"/>
<path d="M450.999 453C450.999 397.219 405.78 352 349.999 352C294.218 352 248.999 397.219 248.999 453C248.999 508.781 294.218 554 349.999 554V558C292.009 558 244.999 510.99 244.999 453C244.999 395.01 292.009 348 349.999 348C407.989 348 454.999 395.01 454.999 453C454.999 510.99 407.989 558 349.999 558V554C405.78 554 450.999 508.781 450.999 453Z" fill="#1E1E1E"/>
<path d="M450.999 349C450.999 293.219 405.78 248 349.999 248C294.218 248 248.999 293.219 248.999 349C248.999 404.781 294.218 450 349.999 450V454C292.009 454 244.999 406.99 244.999 349C244.999 291.01 292.009 244 349.999 244C407.989 244 454.999 291.01 454.999 349C454.999 406.99 407.989 454 349.999 454V450C405.78 450 450.999 404.781 450.999 349Z" fill="#1E1E1E"/>
<path d="M450.999 244C450.999 188.219 405.78 143 349.999 143C294.218 143 248.999 188.219 248.999 244C248.999 299.781 294.218 345 349.999 345V349C292.009 349 244.999 301.99 244.999 244C244.999 186.01 292.009 139 349.999 139C407.989 139 454.999 186.01 454.999 244C454.999 301.99 407.989 349 349.999 349V345C405.78 345 450.999 299.781 450.999 244Z" fill="#1E1E1E"/>
<path d="M350.05 557C368.808 557.009 387.221 562.043 403.374 571.578C419.527 581.113 432.832 594.802 441.903 611.22L439.146 612.743C430.347 596.818 417.441 583.54 401.772 574.291C386.593 565.331 369.357 560.468 351.753 560.165L350.048 560.15C331.853 560.142 313.988 565.007 298.311 574.24C282.633 583.474 269.714 596.74 260.899 612.657L258.144 611.131C267.231 594.721 280.549 581.046 296.712 571.526C312.875 562.007 331.292 556.991 350.05 557Z" fill="#1E1E1E"/>
<path d="M257.129 86.1328C264.313 98.153 269.02 111.489 270.973 125.355C272.926 139.222 272.085 153.34 268.501 166.877C264.916 180.414 258.66 193.097 250.101 204.18C241.541 215.263 230.851 224.522 218.66 231.412C206.469 238.302 193.022 242.683 179.112 244.299C165.202 245.914 151.11 244.732 137.664 240.819C124.218 236.907 111.691 230.345 100.819 221.519C89.9475 212.692 80.951 201.78 74.3594 189.425L77.1387 187.942C83.5326 199.927 92.2591 210.511 102.805 219.072C113.35 227.634 125.502 233.999 138.544 237.794C151.586 241.589 165.256 242.737 178.749 241.17C192.242 239.603 205.285 235.353 217.11 228.67C228.936 221.987 239.305 213.005 247.607 202.255C255.91 191.504 261.979 179.201 265.456 166.07C268.933 152.94 269.748 139.246 267.854 125.795C265.959 112.344 261.393 99.4086 254.425 87.749L257.129 86.1328Z" fill="#1E1E1E"/>
<path d="M257.937 87.4912C248.831 103.265 235.78 116.4 220.063 125.604C204.347 134.809 186.506 139.768 168.294 139.992L168.256 136.842C185.921 136.624 203.226 131.815 218.471 122.887C233.716 113.958 246.376 101.218 255.208 85.917L257.937 87.4912Z" fill="#1E1E1E"/>
<path d="M267.999 349C267.999 293.219 222.78 248 166.999 248C111.218 248 65.999 293.219 65.999 349C65.999 404.781 111.218 450 166.999 450V454C109.009 454 61.999 406.99 61.999 349C61.999 291.01 109.009 244 166.999 244C224.989 244 271.999 291.01 271.999 349C271.999 406.99 224.989 454 166.999 454V450C222.78 450 267.999 404.781 267.999 349Z" fill="#1E1E1E"/>
<path d="M140.598 456.914C167.407 449.382 196.111 452.808 220.395 466.438C244.678 480.069 262.552 502.789 270.085 529.599C277.617 556.408 274.191 585.112 260.561 609.396L257.813 607.854C271.035 584.299 274.359 556.456 267.053 530.451C259.746 504.446 242.408 482.408 218.853 469.186C195.298 455.964 167.455 452.64 141.45 459.946C115.445 467.253 93.4067 484.591 80.1846 508.146L77.4375 506.604C91.0685 482.321 113.788 464.447 140.598 456.914Z" fill="#1E1E1E"/>
<path d="M169.863 557.017C188.198 557.342 206.128 562.464 221.868 571.872C237.609 581.28 250.611 594.646 259.581 610.641L256.834 612.182C248.133 596.667 235.521 583.702 220.253 574.576C204.985 565.45 187.592 560.482 169.807 560.166L169.863 557.017Z" fill="#1E1E1E"/>
<path d="M78.6422 396.862C105.653 396.559 131.437 385.539 150.322 366.225C169.207 346.912 179.647 320.887 179.344 293.876C179.041 266.866 168.02 241.081 148.707 222.196C129.393 203.311 103.368 192.872 76.3575 193.175L76.322 190.025C104.168 189.713 130.998 200.475 150.909 219.944C170.82 239.413 182.181 265.995 182.493 293.841C182.805 321.687 172.044 348.516 152.575 368.427C133.106 388.338 106.524 399.699 78.6776 400.012L78.6422 396.862Z" fill="#1E1E1E"/>
<path d="M75.9165 396.856C89.4702 397.067 102.93 394.57 115.506 389.512C128.082 384.454 139.522 376.935 149.155 367.399C158.788 357.862 166.421 346.498 171.606 333.974C176.79 321.449 179.422 308.015 179.348 294.46C179.274 280.905 176.494 267.501 171.173 255.034C165.851 242.567 158.094 231.287 148.357 221.856C138.62 212.426 127.098 205.034 114.467 200.114C101.836 195.194 88.3501 192.845 74.7995 193.205L74.7155 190.055C88.6852 189.685 102.589 192.107 115.611 197.179C128.632 202.251 140.511 209.872 150.549 219.594C160.587 229.316 168.584 240.944 174.07 253.797C179.556 266.649 182.422 280.468 182.498 294.442C182.575 308.416 179.861 322.266 174.517 335.178C169.172 348.09 161.303 359.805 151.372 369.637C141.441 379.469 129.647 387.219 116.681 392.434C103.716 397.649 89.8404 400.223 75.8675 400.006L75.9165 396.856Z" fill="#1E1E1E"/>
<path d="M207.999 103.05C159.692 130.94 143.14 192.711 171.031 241.018C198.921 289.326 260.692 305.877 308.999 277.987C357.307 250.097 373.858 188.326 345.968 140.018L349.432 138.018C378.427 188.239 361.22 252.456 310.999 281.451C260.779 310.446 196.562 293.239 167.567 243.018C138.572 192.798 155.779 128.581 205.999 99.5857C256.22 70.5908 320.437 87.7977 349.432 138.018L345.968 140.018C318.078 91.7108 256.307 75.1595 207.999 103.05Z" fill="#1E1E1E"/>
<path d="M356.17 149.904C347.781 138.961 341.628 126.473 338.065 113.153C334.502 99.8323 333.598 85.9403 335.403 72.2702C337.208 58.6001 341.689 45.4194 348.588 33.4808L351.315 35.0571C344.623 46.6374 340.277 59.4224 338.525 72.6822C336.774 85.9422 337.652 99.4174 341.109 112.338C344.565 125.259 350.532 137.373 358.67 147.987C366.807 158.602 376.957 167.51 388.537 174.202C400.118 180.894 412.903 185.24 426.162 186.992C439.422 188.743 452.898 187.865 465.818 184.408C478.739 180.952 490.853 174.985 501.467 166.847C512.082 158.71 520.99 148.56 527.682 136.98L530.409 138.556C523.51 150.494 514.327 160.957 503.384 169.347C492.441 177.736 479.953 183.889 466.633 187.452C453.313 191.015 439.421 191.919 425.75 190.114C412.08 188.309 398.9 183.828 386.961 176.929C375.023 170.029 364.56 160.847 356.17 149.904Z" fill="#1E1E1E"/>
<path d="M116.5 366.033C68.192 393.923 51.6406 455.694 79.531 504.001C107.421 552.309 169.192 568.86 217.5 540.97C265.807 513.079 282.358 451.309 254.468 403.001L257.932 401.001C286.927 451.222 269.72 515.439 219.5 544.434C169.279 573.429 105.062 556.222 76.0669 506.001C47.0719 455.78 64.2788 391.563 114.5 362.568C164.72 333.574 228.937 350.78 257.932 401.001L254.468 403.001C226.578 354.694 164.807 338.142 116.5 366.033Z" fill="#1E1E1E"/>
<path d="M299.499 261.532C251.192 289.423 234.64 351.193 262.531 399.501C290.421 447.809 352.192 464.36 400.499 436.47C448.807 408.579 465.358 346.809 437.468 298.501L440.932 296.501C469.927 346.722 452.72 410.939 402.499 439.934C352.279 468.929 288.062 451.722 259.067 401.501C230.072 351.28 247.279 287.063 297.499 258.068C347.72 229.073 411.937 246.28 440.932 296.501L437.468 298.501C409.578 250.193 347.807 233.642 299.499 261.532Z" fill="#1E1E1E"/>
<path d="M482.498 156.033C434.191 183.923 417.64 245.694 445.53 294.001C473.42 342.309 535.191 358.86 583.498 330.97C631.806 303.079 648.357 241.309 620.467 193.001L623.931 191.001C652.926 241.222 635.719 305.439 585.498 334.434C535.278 363.429 471.061 346.222 442.066 296.001C413.071 245.78 430.278 181.563 480.498 152.568C530.719 123.574 594.936 140.78 623.931 191.001L620.467 193.001C592.577 144.694 530.806 128.142 482.498 156.033Z" fill="#1E1E1E"/>
<path d="M169.409 559.757C178.581 543.76 191.804 530.461 207.748 521.196C223.691 511.932 241.794 507.031 260.234 506.984C278.674 506.937 296.801 511.748 312.792 520.931C328.782 530.114 342.072 543.347 351.325 559.298L348.6 560.878C339.624 545.406 326.733 532.57 311.223 523.662C295.712 514.755 278.129 510.089 260.242 510.134C242.356 510.179 224.796 514.934 209.33 523.92C193.865 532.907 181.039 545.807 172.142 561.325L169.409 559.757Z" fill="#1E1E1E"/>
<path d="M542.5 507.484C542.5 451.703 497.281 406.484 441.5 406.484C385.719 406.484 340.5 451.703 340.5 507.484C340.5 563.264 385.719 608.484 441.5 608.484V612.484C383.51 612.484 336.5 565.474 336.5 507.484C336.5 449.494 383.51 402.484 441.5 402.484C499.49 402.484 546.5 449.494 546.5 507.484C546.5 565.474 499.49 612.484 441.5 612.484V608.484C497.281 608.484 542.5 563.264 542.5 507.484Z" fill="#1E1E1E"/>
<path d="M621.498 404.634C603.499 404.634 585.821 409.403 570.265 418.457L568.814 419.317C553.908 428.327 541.552 441.015 532.939 456.176C524.049 471.826 519.465 489.552 519.653 507.55C519.842 525.548 524.796 543.175 534.012 558.635L531.307 560.248C521.806 544.31 516.698 526.138 516.504 507.583C516.309 489.028 521.035 470.753 530.201 454.619C539.366 438.485 552.643 425.068 568.68 415.734C584.718 406.401 602.942 401.483 621.498 401.483V404.634Z" fill="#1E1E1E"/>
<path d="M623.601 509.632C606.107 509.614 588.903 514.103 573.648 522.665C558.392 531.227 545.599 543.574 536.501 558.516L533.811 556.878C543.189 541.474 556.378 528.745 572.106 519.918C587.833 511.091 605.569 506.464 623.604 506.482L623.601 509.632Z" fill="#1E1E1E"/>
<path d="M76.1789 401.509C94.9079 401.097 113.406 405.703 129.755 414.85C146.104 423.996 159.708 437.35 169.156 453.527C178.605 469.703 183.553 488.113 183.488 506.847C183.424 525.581 178.348 543.956 168.788 560.067L166.079 558.459C175.353 542.832 180.276 525.008 180.339 506.836C180.402 488.665 175.602 470.807 166.437 455.115C157.272 439.424 144.076 426.471 128.217 417.599C112.359 408.727 94.4154 404.259 76.2482 404.658L76.1789 401.509Z" fill="#1E1E1E"/>
<path d="M168.416 138.994C159.2 154.953 145.944 168.205 129.984 177.419C114.023 186.633 95.9188 191.483 77.4896 191.483V188.333C95.3659 188.333 112.928 183.629 128.41 174.691C143.891 165.754 156.748 152.899 165.688 137.419L168.416 138.994Z" fill="#1E1E1E"/>
<path d="M534.504 138.786C543.418 154.075 556.162 166.776 571.48 175.64C586.798 184.503 604.162 189.222 621.859 189.331L621.84 192.482C603.595 192.369 585.695 187.504 569.903 178.366C554.111 169.229 540.972 156.134 531.782 140.373L534.504 138.786Z" fill="#1E1E1E"/>
<path d="M517.499 402.984C517.499 375.571 528.218 349.263 547.336 329.665L548.253 328.738C567.944 309.046 594.651 297.984 622.499 297.984V301.134C595.487 301.134 569.581 311.865 550.48 330.965L549.591 331.866C531.047 350.876 520.649 376.394 520.649 402.984L520.657 404.249C520.987 430.804 531.678 456.2 550.48 475.002C569.581 494.103 595.487 504.833 622.499 504.833V507.984C594.651 507.984 567.944 496.921 548.253 477.23C528.869 457.846 517.846 431.665 517.507 404.288L517.499 402.984Z" fill="#1E1E1E"/>
<path d="M77.305 292.368C95.1669 292.402 112.724 287.738 128.214 278.844C143.704 269.95 156.583 257.139 165.558 241.696C174.533 226.252 179.29 208.72 179.349 190.858C179.409 172.996 174.77 155.432 165.898 139.929L168.632 138.366C177.778 154.348 182.561 172.454 182.499 190.869C182.44 208.708 177.836 226.227 169.136 241.779L168.282 243.278C159.029 259.199 145.752 272.407 129.782 281.576C113.813 290.745 95.7132 295.553 77.2989 295.517L77.305 292.368Z" fill="#1E1E1E"/>
<path d="M311.999 177.95C288.259 191.657 260.116 195.527 233.585 188.77L232.323 188.44C205.424 181.232 182.49 163.634 168.566 139.518L171.295 137.942C184.801 161.336 207.047 178.406 233.138 185.397L234.363 185.717C260.098 192.272 287.396 188.517 310.424 175.222L311.516 174.582C334.348 161.02 350.996 139.062 357.878 113.378C364.87 87.2864 361.21 59.4862 347.703 36.0929L350.432 34.5177C364.356 58.6345 368.129 87.2948 360.921 114.194C353.714 141.092 336.116 164.026 311.999 177.95Z" fill="#1E1E1E"/>
<path d="M75.2485 506.048C84.8378 490.127 89.8873 471.884 89.8504 453.298C89.8134 434.712 84.6908 416.489 75.0383 400.606L77.7306 398.97C87.6817 415.345 92.9625 434.13 93.0005 453.292C93.0386 472.453 87.8322 491.26 77.9463 507.674L75.2485 506.048Z" fill="#1E1E1E"/>
<path d="M299.499 157.032C251.191 184.922 234.64 246.693 262.53 295C290.421 343.308 352.191 359.859 400.499 331.969C448.807 304.079 465.358 242.308 437.468 194L440.932 192C469.927 242.221 452.72 306.438 402.499 335.433C352.278 364.428 288.061 347.221 259.066 297C230.071 246.78 247.278 182.563 297.499 153.568C347.72 124.573 411.937 141.78 440.932 192L437.468 194C409.577 145.693 347.807 129.141 299.499 157.032Z" fill="#1E1E1E"/>
<path d="M79.1802 506.983C97.6095 506.927 115.729 511.722 131.718 520.887C147.707 530.053 161.001 543.265 170.266 559.196L167.544 560.78C158.557 545.327 145.66 532.511 130.151 523.621C114.642 514.731 97.0666 510.079 79.1903 510.133L79.1802 506.983Z" fill="#1E1E1E"/>
<path d="M207 420.014C158.693 447.905 142.141 509.675 170.032 557.983C197.922 606.291 259.693 622.842 308 594.952C356.308 567.061 372.859 505.29 344.969 456.983L348.433 454.983C377.428 505.204 360.221 569.421 310 598.416C259.779 627.411 195.562 610.204 166.567 559.983C137.572 509.762 154.779 445.545 205 416.55C255.221 387.555 319.438 404.762 348.433 454.983L344.969 456.983C317.078 408.675 255.308 392.124 207 420.014Z" fill="#1E1E1E"/>
<path d="M391.999 314.514C343.692 342.405 327.14 404.175 355.031 452.483C382.921 500.791 444.692 517.342 492.999 489.452C541.307 461.561 557.858 399.791 529.968 351.483L533.432 349.483C562.427 399.704 545.22 463.921 494.999 492.916C444.778 521.911 380.561 504.704 351.566 454.483C322.571 404.262 339.778 340.045 389.999 311.05C440.22 282.055 504.437 299.262 533.432 349.483L529.968 351.483C502.077 303.175 440.307 286.624 391.999 314.514Z" fill="#1E1E1E"/>
<path d="M390.999 207.514C342.692 235.405 326.141 297.175 354.031 345.483C381.921 393.791 443.692 410.342 491.999 382.452C540.307 354.561 556.858 292.791 528.968 244.483L532.432 242.483C561.427 292.704 544.22 356.921 493.999 385.916C443.779 414.911 379.562 397.704 350.567 347.483C321.572 297.262 338.779 233.045 388.999 204.05C439.22 175.055 503.437 192.262 532.432 242.483L528.968 244.483C501.078 196.175 439.307 179.624 390.999 207.514Z" fill="#1E1E1E"/>
<path d="M207.999 314.514C159.692 342.405 143.141 404.175 171.031 452.483C198.921 500.791 260.692 517.342 308.999 489.452C357.307 461.561 373.858 399.791 345.968 351.483L349.432 349.483C378.427 399.704 361.22 463.921 310.999 492.916C260.779 521.911 196.562 504.704 167.567 454.483C138.572 404.262 155.779 340.045 205.999 311.05C256.22 282.055 320.437 299.262 349.432 349.483L345.968 351.483C318.078 303.175 256.307 286.624 207.999 314.514Z" fill="#1E1E1E"/>
<path d="M205.999 207.514C157.692 235.405 141.141 297.175 169.031 345.483C196.921 393.791 258.692 410.342 306.999 382.452C355.307 354.561 371.858 292.791 343.968 244.483L347.432 242.483C376.427 292.704 359.22 356.921 308.999 385.916C258.779 414.911 194.562 397.704 165.567 347.483C136.572 297.262 153.779 233.045 203.999 204.05C254.22 175.055 318.437 192.262 347.432 242.483L343.968 244.483C316.078 196.175 254.307 179.624 205.999 207.514Z" fill="#1E1E1E"/>
<path d="M491.999 103.049C443.691 75.1583 381.921 91.7097 354.03 140.017C326.14 188.325 342.691 250.095 390.999 277.986C439.307 305.876 501.077 289.325 528.968 241.017L532.432 243.017C503.437 293.238 439.22 310.445 388.999 281.45C338.778 252.455 321.571 188.238 350.566 138.017C379.561 87.7965 443.778 70.5897 493.999 99.5846C544.22 128.58 561.427 192.797 532.432 243.017L528.968 241.017C556.858 192.71 540.307 130.939 491.999 103.049Z" fill="#1E1E1E"/>
<path d="M517.504 293.983C517.778 266.136 529.104 239.539 548.988 220.042C568.872 200.547 595.687 189.748 623.533 190.023L623.503 193.173C596.492 192.906 570.481 203.381 551.193 222.292C531.905 241.203 520.92 267.002 520.654 294.013C520.388 321.024 530.862 347.035 549.773 366.323C568.685 385.611 594.484 396.596 621.494 396.862L621.464 400.012C593.618 399.738 567.02 388.412 547.524 368.528C528.028 348.644 517.229 321.829 517.504 293.983Z" fill="#1E1E1E"/>
<path d="M217.5 156.031C169.192 128.14 107.422 144.692 79.5314 192.999C51.641 241.307 68.1924 303.078 116.5 330.968C164.807 358.858 226.578 342.307 254.468 293.999L257.933 295.999C228.938 346.22 164.721 363.427 114.5 334.432C64.2792 305.437 47.0723 241.22 76.0673 190.999C105.062 140.779 169.279 123.572 219.5 152.567C269.721 181.562 286.928 245.779 257.933 295.999L254.468 293.999C282.359 245.692 265.807 183.921 217.5 156.031Z" fill="#1E1E1E"/>
<path d="M400.499 261.531C352.192 233.64 290.421 250.192 262.531 298.499C234.64 346.807 251.192 408.578 299.499 436.468C347.807 464.358 409.577 447.807 437.468 399.499L440.932 401.499C411.937 451.72 347.72 468.927 297.499 439.932C247.279 410.937 230.072 346.72 259.067 296.499C288.062 246.279 352.279 229.072 402.499 258.067C452.72 287.062 469.927 351.279 440.932 401.499L437.468 399.499C465.358 351.192 448.807 289.421 400.499 261.531Z" fill="#1E1E1E"/>
<path d="M582.499 367.031C534.191 339.14 472.421 355.692 444.53 403.999C416.64 452.307 433.191 514.078 481.499 541.968C529.807 569.858 591.577 553.307 619.468 504.999L622.932 506.999C593.937 557.22 529.72 574.427 479.499 545.432C429.278 516.437 412.071 452.22 441.066 401.999C470.061 351.779 534.278 334.572 584.499 363.567C634.72 392.562 651.927 456.779 622.932 506.999L619.468 504.999C647.358 456.692 630.807 394.921 582.499 367.031Z" fill="#1E1E1E"/>
<path d="M624.855 406.092C616.77 421.465 612.751 438.651 613.18 456.016C613.609 473.38 618.471 490.347 627.306 505.302L624.594 506.904C615.486 491.486 610.473 473.995 610.031 456.093C609.588 438.191 613.732 420.474 622.067 404.625L624.855 406.092Z" fill="#1E1E1E"/>
<path d="M624.908 298.377C616.203 313.378 611.472 330.353 611.164 347.695C610.857 365.036 614.983 382.168 623.151 397.468L620.372 398.951C611.952 383.178 607.698 365.516 608.015 347.639C608.332 329.762 613.209 312.261 622.183 296.796L624.908 298.377Z" fill="#1E1E1E"/>
<path d="M77.826 298.558C86.4284 314.063 90.9644 331.494 91.0105 349.226C91.0566 366.958 86.6109 384.412 78.0891 399.962L75.3273 398.449C83.5935 383.366 87.9054 366.434 87.8608 349.234C87.8161 332.035 83.4163 315.126 75.072 300.086L77.826 298.558Z" fill="#1E1E1E"/>
<path d="M625.273 189.961L627.965 191.598C618.773 206.72 613.68 223.976 613.187 241.666C612.695 259.356 616.821 276.869 625.157 292.479L622.379 293.963C613.785 277.87 609.531 259.815 610.039 241.578C610.547 223.341 615.797 205.551 625.273 189.961Z" fill="#1E1E1E"/>
<path d="M76.9485 188.687C87.065 204.808 92.6106 223.375 92.9904 242.403C93.3702 261.432 88.5699 280.206 79.1047 296.718L76.3724 295.151C85.5535 279.135 90.2088 260.924 89.8404 242.467C89.472 224.009 84.0939 205.999 74.2811 190.361L76.9485 188.687Z" fill="#1E1E1E"/>
<path d="M75.4453 296.988C103.292 296.708 130.109 307.501 149.997 326.993C169.885 346.486 181.215 373.081 181.495 400.927C181.775 428.773 170.982 455.59 151.489 475.479C131.997 495.367 105.402 506.697 77.5557 506.977L77.5246 503.827C104.535 503.556 130.332 492.565 149.24 473.273C168.147 453.982 178.617 427.969 178.345 400.959C178.074 373.948 167.083 348.15 147.791 329.243C128.5 310.335 102.488 299.866 75.4771 300.137L75.4453 296.988Z" fill="#1E1E1E"/>
<path d="M338.795 584.07C342.257 570.723 348.314 558.188 356.62 547.182C364.926 536.176 375.319 526.913 387.205 519.923C399.09 512.933 412.236 508.353 425.892 506.443C439.548 504.534 453.447 505.333 466.794 508.795C480.141 512.257 492.675 518.314 503.682 526.62C514.688 534.926 523.951 545.319 530.941 557.205L528.225 558.801C521.445 547.272 512.46 537.191 501.785 529.134C491.108 521.078 478.95 515.202 466.003 511.844C453.056 508.486 439.575 507.711 426.328 509.563C413.082 511.415 400.33 515.858 388.801 522.639C377.272 529.419 367.191 538.403 359.134 549.079C351.077 559.755 345.202 571.914 341.844 584.861C338.486 597.807 337.71 611.289 339.562 624.535C341.415 637.781 345.858 650.534 352.638 662.063L349.923 663.659C342.933 651.773 338.352 638.627 336.443 624.971C334.534 611.315 335.333 597.417 338.795 584.07Z" fill="#1E1E1E"/>
<path d="M692.999 350C692.999 160.566 539.433 7 349.999 7C160.565 7 6.99902 160.566 6.99902 350C6.99902 539.434 160.565 693 349.999 693V700C156.699 700 -0.000976562 543.3 -0.000976562 350C-0.000976562 156.7 156.699 0 349.999 0C543.299 0 699.999 156.7 699.999 350C699.999 543.3 543.299 700 349.999 700V693C539.433 693 692.999 539.434 692.999 350Z" fill="#1E1E1E"/>
<path d="M679.999 349C679.999 166.746 532.253 19 349.999 19C167.745 19 19.9988 166.746 19.9988 349C19.9988 531.254 167.745 679 349.999 679V684C164.983 684 14.9988 534.015 14.9988 349C14.9988 163.985 164.983 14 349.999 14C535.014 14 684.999 163.985 684.999 349C684.999 534.015 535.014 684 349.999 684V679C532.253 679 679.999 531.254 679.999 349Z" fill="#1E1E1E"/>
<path d="M664.999 348C664.999 174.03 523.969 33 349.999 33C176.029 33 34.999 174.03 34.999 348C34.999 521.97 176.029 663 349.999 663V668C173.268 668 29.999 524.731 29.999 348C29.999 171.269 173.268 28 349.999 28C526.73 28 669.999 171.269 669.999 348C669.999 524.731 526.73 668 349.999 668V663C523.969 663 664.999 521.97 664.999 348Z" fill="#1E1E1E"/>
<path d="M463.34 294.432C455.987 286.886 448.695 278.584 458.263 245.002C424.631 254.395 417.191 248.008 409.683 240.616C379.181 204.231 358.291 229.631 356.39 232.309C354.267 235.302 352.221 240.078 352.123 243.456L352.008 247.397L350.624 247.152L350.51 243.211C350.412 239.833 348.365 235.057 346.242 232.065C344.342 229.386 323.452 203.986 292.95 240.372C285.442 247.763 278.003 254.15 244.371 244.757C253.939 278.34 246.646 286.641 239.293 294.187C203.067 324.878 228.575 345.636 231.263 347.522C234.267 349.63 239.053 351.652 242.432 351.732L246.374 351.826V352.039L242.432 352.133C239.053 352.213 234.267 354.235 231.263 356.343C228.575 358.229 203.067 378.987 239.293 409.678C246.646 417.224 253.939 425.526 244.371 459.108C278.003 449.715 285.442 456.102 292.95 463.493C323.452 499.878 344.342 474.479 346.242 471.8C348.365 468.808 350.016 461.86 350.114 458.482H350.677L350.229 460.654C350.327 464.032 352.374 468.808 354.497 471.8C356.398 474.479 377.288 499.879 407.79 463.493C415.298 456.102 422.737 449.715 456.369 459.108C446.801 425.526 454.093 417.224 461.446 409.678C497.672 378.987 472.165 358.229 469.476 356.343C466.473 354.235 461.686 352.213 458.308 352.133L454.366 352.039L456.226 351.977H460.202C463.58 351.897 468.367 349.875 471.37 347.767C474.059 345.881 499.566 325.123 463.34 294.432Z" fill="#16DDEB"/>
<path d="M290.473 238.064C306.197 219.37 320.201 215.769 331.079 218.276C341.534 220.685 347.851 228.492 348.997 230.109C349.847 231.307 350.661 232.716 351.374 234.198C352.058 232.806 352.829 231.486 353.632 230.354C354.779 228.738 361.096 220.929 371.551 218.52C382.43 216.014 396.432 219.616 412.155 238.308C415.762 241.854 418.894 244.646 424.814 245.785C431.039 246.982 440.695 246.399 457.352 241.746L463.165 240.122L461.512 245.928C456.788 262.508 456.383 272.349 457.759 278.772C459.083 284.948 462.114 288.326 465.66 291.97C484.271 307.79 487.799 321.812 485.237 332.677C482.773 343.12 474.932 349.395 473.31 350.533C472.284 351.253 471.104 351.946 469.858 352.572C470.405 352.898 470.929 353.234 471.417 353.576C473.039 354.715 480.879 360.991 483.342 371.433C485.905 382.298 482.376 396.318 463.765 412.138C460.219 415.782 457.188 419.161 455.865 425.337C454.489 431.761 454.894 441.602 459.618 458.182L461.271 463.986L455.458 462.364C438.8 457.711 429.144 457.128 422.919 458.325C417 459.463 413.869 462.255 410.262 465.801C394.538 484.494 380.536 488.095 369.658 485.589C359.203 483.18 352.887 475.372 351.74 473.756C351.244 473.057 350.761 472.286 350.302 471.472C349.906 472.308 349.472 473.086 348.997 473.756C347.851 475.372 341.534 483.18 331.079 485.589C320.201 488.095 306.198 484.494 290.473 465.799C286.867 462.254 283.736 459.463 277.817 458.325C271.592 457.128 261.937 457.711 245.28 462.364L239.465 463.986L241.12 458.182C245.844 441.602 246.248 431.761 244.871 425.337C243.548 419.161 240.518 415.782 236.971 412.138C218.361 396.318 214.831 382.298 217.394 371.433C219.857 360.99 227.699 354.715 229.321 353.576C230.135 353.005 231.047 352.45 232.012 351.932C231.047 351.413 230.135 350.861 229.321 350.289C227.699 349.151 219.858 342.875 217.394 332.432C214.832 321.567 218.36 307.545 236.971 291.724C240.517 288.081 243.548 284.703 244.871 278.527C246.248 272.104 245.844 262.263 241.12 245.682L239.465 239.878L245.28 241.502C261.937 246.154 271.592 246.736 277.817 245.539C283.736 244.401 286.867 241.609 290.473 238.064ZM329.561 224.862C321.92 223.102 310.269 224.97 295.538 242.543L295.435 242.667L295.319 242.78C291.462 246.578 287.123 250.634 279.094 252.178C272.22 253.5 262.924 252.933 249.141 249.512C252.6 263.366 252.998 272.863 251.481 279.944C249.724 288.143 245.476 292.684 241.713 296.546L241.601 296.662L241.477 296.766C223.982 311.588 222.173 323.249 223.973 330.881C225.879 338.961 232.136 344.007 233.203 344.756C234.459 345.637 236.162 346.547 237.935 347.24C239.743 347.946 241.371 348.326 242.51 348.353L249.752 348.526V355.339L242.51 355.512C241.371 355.539 239.743 355.92 237.935 356.626C236.163 357.318 234.459 358.228 233.203 359.109C232.137 359.858 225.879 364.904 223.973 372.984C222.201 380.496 223.925 391.913 240.668 406.406L241.477 407.099L241.601 407.203L241.713 407.319C245.476 411.182 249.724 415.723 251.481 423.922C252.998 431.002 252.6 440.498 249.141 454.351C262.924 450.93 272.22 450.365 279.094 451.687C287.123 453.231 291.462 457.287 295.319 461.084L295.435 461.198L295.538 461.322C310.269 478.894 321.92 480.763 329.561 479.002C337.651 477.138 342.73 470.908 343.485 469.845C344.19 468.851 345.01 466.842 345.676 464.397C346.326 462.012 346.696 459.712 346.734 458.383L346.83 455.102H354.824L353.628 460.898C353.719 462.01 354.098 463.495 354.745 465.126C355.446 466.895 356.365 468.593 357.253 469.845C358.007 470.908 363.086 477.138 371.175 479.002C378.816 480.763 390.467 478.894 405.198 461.322L405.303 461.199L405.417 461.085C409.275 457.288 413.614 453.231 421.643 451.687C428.518 450.365 437.813 450.932 451.595 454.353C448.136 440.499 447.739 431.003 449.256 423.922C451.013 415.723 455.261 411.182 459.025 407.319L459.137 407.203L459.26 407.099C476.756 392.277 478.564 380.616 476.764 372.984C474.858 364.904 468.601 359.858 467.534 359.109C466.278 358.228 464.575 357.318 462.802 356.626C460.994 355.92 459.366 355.539 458.226 355.512L454.284 355.418L454.252 348.661L456.113 348.599L456.169 348.597H460.139C461.278 348.566 462.897 348.186 464.696 347.484C466.468 346.792 468.172 345.882 469.427 345.001C470.494 344.252 476.752 339.205 478.658 331.125C480.458 323.493 478.65 311.832 461.154 297.011L461.031 296.906L460.918 296.791C457.154 292.928 452.907 288.387 451.15 280.188C449.633 273.107 450.03 263.61 453.49 249.756C439.707 253.177 430.412 253.744 423.537 252.422C415.508 250.878 411.168 246.822 407.31 243.024L407.196 242.911L407.091 242.788C392.36 225.215 380.709 223.347 373.068 225.108C364.979 226.972 359.9 233.202 359.146 234.265C358.258 235.516 357.339 237.215 356.638 238.984C355.922 240.788 355.533 242.414 355.5 243.554L355.273 251.408L347.325 250L347.13 243.308C347.097 242.169 346.708 240.544 345.993 238.739C345.291 236.971 344.372 235.271 343.485 234.02C342.73 232.956 337.651 226.726 329.561 224.862Z" fill="#1E1E1E"/>
<path d="M339.896 366.17H365.298V371.943H339.896V366.17Z" fill="#1E1E1E"/>
<path d="M454.882 352.586C454.882 295.035 408.227 248.381 350.676 248.381C293.125 248.381 246.471 295.035 246.471 352.586C246.471 410.137 293.125 456.792 350.676 456.792V461.298C290.637 461.298 241.965 412.626 241.965 352.586C241.965 292.547 290.637 243.875 350.676 243.875C410.716 243.875 459.388 292.547 459.388 352.586C459.388 412.626 410.716 461.298 350.676 461.298V456.792C408.227 456.792 454.882 410.137 454.882 352.586Z" fill="#1E1E1E"/>
<path d="M386.691 319.214L390.671 317.1L352.368 245.001L348.389 247.115L386.691 319.214Z" fill="#1E1E1E"/>
<path d="M316.119 317.895L312.143 315.775L350.313 244.206L354.289 246.327L316.119 317.895Z" fill="#1E1E1E"/>
<path d="M316.179 317.7L314.065 313.721L241.966 352.023L244.08 356.003L316.179 317.7Z" fill="#1E1E1E"/>
<path d="M315.13 386.65C316.226 387.238 316.638 388.604 316.05 389.7C315.463 390.797 314.098 391.209 313.001 390.622L243.085 353.146L245.215 349.175L315.13 386.65Z" fill="#1E1E1E"/>
<path d="M315.789 387.085L311.81 389.199L350.112 461.298L354.092 459.184L315.789 387.085Z" fill="#1E1E1E"/>
<path d="M385.576 387.059L389.541 389.199L351.239 460.171L347.273 458.031L385.576 387.059Z" fill="#1E1E1E"/>
<path d="M385.175 387.473L387.289 391.452L459.388 353.15L457.273 349.17L385.175 387.473Z" fill="#1E1E1E"/>
<path d="M386.299 318.825L388.416 314.847L458.262 352.023L456.145 356.001L386.299 318.825Z" fill="#1E1E1E"/>
<path d="M425.296 278.566V427.733H276.129V278.566H425.296ZM285.169 418.693H416.255V287.607H285.169V418.693Z" fill="#1E1E1E"/>
<path d="M303.628 361.864C303.628 361.864 307.602 352.734 312.471 349.142C315.927 346.593 321.423 344.809 321.423 344.809C321.423 344.809 330.283 343.108 334.701 344.809C338.877 346.417 341.244 348.371 343.361 352.314C344.372 354.199 344.696 355.408 345.092 357.51C345.634 360.39 345.093 365.015 345.093 365.015L341.629 365.015C341.629 365.015 337.199 358.587 332.969 356.355C327.173 353.297 322.605 353.694 316.227 355.2C310.81 356.48 303.628 361.864 303.628 361.864Z" fill="#1E1E1E"/>
<path d="M302.571 361.403L303.629 361.864C302.571 361.403 302.571 361.403 302.571 361.403L302.572 361.402L302.572 361.399C302.573 361.398 302.573 361.396 302.574 361.394C302.576 361.389 302.58 361.381 302.584 361.371C302.593 361.352 302.605 361.325 302.621 361.289C302.653 361.218 302.7 361.113 302.761 360.981C302.883 360.716 303.061 360.337 303.29 359.871C303.748 358.941 304.411 357.661 305.23 356.265C306.843 353.514 309.152 350.157 311.787 348.213C313.625 346.857 315.962 345.732 317.795 344.956C318.719 344.564 319.533 344.255 320.117 344.043C320.409 343.937 320.645 343.854 320.808 343.798C320.889 343.77 320.954 343.749 320.998 343.735C321.019 343.727 321.036 343.722 321.048 343.718C321.054 343.716 321.058 343.714 321.062 343.713L321.067 343.711L321.424 344.809C321.414 344.812 316.263 346.485 312.803 348.905L312.473 349.141C307.603 352.733 303.629 361.864 303.629 361.864C303.629 361.864 310.812 356.481 316.229 355.201L317.405 354.931C323.183 353.657 327.537 353.488 332.971 356.355L333.367 356.576C337.473 358.982 341.63 365.015 341.63 365.015L345.094 365.015C345.098 364.987 345.634 360.382 345.094 357.51C344.747 355.671 344.455 354.515 343.71 352.992L343.362 352.314C341.377 348.618 339.174 346.669 335.465 345.115L334.703 344.809C330.284 343.107 321.424 344.809 321.424 344.809L321.067 343.711L321.136 343.689L321.207 343.675L321.209 343.674C321.211 343.674 321.213 343.674 321.216 343.674C321.221 343.673 321.228 343.671 321.237 343.669C321.255 343.666 321.283 343.661 321.318 343.655C321.388 343.642 321.489 343.623 321.618 343.601C321.877 343.557 322.25 343.496 322.709 343.428C323.628 343.292 324.901 343.129 326.318 343.02C329.086 342.807 332.642 342.779 335.118 343.732C337.284 344.566 339.047 345.515 340.556 346.81C342.068 348.107 343.272 349.705 344.379 351.768C345.466 353.793 345.819 355.127 346.228 357.296C346.525 358.874 346.518 360.862 346.45 362.394C346.415 363.173 346.364 363.858 346.32 364.349C346.298 364.595 346.279 364.793 346.265 364.93C346.257 364.999 346.252 365.053 346.248 365.09L346.241 365.144C346.241 365.145 346.241 365.147 346.241 365.148L346.24 365.149L346.122 366.17L341.024 366.17L340.679 365.67C340.679 365.67 340.679 365.668 340.678 365.667C340.676 365.665 340.673 365.662 340.669 365.657C340.662 365.646 340.65 365.628 340.635 365.606C340.604 365.562 340.556 365.495 340.494 365.408C340.37 365.235 340.185 364.982 339.95 364.671C339.48 364.049 338.811 363.197 338.014 362.279C336.393 360.409 334.345 358.386 332.432 357.376C329.677 355.923 327.254 355.308 324.776 355.22C322.272 355.13 319.658 355.577 316.494 356.324C313.973 356.92 310.954 358.503 308.498 359.998C307.285 360.736 306.238 361.437 305.494 361.952C305.122 362.209 304.826 362.42 304.625 362.565C304.525 362.638 304.448 362.695 304.397 362.732C304.371 362.751 304.352 362.765 304.339 362.775C304.333 362.779 304.328 362.783 304.326 362.785C304.324 362.786 304.323 362.787 304.323 362.787L300.828 365.406L302.571 361.403Z" fill="#1E1E1E"/>
<path d="M329.575 371.146C329.575 371.146 325.672 372.543 324.379 374.61C323.509 376.002 323.154 377.012 323.225 378.651C323.287 380.076 323.506 380.988 324.379 382.115C326.195 384.46 328.978 383.859 331.884 383.27C335.071 382.625 336.654 381.084 338.812 378.651C340.224 377.06 341.699 374.033 341.699 374.033L344.585 374.033C344.585 374.033 345.162 374.033 344.585 376.342C344.008 378.651 342.225 380.931 339.967 383.27C337.491 385.834 335.852 387.364 332.462 388.466C328.817 389.65 326.688 389.62 322.648 389.043C320.713 388.475 319.473 388.009 318.029 386.734C316.209 385.126 315.922 383.38 315.72 380.961C315.528 378.67 315.687 377.156 316.874 375.188C318.296 372.831 320.021 371.967 322.648 371.146C325.23 370.34 329.575 371.146 329.575 371.146Z" fill="#1E1E1E"/>
<path d="M345.92 374.042C346.065 374.621 346.001 375.433 345.703 376.622C345.046 379.254 343.061 381.725 340.795 384.072C338.284 386.673 336.484 388.373 332.817 389.564C330.922 390.179 329.375 390.494 327.754 390.569C326.149 390.642 324.519 390.477 322.483 390.186L322.4 390.174L322.32 390.15C320.33 389.566 318.896 389.042 317.262 387.599C315.082 385.673 314.773 383.518 314.567 381.057C314.468 379.871 314.451 378.804 314.642 377.748C314.835 376.678 315.23 375.676 315.884 374.591C316.677 373.277 317.581 372.34 318.675 371.625C319.748 370.923 320.958 370.463 322.301 370.044C323.812 369.572 325.729 369.59 327.16 369.692C327.896 369.745 328.548 369.824 329.015 369.889C329.248 369.922 329.437 369.952 329.569 369.974C329.635 369.985 329.688 369.993 329.724 370C329.742 370.003 329.757 370.006 329.767 370.008C329.771 370.008 329.775 370.009 329.778 370.01C329.779 370.01 329.78 370.011 329.781 370.011L329.784 370.011L333.992 370.792L329.963 372.233L329.957 372.236C329.952 372.238 329.943 372.24 329.931 372.245C329.907 372.254 329.869 372.268 329.82 372.288C329.72 372.326 329.573 372.384 329.392 372.46C329.029 372.613 328.534 372.838 328.004 373.121C326.887 373.717 325.83 374.465 325.357 375.223C324.949 375.875 324.7 376.377 324.553 376.869C324.408 377.352 324.346 377.881 324.377 378.601C324.406 379.271 324.47 379.741 324.598 380.149C324.722 380.544 324.923 380.934 325.29 381.408C325.95 382.26 326.756 382.584 327.783 382.64C328.891 382.699 330.154 382.442 331.653 382.138C334.455 381.57 335.825 380.275 337.946 377.885C338.568 377.184 339.241 376.117 339.779 375.173C340.043 374.711 340.265 374.297 340.42 373.998C340.497 373.849 340.558 373.73 340.599 373.649C340.619 373.608 340.634 373.577 340.644 373.556C340.649 373.546 340.653 373.538 340.655 373.534C340.657 373.531 340.658 373.529 340.659 373.528L340.659 373.527L340.975 372.878L344.583 372.878L344.583 374.033L341.696 374.033C341.678 374.07 340.212 377.07 338.81 378.651C336.652 381.084 335.069 382.625 331.882 383.27C328.976 383.858 326.193 384.46 324.377 382.115L324.221 381.906C323.478 380.872 323.28 379.987 323.222 378.651L323.214 378.352C323.2 377.08 323.471 376.183 324.075 375.117L324.377 374.61C325.661 372.557 329.521 371.165 329.573 371.146C329.519 371.137 325.211 370.345 322.645 371.146C320.018 371.967 318.293 372.831 316.872 375.188C315.833 376.91 315.581 378.284 315.663 380.135L315.717 380.961C315.907 383.229 316.172 384.905 317.704 386.43L318.027 386.734C319.29 387.85 320.397 388.346 321.95 388.833L322.645 389.043C326.433 389.584 328.541 389.643 331.793 388.673L332.459 388.466C335.426 387.502 337.051 386.21 339.07 384.184L339.964 383.27C342.081 381.077 343.781 378.937 344.461 376.775L344.583 376.342C345.16 374.033 344.583 374.033 344.583 374.033C344.583 372.878 344.586 372.878 344.588 372.878L344.621 372.878C344.634 372.879 344.647 372.88 344.66 372.881C344.688 372.882 344.717 372.885 344.747 372.89C344.808 372.898 344.876 372.912 344.947 372.934C345.091 372.978 345.243 373.053 345.385 373.167C345.678 373.401 345.84 373.724 345.92 374.042Z" fill="#1E1E1E"/>
<path d="M354.907 382.631C355.485 384.258 358.15 392.221 356.874 397.319C355.831 401.488 351.443 406.581 351.443 406.581C351.431 406.567 347.053 401.482 346.012 397.319C344.736 392.221 347.401 384.258 347.979 382.631V374.252H354.907V382.631Z" fill="#1E1E1E"/>
<path d="M347.979 374.252V382.631C347.401 384.258 344.736 392.221 346.011 397.319C347.053 401.48 351.426 406.561 351.443 406.581C351.443 406.581 355.831 401.488 356.874 397.319C358.15 392.221 355.485 384.258 354.907 382.631V374.252H347.979ZM356.061 382.439C356.403 383.421 357.163 385.736 357.717 388.442C358.303 391.308 358.698 394.787 357.994 397.6C357.42 399.893 355.963 402.35 354.721 404.166C354.089 405.089 353.491 405.877 353.052 406.434C352.832 406.714 352.65 406.937 352.523 407.091C352.46 407.167 352.409 407.227 352.374 407.268C352.357 407.288 352.343 407.305 352.334 407.316C352.329 407.322 352.325 407.326 352.322 407.329C352.321 407.33 352.32 407.332 352.319 407.333L352.318 407.334L351.443 408.35L350.568 407.334C350.54 407.302 349.416 405.994 348.16 404.158C346.92 402.343 345.465 399.89 344.892 397.6C344.188 394.787 344.583 391.308 345.169 388.442C345.723 385.736 346.482 383.422 346.824 382.439V373.097H356.061V382.439Z" fill="#1E1E1E"/>
<path d="M373.638 371.146C373.638 371.146 377.54 372.543 378.833 374.61C379.704 376.002 380.059 377.012 379.988 378.651C379.926 380.076 379.707 380.988 378.833 382.115C377.017 384.46 374.235 383.859 371.328 383.27C368.142 382.625 366.559 381.084 364.401 378.651C362.989 377.06 361.514 374.033 361.514 374.033L358.628 374.033C358.628 374.033 358.05 374.033 358.628 376.342C359.205 378.651 360.988 380.931 363.246 383.27C365.722 385.834 367.361 387.364 370.751 388.466C374.396 389.65 376.525 389.62 380.565 389.043C382.5 388.475 383.74 388.009 385.184 386.734C387.003 385.126 387.291 383.38 387.493 380.961C387.685 378.67 387.526 377.156 386.338 375.188C384.917 372.831 383.192 371.967 380.565 371.146C377.983 370.34 373.638 371.146 373.638 371.146Z" fill="#1E1E1E"/>
<path d="M357.289 374.042C357.144 374.621 357.208 375.433 357.506 376.622C358.163 379.254 360.148 381.725 362.414 384.072C364.925 386.673 366.725 388.373 370.392 389.564C372.286 390.179 373.834 390.494 375.455 390.569C377.06 390.642 378.69 390.477 380.726 390.186L380.809 390.174L380.889 390.15C382.879 389.566 384.313 389.042 385.947 387.599C388.126 385.673 388.436 383.518 388.642 381.057C388.741 379.871 388.758 378.804 388.567 377.748C388.374 376.678 387.979 375.676 387.325 374.591C386.532 373.277 385.628 372.34 384.534 371.625C383.461 370.923 382.251 370.463 380.908 370.044C379.397 369.572 377.48 369.59 376.049 369.692C375.313 369.745 374.661 369.824 374.194 369.889C373.961 369.922 373.772 369.952 373.64 369.974C373.574 369.985 373.521 369.993 373.485 370C373.467 370.003 373.452 370.006 373.442 370.008C373.438 370.008 373.434 370.009 373.431 370.01L373.428 370.011L373.425 370.011L369.217 370.792L373.246 372.233L373.252 372.236C373.257 372.238 373.266 372.24 373.278 372.245C373.302 372.254 373.34 372.268 373.389 372.288C373.489 372.326 373.636 372.384 373.817 372.46C374.18 372.613 374.675 372.838 375.205 373.121C376.321 373.717 377.379 374.465 377.852 375.223C378.26 375.875 378.509 376.377 378.656 376.869C378.8 377.352 378.863 377.881 378.832 378.601C378.803 379.271 378.739 379.741 378.611 380.149C378.487 380.544 378.286 380.934 377.919 381.408C377.259 382.26 376.453 382.584 375.426 382.64C374.318 382.699 373.055 382.442 371.556 382.138C368.754 381.57 367.384 380.275 365.263 377.885C364.641 377.184 363.968 376.117 363.43 375.173C363.166 374.711 362.944 374.297 362.789 373.998C362.712 373.849 362.651 373.73 362.61 373.649C362.59 373.608 362.575 373.577 362.565 373.556C362.56 373.546 362.556 373.538 362.554 373.534C362.552 373.531 362.55 373.528 362.55 373.528L362.234 372.878L358.626 372.878L358.626 374.033L361.513 374.033C361.531 374.07 362.996 377.07 364.399 378.651C366.557 381.084 368.14 382.625 371.327 383.27C374.233 383.858 377.016 384.46 378.832 382.115L378.988 381.906C379.731 380.872 379.929 379.987 379.987 378.651L379.995 378.352C380.009 377.08 379.738 376.183 379.134 375.117L378.832 374.61C377.548 372.557 373.688 371.165 373.636 371.146C373.69 371.137 377.998 370.345 380.564 371.146C383.191 371.967 384.916 372.831 386.337 375.188C387.376 376.91 387.628 378.284 387.546 380.135L387.492 380.961C387.302 383.229 387.037 384.905 385.505 386.43L385.182 386.734C383.919 387.85 382.812 388.346 381.259 388.833L380.564 389.043C376.776 389.584 374.668 389.643 371.416 388.673L370.75 388.466C367.783 387.502 366.158 386.21 364.139 384.184L363.245 383.27C361.128 381.077 359.428 378.937 358.748 376.775L358.626 376.342C358.049 374.033 358.626 374.033 358.626 374.033C358.626 372.878 358.621 372.878 358.621 372.878L358.588 372.878C358.575 372.879 358.562 372.88 358.549 372.881C358.521 372.882 358.492 372.885 358.462 372.89C358.401 372.898 358.333 372.912 358.262 372.934C358.118 372.978 357.966 373.053 357.823 373.167C357.531 373.401 357.369 373.724 357.289 374.042Z" fill="#1E1E1E"/>
<path d="M399.495 361.759C399.495 361.759 395.521 352.629 390.652 349.038C387.196 346.488 381.7 344.705 381.7 344.705C381.7 344.705 372.84 343.003 368.422 344.705C364.246 346.313 361.879 348.267 359.763 352.21C358.751 354.094 358.427 355.304 358.031 357.406C357.489 360.286 358.03 364.911 358.03 364.911L361.494 364.911C361.494 364.911 365.924 358.483 370.154 356.251C375.95 353.192 380.518 353.589 386.896 355.096C392.313 356.376 399.495 361.759 399.495 361.759Z" fill="#1E1E1E"/>
<path d="M400.552 361.299L399.494 361.76C400.552 361.299 400.552 361.299 400.552 361.299L400.552 361.297L400.551 361.295C400.55 361.293 400.55 361.292 400.549 361.29C400.547 361.284 400.543 361.277 400.539 361.267C400.53 361.248 400.518 361.22 400.502 361.185C400.47 361.113 400.423 361.009 400.362 360.876C400.24 360.612 400.062 360.232 399.833 359.767C399.375 358.836 398.712 357.557 397.894 356.161C396.28 353.41 393.971 350.052 391.336 348.108C389.498 346.753 387.161 345.627 385.328 344.851C384.404 344.46 383.59 344.151 383.006 343.939C382.714 343.832 382.478 343.75 382.315 343.694C382.234 343.666 382.169 343.645 382.126 343.63C382.104 343.623 382.087 343.617 382.075 343.613C382.069 343.611 382.065 343.609 382.061 343.608L382.056 343.607L381.699 344.704C381.709 344.708 386.86 346.381 390.32 348.8L390.65 349.037C395.52 352.629 399.494 361.76 399.494 361.76C399.494 361.76 392.311 356.376 386.894 355.096L385.718 354.827C379.94 353.553 375.586 353.384 370.152 356.251L369.756 356.472C365.65 358.878 361.493 364.911 361.493 364.911L358.029 364.91C358.026 364.883 357.489 360.278 358.029 357.406C358.376 355.567 358.668 354.411 359.413 352.888L359.761 352.21C361.746 348.513 363.949 346.564 367.658 345.01L368.42 344.704C372.839 343.003 381.699 344.704 381.699 344.704L382.056 343.607L381.987 343.585L381.916 343.571L381.914 343.57C381.913 343.57 381.91 343.57 381.907 343.569C381.902 343.568 381.895 343.567 381.886 343.565C381.868 343.561 381.84 343.557 381.805 343.55C381.735 343.538 381.634 343.519 381.505 343.497C381.246 343.452 380.873 343.391 380.414 343.323C379.495 343.188 378.222 343.024 376.805 342.916C374.037 342.703 370.481 342.674 368.005 343.628C365.839 344.462 364.076 345.411 362.567 346.706C361.055 348.003 359.851 349.601 358.744 351.664C357.657 353.688 357.304 355.022 356.895 357.192C356.598 358.77 356.605 360.758 356.673 362.29C356.708 363.068 356.759 363.754 356.803 364.245C356.825 364.49 356.844 364.688 356.858 364.826C356.866 364.894 356.871 364.948 356.875 364.985L356.882 365.04C356.882 365.041 356.882 365.042 356.882 365.043L356.883 365.045L357.001 366.065L362.099 366.065L362.444 365.566C362.444 365.566 362.444 365.564 362.445 365.563C362.447 365.56 362.45 365.557 362.454 365.552C362.461 365.541 362.473 365.524 362.488 365.502C362.52 365.457 362.567 365.39 362.629 365.304C362.753 365.13 362.938 364.878 363.173 364.567C363.643 363.945 364.312 363.093 365.109 362.174C366.731 360.305 368.778 358.282 370.691 357.272C373.446 355.818 375.869 355.203 378.347 355.115C380.851 355.026 383.465 355.472 386.629 356.22C389.15 356.815 392.169 358.398 394.625 359.894C395.838 360.632 396.885 361.332 397.629 361.847C398.001 362.105 398.297 362.315 398.498 362.461C398.599 362.533 398.675 362.59 398.726 362.628C398.752 362.647 398.771 362.661 398.784 362.67C398.79 362.675 398.795 362.679 398.797 362.681C398.799 362.682 398.8 362.682 398.8 362.683L402.295 365.302L400.552 361.299Z" fill="#1E1E1E"/>
<path d="M351.816 295.445C351.834 295.458 358.838 300.629 362.022 305.083C364.026 307.886 365.26 309.528 366.249 312.828C367.621 317.406 366.868 320.327 366.249 325.065C365.353 331.926 360.699 341.884 360.681 341.923L355.486 353.255V365.015H347.981V352.766C346.417 349.239 344.671 345.21 343.362 341.923C340.769 335.41 338.125 332.013 337.198 325.065C336.566 320.328 335.983 317.397 337.384 312.828C338.394 309.534 339.607 307.886 341.611 305.083C344.799 300.624 351.816 295.445 351.816 295.445Z" fill="#1E1E1E"/>
<path d="M352.502 294.516C352.524 294.532 354.304 295.847 356.485 297.724C358.648 299.585 361.284 302.066 362.961 304.411C364.961 307.208 366.305 308.991 367.355 312.497C368.814 317.366 367.999 320.58 367.394 325.215C366.927 328.787 365.497 333.098 364.214 336.464C362.958 339.759 361.806 342.24 361.73 342.403L356.64 353.507V366.17H346.826V353.009C345.286 349.532 343.578 345.589 342.289 342.35C340.988 339.084 339.753 336.779 338.596 334.118C337.465 331.518 336.535 328.825 336.053 325.217C335.427 320.527 334.793 317.34 336.28 312.49C337.35 308.998 338.667 307.215 340.672 304.411C342.351 302.063 344.992 299.579 347.156 297.717C348.249 296.777 349.239 295.979 349.957 295.416C350.316 295.134 350.608 294.91 350.811 294.756C350.912 294.679 350.991 294.621 351.045 294.58C351.072 294.56 351.093 294.543 351.107 294.533C351.114 294.527 351.12 294.523 351.124 294.52C351.126 294.519 351.128 294.518 351.129 294.517H351.13V294.516H351.131L351.816 294.01L352.502 294.516ZM355.486 365.015V353.255L360.681 341.923C360.706 341.87 365.067 332.533 366.154 325.716L366.249 325.065C366.849 320.475 367.573 317.59 366.371 313.252L366.249 312.828C365.384 309.94 364.33 308.323 362.738 306.086L362.022 305.083C358.844 300.639 351.863 295.479 351.816 295.445C351.816 295.445 344.799 300.624 341.611 305.083L340.895 306.086C339.306 308.324 338.267 309.946 337.384 312.828L337.144 313.666C336.056 317.77 336.605 320.624 337.198 325.065C338.125 332.013 340.769 335.41 343.362 341.923C344.671 345.21 346.417 349.239 347.981 352.766V365.015H355.486Z" fill="#1E1E1E"/>
</svg>
