<svg width="1000" height="1000" viewBox="0 0 1000 1000" fill="none" xmlns="http://www.w3.org/2000/svg">
<path d="M596.765 240.126C583.272 263.527 579.628 291.33 586.635 317.418C593.641 343.506 610.724 365.742 634.125 379.234C657.526 392.727 685.329 396.371 711.417 389.364C737.505 382.358 759.741 365.275 773.233 341.874L775.962 343.447C762.052 367.572 739.129 385.183 712.234 392.406C685.34 399.629 656.677 395.873 632.552 381.963C608.427 368.053 590.816 345.13 583.593 318.235C576.37 291.341 580.126 262.678 594.036 238.553L596.765 240.126Z" fill="#1E1E1E"/>
<path d="M503.465 181.549C512.207 197.671 525.14 211.135 540.899 220.517C556.659 229.898 574.659 234.85 592.999 234.85V238C574.092 238 555.535 232.894 539.288 223.223C523.042 213.551 509.708 199.672 500.695 183.051L503.465 181.549Z" fill="#1E1E1E"/>
<path d="M594.999 764.15C576.943 764.15 559.211 768.95 543.621 778.059C528.031 787.167 515.142 800.256 506.275 815.984L503.531 814.438C512.672 798.222 525.96 784.728 542.032 775.338C558.105 765.948 576.385 761 594.999 761V764.15Z" fill="#1E1E1E"/>
<path d="M504.666 185.206C495.554 201.517 482.256 215.102 466.142 224.559C450.028 234.015 431.683 239 412.999 239V235.85C431.122 235.85 448.917 231.014 464.548 221.842C480.178 212.669 493.078 199.492 501.916 183.67L504.666 185.206Z" fill="#1E1E1E"/>
<path d="M413.457 761.01C431.825 761.265 449.805 766.334 465.601 775.712C481.396 785.09 494.456 798.448 503.475 814.451L500.73 815.998C491.983 800.475 479.315 787.517 463.993 778.421C448.671 769.325 431.23 764.408 413.413 764.16L413.457 761.01Z" fill="#1E1E1E"/>
<path d="M596.789 236.916C605.728 252.401 618.585 265.261 634.069 274.202C649.554 283.143 667.119 287.85 684.999 287.85V291C666.566 291 648.457 286.147 632.494 276.93C616.531 267.712 603.276 254.455 594.062 238.491L596.789 236.916Z" fill="#1E1E1E"/>
<path d="M786.999 500C786.999 444.219 741.78 399 685.999 399C630.218 399 584.999 444.219 584.999 500C584.999 555.781 630.218 601 685.999 601V605C628.009 605 580.999 557.99 580.999 500C580.999 442.01 628.009 395 685.999 395C743.989 395 790.999 442.01 790.999 500C790.999 557.99 743.989 605 685.999 605V601C741.78 601 786.999 555.781 786.999 500Z" fill="#1E1E1E"/>
<path d="M633.479 617.509C657.743 603.845 686.443 600.379 713.263 607.875C740.083 615.371 762.826 633.215 776.49 657.479L773.745 659.025C760.491 635.489 738.43 618.18 712.415 610.909C686.4 603.638 658.561 607 635.024 620.254C611.488 633.508 594.179 655.569 586.908 681.584C579.637 707.599 582.999 735.438 596.253 758.975L593.508 760.521C579.844 736.256 576.378 707.556 583.874 680.736C591.37 653.916 609.214 631.173 633.479 617.509Z" fill="#1E1E1E"/>
<path d="M685.853 711.15C667.676 711.177 649.837 716.066 634.188 725.312C618.54 734.559 605.651 747.824 596.858 763.732L594.102 762.209C603.166 745.809 616.454 732.133 632.587 722.601C648.72 713.069 667.109 708.027 685.848 708L685.853 711.15Z" fill="#1E1E1E"/>
<path d="M603.999 289C603.999 233.219 558.78 188 502.999 188C447.218 188 401.999 233.219 401.999 289C401.999 344.781 447.218 390 502.999 390V394C445.009 394 397.999 346.99 397.999 289C397.999 231.01 445.009 184 502.999 184C560.989 184 607.999 231.01 607.999 289C607.999 346.99 560.989 394 502.999 394V390C558.78 390 603.999 344.781 603.999 289Z" fill="#1E1E1E"/>
<path d="M595.059 236.498C586.111 252.81 572.989 266.452 557.037 276.027C541.085 285.603 522.875 290.767 504.271 290.992C485.667 291.217 467.337 286.496 451.157 277.31C434.978 268.124 421.53 254.803 412.189 238.712L414.913 237.131C423.973 252.739 437.019 265.66 452.713 274.57C468.407 283.481 486.187 288.061 504.232 287.843C522.278 287.624 539.942 282.614 555.416 273.326C570.89 264.038 583.617 250.805 592.297 234.982L595.059 236.498Z" fill="#1E1E1E"/>
<path d="M603.999 500C603.999 444.219 558.78 399 502.999 399C447.218 399 401.999 444.219 401.999 500C401.999 555.781 447.218 601 502.999 601V605C445.009 605 397.999 557.99 397.999 500C397.999 442.01 445.009 395 502.999 395C560.989 395 607.999 442.01 607.999 500C607.999 557.99 560.989 605 502.999 605V601C558.78 601 603.999 555.781 603.999 500Z" fill="#1E1E1E"/>
<path d="M603.999 709C603.999 653.219 558.78 608 502.999 608C447.218 608 401.999 653.219 401.999 709C401.999 764.781 447.218 810 502.999 810V814C445.009 814 397.999 766.99 397.999 709C397.999 651.01 445.009 604 502.999 604C560.989 604 607.999 651.01 607.999 709C607.999 766.99 560.989 814 502.999 814V810C558.78 810 603.999 764.781 603.999 709Z" fill="#1E1E1E"/>
<path d="M603.999 604C603.999 548.219 558.78 503 502.999 503C447.218 503 401.999 548.219 401.999 604C401.999 659.781 447.218 705 502.999 705V709C445.009 709 397.999 661.99 397.999 604C397.999 546.01 445.009 499 502.999 499C560.989 499 607.999 546.01 607.999 604C607.999 661.99 560.989 709 502.999 709V705C558.78 705 603.999 659.781 603.999 604Z" fill="#1E1E1E"/>
<path d="M603.999 500C603.999 444.219 558.78 399 502.999 399C447.218 399 401.999 444.219 401.999 500C401.999 555.781 447.218 601 502.999 601V605C445.009 605 397.999 557.99 397.999 500C397.999 442.01 445.009 395 502.999 395C560.989 395 607.999 442.01 607.999 500C607.999 557.99 560.989 605 502.999 605V601C558.78 601 603.999 555.781 603.999 500Z" fill="#1E1E1E"/>
<path d="M603.999 395C603.999 339.219 558.78 294 502.999 294C447.218 294 401.999 339.219 401.999 395C401.999 450.781 447.218 496 502.999 496V500C445.009 500 397.999 452.99 397.999 395C397.999 337.01 445.009 290 502.999 290C560.989 290 607.999 337.01 607.999 395C607.999 452.99 560.989 500 502.999 500V496C558.78 496 603.999 450.781 603.999 395Z" fill="#1E1E1E"/>
<path d="M503.05 708C521.808 708.009 540.221 713.043 556.374 722.578C572.527 732.113 585.832 745.802 594.903 762.22L592.146 763.743C583.347 747.818 570.441 734.54 554.772 725.291C539.593 716.331 522.357 711.468 504.753 711.165L503.048 711.15C484.853 711.142 466.988 716.007 451.311 725.24C435.633 734.474 422.714 747.74 413.899 763.657L411.144 762.131C420.231 745.721 433.549 732.046 449.712 722.526C465.875 713.007 484.292 707.991 503.05 708Z" fill="#1E1E1E"/>
<path d="M410.129 237.133C417.313 249.153 422.02 262.489 423.973 276.355C425.926 290.222 425.085 304.34 421.501 317.877C417.917 331.414 411.66 344.097 403.101 355.18C394.541 366.263 383.851 375.522 371.66 382.412C359.469 389.302 346.022 393.683 332.112 395.299C318.202 396.914 304.11 395.732 290.664 391.819C277.218 387.907 264.691 381.345 253.819 372.519C242.948 363.692 233.951 352.78 227.359 340.425L230.139 338.942C236.533 350.927 245.259 361.511 255.805 370.072C266.35 378.634 278.502 384.999 291.544 388.794C304.586 392.589 318.256 393.737 331.749 392.17C345.242 390.603 358.285 386.353 370.11 379.67C381.936 372.987 392.305 364.005 400.607 353.255C408.91 342.504 414.979 330.201 418.456 317.07C421.933 303.939 422.748 290.245 420.854 276.795C418.959 263.344 414.393 250.409 407.425 238.749L410.129 237.133Z" fill="#1E1E1E"/>
<path d="M410.937 238.491C401.831 254.265 388.78 267.4 373.063 276.604C357.347 285.809 339.506 290.768 321.294 290.992L321.256 287.842C338.921 287.624 356.226 282.815 371.471 273.887C386.716 264.958 399.376 252.218 408.208 236.917L410.937 238.491Z" fill="#1E1E1E"/>
<path d="M420.999 500C420.999 444.219 375.78 399 319.999 399C264.218 399 218.999 444.219 218.999 500C218.999 555.781 264.218 601 319.999 601V605C262.009 605 214.999 557.99 214.999 500C214.999 442.01 262.009 395 319.999 395C377.989 395 424.999 442.01 424.999 500C424.999 557.99 377.989 605 319.999 605V601C375.78 601 420.999 555.781 420.999 500Z" fill="#1E1E1E"/>
<path d="M293.598 607.914C320.407 600.382 349.111 603.808 373.395 617.438C397.678 631.069 415.552 653.789 423.085 680.599C430.617 707.408 427.191 736.112 413.561 760.396L410.813 758.854C424.035 735.299 427.359 707.456 420.053 681.451C412.746 655.446 395.408 633.408 371.853 620.186C348.298 606.964 320.455 603.64 294.45 610.946C268.445 618.253 246.407 635.591 233.185 659.146L230.438 657.604C244.069 633.321 266.788 615.447 293.598 607.914Z" fill="#1E1E1E"/>
<path d="M322.863 708.017C341.198 708.342 359.128 713.464 374.868 722.872C390.609 732.28 403.611 745.646 412.581 761.641L409.834 763.182C401.133 747.667 388.521 734.702 373.253 725.576C357.985 716.45 340.592 711.482 322.807 711.166L322.863 708.017Z" fill="#1E1E1E"/>
<path d="M231.642 547.862C258.653 547.559 284.437 536.539 303.322 517.225C322.207 497.912 332.647 471.887 332.344 444.876C332.041 417.866 321.02 392.081 301.707 373.196C282.393 354.311 256.368 343.872 229.357 344.175L229.322 341.025C257.168 340.713 283.998 351.475 303.909 370.944C323.82 390.413 335.181 416.995 335.493 444.841C335.805 472.687 325.044 499.516 305.575 519.427C286.106 539.338 259.524 550.699 231.678 551.012L231.642 547.862Z" fill="#1E1E1E"/>
<path d="M228.916 547.856C242.47 548.067 255.93 545.57 268.506 540.512C281.082 535.454 292.522 527.935 302.155 518.399C311.788 508.862 319.421 497.498 324.606 484.974C329.79 472.449 332.422 459.015 332.348 445.46C332.274 431.905 329.494 418.501 324.173 406.034C318.851 393.567 311.094 382.287 301.357 372.856C291.62 363.426 280.098 356.034 267.467 351.114C254.836 346.194 241.35 343.845 227.8 344.205L227.715 341.055C241.685 340.685 255.589 343.107 268.611 348.179C281.632 353.251 293.511 360.872 303.549 370.594C313.587 380.316 321.584 391.944 327.07 404.797C332.556 417.649 335.422 431.468 335.498 445.442C335.575 459.416 332.861 473.266 327.517 486.178C322.172 499.09 314.303 510.805 304.372 520.637C294.441 530.469 282.647 538.219 269.681 543.434C256.716 548.649 242.84 551.223 228.868 551.006L228.916 547.856Z" fill="#1E1E1E"/>
<path d="M360.999 254.05C312.692 281.94 296.14 343.711 324.031 392.018C351.921 440.326 413.692 456.877 461.999 428.987C510.307 401.097 526.858 339.326 498.968 291.018L502.432 289.018C531.427 339.239 514.22 403.456 463.999 432.451C413.779 461.446 349.562 444.239 320.567 394.018C291.572 343.798 308.779 279.581 358.999 250.586C409.22 221.591 473.437 238.798 502.432 289.018L498.968 291.018C471.078 242.711 409.307 226.159 360.999 254.05Z" fill="#1E1E1E"/>
<path d="M509.17 300.904C500.781 289.961 494.628 277.473 491.065 264.153C487.502 250.832 486.598 236.94 488.403 223.27C490.208 209.6 494.689 196.419 501.588 184.481L504.315 186.057C497.623 197.637 493.277 210.422 491.525 223.682C489.774 236.942 490.652 250.417 494.109 263.338C497.565 276.259 503.532 288.373 511.67 298.987C519.807 309.602 529.957 318.51 541.537 325.202C553.118 331.894 565.903 336.24 579.162 337.992C592.422 339.743 605.898 338.865 618.818 335.408C631.739 331.952 643.853 325.985 654.467 317.847C665.082 309.71 673.99 299.56 680.682 287.98L683.409 289.556C676.51 301.494 667.327 311.957 656.384 320.347C645.441 328.736 632.953 334.889 619.633 338.452C606.312 342.015 592.421 342.919 578.75 341.114C565.08 339.309 551.9 334.828 539.961 327.929C528.023 321.029 517.56 311.847 509.17 300.904Z" fill="#1E1E1E"/>
<path d="M269.5 517.033C221.192 544.923 204.641 606.694 232.531 655.001C260.421 703.309 322.192 719.86 370.5 691.97C418.807 664.079 435.358 602.309 407.468 554.001L410.932 552.001C439.927 602.222 422.72 666.439 372.5 695.434C322.279 724.429 258.062 707.222 229.067 657.001C200.072 606.78 217.279 542.563 267.5 513.568C317.72 484.573 381.937 501.78 410.932 552.001L407.468 554.001C379.578 505.694 317.807 489.142 269.5 517.033Z" fill="#1E1E1E"/>
<path d="M452.499 412.532C404.192 440.423 387.64 502.193 415.531 550.501C443.421 598.809 505.192 615.36 553.499 587.47C601.807 559.579 618.358 497.809 590.468 449.501L593.932 447.501C622.927 497.722 605.72 561.939 555.499 590.934C505.279 619.929 441.062 602.722 412.067 552.501C383.072 502.28 400.279 438.063 450.499 409.068C500.72 380.073 564.937 397.28 593.932 447.501L590.468 449.501C562.578 401.193 500.807 384.642 452.499 412.532Z" fill="#1E1E1E"/>
<path d="M635.498 307.033C587.191 334.923 570.64 396.694 598.53 445.001C626.42 493.309 688.191 509.86 736.498 481.97C784.806 454.079 801.357 392.309 773.467 344.001L776.931 342.001C805.926 392.222 788.719 456.439 738.498 485.434C688.278 514.429 624.061 497.222 595.066 447.001C566.071 396.78 583.278 332.563 633.498 303.568C683.719 274.574 747.936 291.78 776.931 342.001L773.467 344.001C745.577 295.694 683.806 279.142 635.498 307.033Z" fill="#1E1E1E"/>
<path d="M322.409 710.757C331.581 694.76 344.804 681.461 360.748 672.196C376.691 662.932 394.794 658.031 413.234 657.984C431.674 657.937 449.801 662.748 465.792 671.931C481.782 681.114 495.072 694.347 504.325 710.298L501.6 711.878C492.624 696.406 479.733 683.57 464.223 674.662C448.712 665.755 431.129 661.089 413.242 661.134C395.356 661.179 377.796 665.934 362.33 674.92C346.865 683.907 334.039 696.807 325.142 712.325L322.409 710.757Z" fill="#1E1E1E"/>
<path d="M695.5 658.484C695.5 602.703 650.281 557.484 594.5 557.484C538.719 557.484 493.5 602.703 493.5 658.484C493.5 714.264 538.719 759.484 594.5 759.484V763.484C536.51 763.484 489.5 716.474 489.5 658.484C489.5 600.494 536.51 553.484 594.5 553.484C652.49 553.484 699.5 600.494 699.5 658.484C699.5 716.474 652.49 763.484 594.5 763.484V759.484C650.281 759.484 695.5 714.264 695.5 658.484Z" fill="#1E1E1E"/>
<path d="M774.498 555.634C756.499 555.634 738.821 560.403 723.265 569.457L721.814 570.317C706.908 579.327 694.552 592.015 685.939 607.176C677.049 622.826 672.465 640.552 672.653 658.55C672.841 676.548 677.796 694.174 687.012 709.635L684.307 711.248C674.806 695.31 669.698 677.138 669.504 658.583C669.309 640.028 674.035 621.753 683.201 605.619C692.366 589.485 705.643 576.068 721.68 566.734C737.718 557.401 755.942 552.483 774.498 552.483V555.634Z" fill="#1E1E1E"/>
<path d="M776.601 660.632C759.107 660.614 741.903 665.103 726.648 673.665C711.392 682.227 698.599 694.574 689.501 709.516L686.811 707.878C696.19 692.474 709.378 679.745 725.106 670.918C740.833 662.091 758.569 657.464 776.604 657.482L776.601 660.632Z" fill="#1E1E1E"/>
<path d="M229.179 552.509C247.908 552.097 266.406 556.703 282.755 565.85C299.104 574.996 312.708 588.35 322.156 604.527C331.605 620.703 336.553 639.113 336.488 657.847C336.424 676.581 331.348 694.956 321.788 711.067L319.079 709.459C328.353 693.832 333.276 676.008 333.339 657.836C333.402 639.665 328.602 621.807 319.437 606.115C310.272 590.424 297.076 577.471 281.217 568.599C265.359 559.727 247.415 555.259 229.248 555.658L229.179 552.509Z" fill="#1E1E1E"/>
<path d="M321.416 289.994C312.2 305.953 298.944 319.205 282.984 328.419C267.023 337.633 248.919 342.483 230.49 342.483V339.333C248.366 339.333 265.928 334.629 281.41 325.691C296.891 316.754 309.748 303.899 318.688 288.419L321.416 289.994Z" fill="#1E1E1E"/>
<path d="M687.504 289.786C696.418 305.075 709.162 317.776 724.48 326.64C739.798 335.503 757.162 340.222 774.859 340.331L774.84 343.482C756.595 343.369 738.695 338.504 722.903 329.366C707.111 320.229 693.972 307.134 684.782 291.373L687.504 289.786Z" fill="#1E1E1E"/>
<path d="M670.499 553.984C670.499 526.571 681.218 500.263 700.336 480.665L701.253 479.738C720.944 460.046 747.651 448.984 775.499 448.984V452.134C748.487 452.134 722.581 462.865 703.48 481.965L702.591 482.866C684.047 501.876 673.649 527.394 673.649 553.984L673.657 555.249C673.987 581.804 684.678 607.2 703.48 626.002C722.581 645.103 748.487 655.833 775.499 655.833V658.984C747.651 658.984 720.944 647.921 701.253 628.23C681.869 608.846 670.846 582.665 670.507 555.288L670.499 553.984Z" fill="#1E1E1E"/>
<path d="M230.305 443.368C248.167 443.402 265.724 438.738 281.214 429.844C296.704 420.95 309.583 408.139 318.558 392.696C327.533 377.252 332.29 359.72 332.349 341.858C332.409 323.996 327.77 306.432 318.898 290.929L321.632 289.366C330.778 305.348 335.561 323.454 335.499 341.869C335.44 359.708 330.836 377.227 322.136 392.779L321.282 394.278C312.029 410.199 298.752 423.407 282.782 432.576C266.813 441.745 248.713 446.553 230.299 446.517L230.305 443.368Z" fill="#1E1E1E"/>
<path d="M464.999 328.95C441.259 342.657 413.116 346.527 386.585 339.77L385.323 339.44C358.424 332.232 335.49 314.634 321.566 290.518L324.295 288.942C337.801 312.336 360.047 329.406 386.138 336.397L387.363 336.717C413.098 343.272 440.396 339.517 463.424 326.222L464.516 325.582C487.348 312.02 503.996 290.062 510.878 264.378C517.87 238.286 514.21 210.486 500.703 187.093L503.432 185.518C517.356 209.634 521.129 238.295 513.921 265.194C506.714 292.092 489.116 315.026 464.999 328.95Z" fill="#1E1E1E"/>
<path d="M228.249 657.048C237.838 641.127 242.887 622.884 242.85 604.298C242.813 585.712 237.691 567.489 228.038 551.606L230.731 549.97C240.682 566.345 245.962 585.13 246.001 604.292C246.039 623.453 240.832 642.26 230.946 658.674L228.249 657.048Z" fill="#1E1E1E"/>
<path d="M452.499 308.032C404.191 335.922 387.64 397.693 415.53 446C443.421 494.308 505.191 510.859 553.499 482.969C601.807 455.079 618.358 393.308 590.468 345L593.932 343C622.927 393.221 605.72 457.438 555.499 486.433C505.278 515.428 441.061 498.221 412.066 448C383.071 397.78 400.278 333.563 450.499 304.568C500.72 275.573 564.937 292.78 593.932 343L590.468 345C562.577 296.693 500.807 280.141 452.499 308.032Z" fill="#1E1E1E"/>
<path d="M232.18 657.983C250.609 657.927 268.729 662.722 284.718 671.887C300.707 681.052 314.001 694.265 323.266 710.196L320.544 711.78C311.557 696.327 298.66 683.511 283.151 674.621C267.642 665.731 250.067 661.079 232.19 661.133L232.18 657.983Z" fill="#1E1E1E"/>
<path d="M360 571.014C311.693 598.905 295.141 660.675 323.032 708.983C350.922 757.291 412.693 773.842 461 745.952C509.308 718.061 525.859 656.29 497.969 607.983L501.433 605.983C530.428 656.204 513.221 720.421 463 749.416C412.779 778.411 348.562 761.204 319.567 710.983C290.572 660.762 307.779 596.545 358 567.55C408.221 538.555 472.438 555.762 501.433 605.983L497.969 607.983C470.078 559.675 408.308 543.124 360 571.014Z" fill="#1E1E1E"/>
<path d="M544.999 465.514C496.692 493.405 480.14 555.175 508.031 603.483C535.921 651.791 597.692 668.342 645.999 640.452C694.307 612.561 710.858 550.791 682.968 502.483L686.432 500.483C715.427 550.704 698.22 614.921 647.999 643.916C597.778 672.911 533.561 655.704 504.566 605.483C475.571 555.262 492.778 491.045 542.999 462.05C593.22 433.055 657.437 450.262 686.432 500.483L682.968 502.483C655.077 454.175 593.307 437.624 544.999 465.514Z" fill="#1E1E1E"/>
<path d="M543.999 358.514C495.692 386.405 479.141 448.175 507.031 496.483C534.921 544.791 596.692 561.342 644.999 533.452C693.307 505.561 709.858 443.791 681.968 395.483L685.432 393.483C714.427 443.704 697.22 507.921 646.999 536.916C596.779 565.911 532.562 548.704 503.567 498.483C474.572 448.262 491.779 384.045 541.999 355.05C592.22 326.055 656.437 343.262 685.432 393.483L681.968 395.483C654.078 347.175 592.307 330.624 543.999 358.514Z" fill="#1E1E1E"/>
<path d="M360.999 465.514C312.692 493.405 296.141 555.175 324.031 603.483C351.921 651.791 413.692 668.342 461.999 640.452C510.307 612.561 526.858 550.791 498.968 502.483L502.432 500.483C531.427 550.704 514.22 614.921 463.999 643.916C413.779 672.911 349.562 655.704 320.567 605.483C291.572 555.262 308.779 491.045 358.999 462.05C409.22 433.055 473.437 450.262 502.432 500.483L498.968 502.483C471.078 454.175 409.307 437.624 360.999 465.514Z" fill="#1E1E1E"/>
<path d="M358.999 358.514C310.692 386.405 294.141 448.175 322.031 496.483C349.921 544.791 411.692 561.342 459.999 533.452C508.307 505.561 524.858 443.791 496.968 395.483L500.432 393.483C529.427 443.704 512.22 507.921 461.999 536.916C411.779 565.911 347.562 548.704 318.567 498.483C289.572 448.262 306.779 384.045 356.999 355.05C407.22 326.055 471.437 343.262 500.432 393.483L496.968 395.483C469.078 347.175 407.307 330.624 358.999 358.514Z" fill="#1E1E1E"/>
<path d="M644.999 254.049C596.691 226.158 534.921 242.71 507.03 291.017C479.14 339.325 495.691 401.095 543.999 428.986C592.307 456.876 654.077 440.325 681.968 392.017L685.432 394.017C656.437 444.238 592.22 461.445 541.999 432.45C491.778 403.455 474.571 339.238 503.566 289.017C532.561 238.797 596.778 221.59 646.999 250.585C697.22 279.58 714.427 343.797 685.432 394.017L681.968 392.017C709.858 343.71 693.307 281.939 644.999 254.049Z" fill="#1E1E1E"/>
<path d="M670.504 444.983C670.778 417.137 682.104 390.539 701.988 371.042C721.872 351.547 748.687 340.748 776.533 341.023L776.503 344.173C749.492 343.906 723.481 354.381 704.193 373.292C684.905 392.203 673.92 418.002 673.654 445.013C673.388 472.024 683.862 498.035 702.773 517.323C721.685 536.611 747.484 547.596 774.494 547.862L774.464 551.012C746.618 550.738 720.02 539.412 700.524 519.528C681.028 499.644 670.229 472.829 670.504 444.983Z" fill="#1E1E1E"/>
<path d="M370.5 307.031C322.192 279.14 260.422 295.692 232.531 343.999C204.641 392.307 221.192 454.078 269.5 481.968C317.807 509.858 379.578 493.307 407.468 444.999L410.933 446.999C381.938 497.22 317.721 514.427 267.5 485.432C217.279 456.437 200.072 392.22 229.067 341.999C258.062 291.779 322.279 274.572 372.5 303.567C422.721 332.562 439.928 396.779 410.933 446.999L407.468 444.999C435.359 396.692 418.807 334.921 370.5 307.031Z" fill="#1E1E1E"/>
<path d="M553.499 412.531C505.192 384.64 443.421 401.192 415.531 449.499C387.64 497.807 404.192 559.578 452.499 587.468C500.807 615.358 562.577 598.807 590.468 550.499L593.932 552.499C564.937 602.72 500.72 619.927 450.499 590.932C400.279 561.937 383.072 497.72 412.067 447.499C441.062 397.279 505.279 380.072 555.499 409.067C605.72 438.062 622.927 502.279 593.932 552.499L590.468 550.499C618.358 502.192 601.807 440.421 553.499 412.531Z" fill="#1E1E1E"/>
<path d="M735.499 518.031C687.191 490.14 625.421 506.692 597.53 554.999C569.64 603.307 586.191 665.078 634.499 692.968C682.807 720.858 744.577 704.307 772.468 655.999L775.932 657.999C746.937 708.22 682.72 725.427 632.499 696.432C582.278 667.437 565.071 603.22 594.066 552.999C623.061 502.779 687.278 485.572 737.499 514.567C787.72 543.562 804.927 607.779 775.932 657.999L772.468 655.999C800.358 607.692 783.807 545.921 735.499 518.031Z" fill="#1E1E1E"/>
<path d="M777.855 557.092C769.77 572.465 765.751 589.651 766.18 607.016C766.609 624.38 771.471 641.347 780.306 656.302L777.594 657.904C768.486 642.486 763.473 624.995 763.031 607.093C762.588 589.191 766.732 571.474 775.067 555.625L777.855 557.092Z" fill="#1E1E1E"/>
<path d="M777.908 449.377C769.203 464.378 764.472 481.353 764.164 498.695C763.857 516.036 767.983 533.168 776.151 548.468L773.372 549.951C764.952 534.178 760.698 516.516 761.015 498.639C761.332 480.762 766.209 463.261 775.183 447.796L777.908 449.377Z" fill="#1E1E1E"/>
<path d="M230.826 449.558C239.428 465.063 243.964 482.495 244.011 500.226C244.057 517.958 239.611 535.412 231.089 550.962L228.327 549.449C236.593 534.366 240.905 517.434 240.861 500.234C240.816 483.035 236.416 466.126 228.072 451.086L230.826 449.558Z" fill="#1E1E1E"/>
<path d="M778.273 340.961L780.965 342.598C771.773 357.72 766.68 374.976 766.187 392.666C765.695 410.356 769.821 427.869 778.157 443.479L775.379 444.963C766.785 428.87 762.531 410.815 763.039 392.578C763.547 374.341 768.797 356.551 778.273 340.961Z" fill="#1E1E1E"/>
<path d="M229.949 339.687C240.065 355.808 245.611 374.375 245.99 393.403C246.37 412.432 241.57 431.206 232.105 447.718L229.372 446.151C238.554 430.135 243.209 411.924 242.84 393.467C242.472 375.009 237.094 356.999 227.281 341.361L229.949 339.687Z" fill="#1E1E1E"/>
<path d="M228.445 447.988C256.292 447.708 283.109 458.501 302.997 477.993C322.885 497.486 334.215 524.081 334.495 551.927C334.775 579.773 323.982 606.59 304.489 626.479C284.997 646.367 258.402 657.697 230.556 657.977L230.525 654.827C257.535 654.556 283.332 643.565 302.24 624.273C321.147 604.982 331.617 578.969 331.345 551.959C331.074 524.948 320.083 499.15 300.791 480.243C281.5 461.335 255.488 450.866 228.477 451.137L228.445 447.988Z" fill="#1E1E1E"/>
<path d="M491.795 735.07C495.257 721.723 501.314 709.188 509.62 698.182C517.926 687.176 528.319 677.913 540.205 670.923C552.09 663.933 565.236 659.353 578.892 657.443C592.548 655.534 606.447 656.333 619.794 659.795C633.141 663.257 645.675 669.314 656.682 677.62C667.688 685.926 676.951 696.319 683.941 708.205L681.225 709.801C674.445 698.272 665.46 688.191 654.785 680.134C644.108 672.078 631.95 666.202 619.003 662.844C606.056 659.486 592.575 658.711 579.328 660.563C566.082 662.415 553.33 666.858 541.801 673.639C530.272 680.419 520.191 689.403 512.134 700.079C504.077 710.755 498.202 722.914 494.844 735.861C491.486 748.807 490.71 762.289 492.562 775.535C494.415 788.781 498.858 801.534 505.638 813.063L502.923 814.659C495.933 802.773 491.352 789.627 489.443 775.971C487.534 762.315 488.333 748.417 491.795 735.07Z" fill="#1E1E1E"/>
<path d="M845.999 501C845.999 311.566 692.433 158 502.999 158C313.565 158 159.999 311.566 159.999 501C159.999 690.434 313.565 844 502.999 844V851C309.699 851 152.999 694.3 152.999 501C152.999 307.7 309.699 151 502.999 151C696.299 151 852.999 307.7 852.999 501C852.999 694.3 696.299 851 502.999 851V844C692.433 844 845.999 690.434 845.999 501Z" fill="#1E1E1E"/>
<path d="M832.999 500C832.999 317.746 685.253 170 502.999 170C320.745 170 172.999 317.746 172.999 500C172.999 682.254 320.745 830 502.999 830V835C317.983 835 167.999 685.015 167.999 500C167.999 314.985 317.983 165 502.999 165C688.014 165 837.999 314.985 837.999 500C837.999 685.015 688.014 835 502.999 835V830C685.253 830 832.999 682.254 832.999 500Z" fill="#1E1E1E"/>
<path d="M817.999 499C817.999 325.03 676.969 184 502.999 184C329.029 184 187.999 325.03 187.999 499C187.999 672.97 329.029 814 502.999 814V819C326.268 819 182.999 675.731 182.999 499C182.999 322.269 326.268 179 502.999 179C679.73 179 822.999 322.269 822.999 499C822.999 675.731 679.73 819 502.999 819V814C676.969 814 817.999 672.97 817.999 499Z" fill="#1E1E1E"/>
<path d="M616.34 445.432C608.987 437.886 601.695 429.584 611.263 396.002C577.631 405.395 570.191 399.008 562.683 391.616C532.181 355.231 511.291 380.631 509.39 383.309C507.267 386.302 505.221 391.078 505.123 394.456L505.008 398.397L503.624 398.152L503.51 394.211C503.412 390.833 501.365 386.057 499.242 383.065C497.342 380.386 476.452 354.986 445.95 391.372C438.442 398.763 431.003 405.15 397.371 395.757C406.939 429.34 399.646 437.641 392.293 445.187C356.067 475.878 381.575 496.636 384.263 498.522C387.267 500.63 392.053 502.652 395.432 502.732L399.374 502.826V503.039L395.432 503.133C392.053 503.213 387.267 505.235 384.263 507.343C381.575 509.229 356.067 529.987 392.293 560.678C399.646 568.224 406.939 576.526 397.371 610.108C431.003 600.715 438.442 607.102 445.95 614.493C476.452 650.878 497.342 625.479 499.242 622.8C501.365 619.808 503.016 612.86 503.114 609.482H503.677L503.229 611.654C503.327 615.032 505.374 619.808 507.497 622.8C509.398 625.479 530.288 650.879 560.79 614.493C568.298 607.102 575.737 600.715 609.369 610.108C599.801 576.526 607.093 568.224 614.446 560.678C650.672 529.987 625.165 509.229 622.476 507.343C619.473 505.235 614.686 503.213 611.308 503.133L607.366 503.039L609.226 502.977H613.202C616.58 502.897 621.367 500.875 624.37 498.767C627.059 496.881 652.566 476.123 616.34 445.432Z" fill="#16DDEB"/>
<path d="M443.473 389.064C459.197 370.37 473.201 366.769 484.079 369.276C494.534 371.685 500.851 379.492 501.997 381.109C502.847 382.307 503.661 383.716 504.374 385.198C505.058 383.806 505.829 382.486 506.632 381.354C507.779 379.738 514.096 371.929 524.551 369.52C535.43 367.014 549.432 370.616 565.155 389.308C568.762 392.854 571.894 395.646 577.814 396.785C584.039 397.982 593.695 397.399 610.352 392.746L616.165 391.122L614.512 396.928C609.788 413.508 609.383 423.349 610.759 429.772C612.083 435.948 615.114 439.326 618.66 442.97C637.271 458.79 640.799 472.812 638.237 483.677C635.773 494.12 627.932 500.395 626.31 501.533C625.284 502.253 624.104 502.946 622.858 503.572C623.405 503.898 623.929 504.234 624.417 504.576C626.039 505.715 633.879 511.991 636.342 522.433C638.905 533.298 635.376 547.318 616.765 563.138C613.219 566.782 610.188 570.161 608.865 576.337C607.489 582.761 607.894 592.602 612.618 609.182L614.271 614.986L608.458 613.364C591.8 608.711 582.144 608.128 575.919 609.325C570 610.463 566.869 613.255 563.262 616.801C547.538 635.494 533.536 639.095 522.658 636.589C512.203 634.18 505.887 626.372 504.74 624.756C504.244 624.057 503.761 623.286 503.302 622.472C502.906 623.308 502.472 624.086 501.997 624.756C500.851 626.372 494.534 634.18 484.079 636.589C473.201 639.095 459.198 635.494 443.473 616.799C439.867 613.254 436.736 610.463 430.817 609.325C424.592 608.128 414.937 608.711 398.28 613.364L392.465 614.986L394.12 609.182C398.844 592.602 399.248 582.761 397.871 576.337C396.548 570.161 393.518 566.782 389.971 563.138C371.361 547.318 367.831 533.298 370.394 522.433C372.857 511.99 380.699 505.715 382.321 504.576C383.135 504.005 384.047 503.45 385.012 502.932C384.047 502.413 383.135 501.861 382.321 501.289C380.699 500.151 372.858 493.875 370.394 483.432C367.832 472.567 371.36 458.545 389.971 442.724C393.517 439.081 396.548 435.703 397.871 429.527C399.248 423.104 398.844 413.263 394.12 396.682L392.465 390.878L398.28 392.502C414.937 397.154 424.592 397.736 430.817 396.539C436.736 395.401 439.867 392.609 443.473 389.064ZM482.561 375.862C474.92 374.102 463.269 375.97 448.538 393.543L448.435 393.667L448.319 393.78C444.462 397.578 440.123 401.634 432.094 403.178C425.22 404.5 415.924 403.933 402.141 400.512C405.6 414.366 405.998 423.863 404.481 430.944C402.724 439.143 398.476 443.684 394.713 447.546L394.601 447.662L394.477 447.766C376.982 462.588 375.173 474.249 376.973 481.881C378.879 489.961 385.136 495.007 386.203 495.756C387.459 496.637 389.162 497.547 390.935 498.24C392.743 498.946 394.371 499.326 395.51 499.353L402.752 499.526V506.339L395.51 506.512C394.371 506.539 392.743 506.92 390.935 507.626C389.163 508.318 387.459 509.228 386.203 510.109C385.137 510.858 378.879 515.904 376.973 523.984C375.201 531.496 376.925 542.913 393.668 557.406L394.477 558.099L394.601 558.203L394.713 558.319C398.476 562.182 402.724 566.723 404.481 574.922C405.998 582.002 405.6 591.498 402.141 605.351C415.924 601.93 425.22 601.365 432.094 602.687C440.123 604.231 444.462 608.287 448.319 612.084L448.435 612.198L448.538 612.322C463.269 629.894 474.92 631.763 482.561 630.002C490.651 628.138 495.73 621.908 496.485 620.845C497.19 619.851 498.01 617.842 498.676 615.397C499.326 613.012 499.696 610.712 499.734 609.383L499.83 606.102H507.824L506.628 611.898C506.719 613.01 507.098 614.495 507.745 616.126C508.446 617.895 509.365 619.593 510.253 620.845C511.007 621.908 516.086 628.138 524.175 630.002C531.816 631.763 543.467 629.894 558.198 612.322L558.303 612.199L558.417 612.085C562.275 608.288 566.614 604.231 574.643 602.687C581.518 601.365 590.813 601.932 604.595 605.353C601.136 591.499 600.739 582.003 602.256 574.922C604.013 566.723 608.261 562.182 612.025 558.319L612.137 558.203L612.26 558.099C629.756 543.277 631.564 531.616 629.764 523.984C627.858 515.904 621.601 510.858 620.534 510.109C619.278 509.228 617.575 508.318 615.802 507.626C613.994 506.92 612.366 506.539 611.226 506.512L607.284 506.418L607.252 499.661L609.113 499.599L609.169 499.597H613.139C614.278 499.566 615.897 499.186 617.696 498.484C619.468 497.792 621.172 496.882 622.427 496.001C623.494 495.252 629.752 490.205 631.658 482.125C633.458 474.493 631.65 462.832 614.154 448.011L614.031 447.906L613.918 447.791C610.154 443.928 605.907 439.387 604.15 431.188C602.633 424.107 603.03 414.61 606.49 400.756C592.707 404.177 583.412 404.744 576.537 403.422C568.508 401.878 564.168 397.822 560.31 394.024L560.196 393.911L560.091 393.788C545.36 376.215 533.709 374.347 526.068 376.108C517.979 377.972 512.9 384.202 512.146 385.265C511.258 386.516 510.339 388.215 509.638 389.984C508.922 391.788 508.533 393.414 508.5 394.554L508.273 402.408L500.325 401L500.13 394.308C500.097 393.169 499.708 391.544 498.993 389.739C498.291 387.971 497.372 386.271 496.485 385.02C495.73 383.956 490.651 377.726 482.561 375.862Z" fill="#1E1E1E"/>
<path d="M492.896 517.17H518.298V522.943H492.896V517.17Z" fill="#1E1E1E"/>
<path d="M607.882 503.586C607.882 446.035 561.227 399.381 503.676 399.381C446.125 399.381 399.471 446.035 399.471 503.586C399.471 561.137 446.125 607.792 503.676 607.792V612.298C443.637 612.298 394.965 563.626 394.965 503.586C394.965 443.547 443.637 394.875 503.676 394.875C563.716 394.875 612.388 443.547 612.388 503.586C612.388 563.626 563.716 612.298 503.676 612.298V607.792C561.227 607.792 607.882 561.137 607.882 503.586Z" fill="#1E1E1E"/>
<path d="M539.691 470.214L543.671 468.1L505.368 396.001L501.389 398.115L539.691 470.214Z" fill="#1E1E1E"/>
<path d="M469.119 468.895L465.143 466.775L503.313 395.206L507.289 397.327L469.119 468.895Z" fill="#1E1E1E"/>
<path d="M469.179 468.7L467.065 464.721L394.966 503.023L397.08 507.003L469.179 468.7Z" fill="#1E1E1E"/>
<path d="M468.13 537.65C469.226 538.238 469.638 539.604 469.05 540.7C468.463 541.797 467.098 542.209 466.001 541.622L396.085 504.146L398.215 500.175L468.13 537.65Z" fill="#1E1E1E"/>
<path d="M468.789 538.085L464.81 540.199L503.112 612.298L507.092 610.184L468.789 538.085Z" fill="#1E1E1E"/>
<path d="M538.576 538.059L542.541 540.199L504.239 611.171L500.273 609.031L538.576 538.059Z" fill="#1E1E1E"/>
<path d="M538.175 538.473L540.289 542.452L612.388 504.15L610.273 500.17L538.175 538.473Z" fill="#1E1E1E"/>
<path d="M539.299 469.825L541.416 465.847L611.262 503.023L609.145 507.001L539.299 469.825Z" fill="#1E1E1E"/>
<path d="M578.296 429.566V578.733H429.129V429.566H578.296ZM438.169 569.693H569.255V438.607H438.169V569.693Z" fill="#1E1E1E"/>
<path d="M456.628 512.864C456.628 512.864 460.602 503.734 465.471 500.142C468.927 497.593 474.423 495.809 474.423 495.809C474.423 495.809 483.283 494.108 487.701 495.809C491.877 497.417 494.244 499.371 496.361 503.314C497.372 505.199 497.696 506.408 498.092 508.51C498.634 511.39 498.093 516.015 498.093 516.015L494.629 516.015C494.629 516.015 490.199 509.587 485.969 507.355C480.173 504.297 475.605 504.694 469.227 506.2C463.81 507.48 456.628 512.864 456.628 512.864Z" fill="#1E1E1E"/>
<path d="M455.571 512.403L456.629 512.864C455.571 512.403 455.571 512.403 455.571 512.403L455.572 512.402L455.572 512.399C455.573 512.398 455.573 512.396 455.574 512.394C455.576 512.389 455.58 512.381 455.584 512.371C455.593 512.352 455.605 512.325 455.621 512.289C455.653 512.218 455.7 512.113 455.761 511.981C455.883 511.716 456.061 511.337 456.29 510.871C456.748 509.941 457.411 508.661 458.23 507.265C459.843 504.514 462.152 501.157 464.787 499.213C466.625 497.857 468.962 496.732 470.795 495.956C471.719 495.564 472.533 495.255 473.117 495.043C473.409 494.937 473.645 494.854 473.808 494.798C473.889 494.77 473.954 494.749 473.998 494.735C474.019 494.727 474.036 494.722 474.048 494.718C474.054 494.716 474.058 494.714 474.062 494.713L474.067 494.711L474.424 495.809C474.414 495.812 469.263 497.485 465.803 499.905L465.473 500.141C460.603 503.733 456.629 512.864 456.629 512.864C456.629 512.864 463.812 507.481 469.229 506.201L470.405 505.931C476.183 504.657 480.537 504.488 485.971 507.355L486.367 507.576C490.473 509.982 494.63 516.015 494.63 516.015L498.094 516.015C498.098 515.987 498.634 511.382 498.094 508.51C497.747 506.671 497.455 505.515 496.71 503.992L496.362 503.314C494.377 499.618 492.174 497.669 488.465 496.115L487.703 495.809C483.284 494.107 474.424 495.809 474.424 495.809L474.067 494.711L474.136 494.689L474.207 494.675L474.209 494.674C474.211 494.674 474.213 494.674 474.216 494.674C474.221 494.673 474.228 494.671 474.237 494.669C474.255 494.666 474.283 494.661 474.318 494.655C474.388 494.642 474.489 494.623 474.618 494.601C474.877 494.557 475.25 494.496 475.709 494.428C476.628 494.292 477.901 494.129 479.318 494.02C482.086 493.807 485.642 493.779 488.118 494.732C490.284 495.566 492.047 496.515 493.556 497.81C495.068 499.107 496.272 500.705 497.379 502.768C498.466 504.793 498.819 506.127 499.228 508.296C499.525 509.874 499.518 511.862 499.45 513.394C499.415 514.173 499.364 514.858 499.32 515.349C499.298 515.595 499.279 515.793 499.265 515.93C499.257 515.999 499.252 516.053 499.248 516.09L499.241 516.144C499.241 516.145 499.241 516.147 499.241 516.148L499.24 516.149L499.122 517.17L494.024 517.17L493.679 516.67C493.679 516.67 493.679 516.668 493.678 516.667C493.676 516.665 493.673 516.662 493.669 516.657C493.662 516.646 493.65 516.628 493.635 516.606C493.604 516.562 493.556 516.495 493.494 516.408C493.37 516.235 493.185 515.982 492.95 515.671C492.48 515.049 491.811 514.197 491.014 513.279C489.393 511.409 487.345 509.386 485.432 508.376C482.677 506.923 480.254 506.308 477.776 506.22C475.272 506.13 472.658 506.577 469.494 507.324C466.973 507.92 463.954 509.503 461.498 510.998C460.285 511.736 459.238 512.437 458.494 512.952C458.122 513.209 457.826 513.42 457.625 513.565C457.525 513.638 457.448 513.695 457.397 513.732C457.371 513.751 457.352 513.765 457.339 513.775C457.333 513.779 457.328 513.783 457.326 513.785C457.324 513.786 457.323 513.787 457.323 513.787L453.828 516.406L455.571 512.403Z" fill="#1E1E1E"/>
<path d="M482.575 522.146C482.575 522.146 478.672 523.543 477.379 525.61C476.509 527.002 476.154 528.012 476.225 529.651C476.287 531.076 476.506 531.988 477.379 533.115C479.195 535.46 481.978 534.859 484.884 534.27C488.071 533.625 489.654 532.084 491.812 529.651C493.224 528.06 494.699 525.033 494.699 525.033L497.585 525.033C497.585 525.033 498.162 525.033 497.585 527.342C497.008 529.651 495.225 531.931 492.967 534.27C490.491 536.834 488.852 538.364 485.462 539.466C481.817 540.65 479.688 540.62 475.648 540.043C473.713 539.475 472.473 539.009 471.029 537.734C469.209 536.126 468.922 534.38 468.72 531.961C468.528 529.67 468.687 528.156 469.874 526.188C471.296 523.831 473.021 522.967 475.648 522.146C478.23 521.34 482.575 522.146 482.575 522.146Z" fill="#1E1E1E"/>
<path d="M498.92 525.042C499.065 525.621 499.001 526.433 498.703 527.622C498.046 530.254 496.061 532.725 493.795 535.072C491.284 537.673 489.484 539.373 485.817 540.564C483.922 541.179 482.375 541.494 480.754 541.569C479.149 541.642 477.519 541.477 475.483 541.186L475.4 541.174L475.32 541.15C473.33 540.566 471.896 540.042 470.262 538.599C468.082 536.673 467.773 534.518 467.567 532.057C467.468 530.871 467.451 529.804 467.642 528.748C467.835 527.678 468.23 526.676 468.884 525.591C469.677 524.277 470.581 523.34 471.675 522.625C472.748 521.923 473.958 521.463 475.301 521.044C476.812 520.572 478.729 520.59 480.16 520.692C480.896 520.745 481.548 520.824 482.015 520.889C482.248 520.922 482.437 520.952 482.569 520.974C482.635 520.985 482.688 520.993 482.724 521C482.742 521.003 482.757 521.006 482.767 521.008C482.771 521.008 482.775 521.009 482.778 521.01C482.779 521.01 482.78 521.011 482.781 521.011L482.784 521.011L486.992 521.792L482.963 523.233L482.957 523.236C482.952 523.238 482.943 523.24 482.931 523.245C482.907 523.254 482.869 523.268 482.82 523.288C482.72 523.326 482.573 523.384 482.392 523.46C482.029 523.613 481.534 523.838 481.004 524.121C479.887 524.717 478.83 525.465 478.357 526.223C477.949 526.875 477.7 527.377 477.553 527.869C477.408 528.352 477.346 528.881 477.377 529.601C477.406 530.271 477.47 530.741 477.598 531.149C477.722 531.544 477.923 531.934 478.29 532.408C478.95 533.26 479.756 533.584 480.783 533.64C481.891 533.699 483.154 533.442 484.653 533.138C487.455 532.57 488.825 531.275 490.946 528.885C491.568 528.184 492.241 527.117 492.779 526.173C493.043 525.711 493.265 525.297 493.42 524.998C493.497 524.849 493.558 524.73 493.599 524.649C493.619 524.608 493.634 524.577 493.644 524.556C493.649 524.546 493.653 524.538 493.655 524.534C493.657 524.531 493.658 524.529 493.659 524.528L493.659 524.527L493.975 523.878L497.583 523.878L497.583 525.033L494.696 525.033C494.678 525.07 493.212 528.07 491.81 529.651C489.652 532.084 488.069 533.625 484.882 534.27C481.976 534.858 479.193 535.46 477.377 533.115L477.221 532.906C476.478 531.872 476.28 530.987 476.222 529.651L476.214 529.352C476.2 528.08 476.471 527.183 477.075 526.117L477.377 525.61C478.661 523.557 482.521 522.165 482.573 522.146C482.519 522.137 478.211 521.345 475.645 522.146C473.018 522.967 471.293 523.831 469.872 526.188C468.833 527.91 468.581 529.284 468.663 531.135L468.717 531.961C468.907 534.229 469.172 535.905 470.704 537.43L471.027 537.734C472.29 538.85 473.397 539.346 474.95 539.833L475.645 540.043C479.433 540.584 481.541 540.643 484.793 539.673L485.459 539.466C488.426 538.502 490.051 537.21 492.07 535.184L492.964 534.27C495.081 532.077 496.781 529.937 497.461 527.775L497.583 527.342C498.16 525.033 497.583 525.033 497.583 525.033C497.583 523.878 497.586 523.878 497.588 523.878L497.621 523.878C497.634 523.879 497.647 523.88 497.66 523.881C497.688 523.882 497.717 523.885 497.747 523.89C497.808 523.898 497.876 523.912 497.947 523.934C498.091 523.978 498.243 524.053 498.385 524.167C498.678 524.401 498.84 524.724 498.92 525.042Z" fill="#1E1E1E"/>
<path d="M507.907 533.631C508.485 535.258 511.15 543.221 509.874 548.319C508.831 552.488 504.443 557.581 504.443 557.581C504.431 557.567 500.053 552.482 499.012 548.319C497.736 543.221 500.401 535.258 500.979 533.631V525.252H507.907V533.631Z" fill="#1E1E1E"/>
<path d="M500.979 525.252V533.631C500.401 535.258 497.736 543.221 499.011 548.319C500.053 552.48 504.426 557.561 504.443 557.581C504.443 557.581 508.831 552.488 509.874 548.319C511.15 543.221 508.485 535.258 507.907 533.631V525.252H500.979ZM509.061 533.439C509.403 534.421 510.163 536.736 510.717 539.442C511.303 542.308 511.698 545.787 510.994 548.6C510.42 550.893 508.963 553.35 507.721 555.166C507.089 556.089 506.491 556.877 506.052 557.434C505.832 557.714 505.65 557.937 505.523 558.091C505.46 558.167 505.409 558.227 505.374 558.268C505.357 558.288 505.343 558.305 505.334 558.316C505.329 558.322 505.325 558.326 505.322 558.329C505.321 558.33 505.32 558.332 505.319 558.333L505.318 558.334L504.443 559.35L503.568 558.334C503.54 558.302 502.416 556.994 501.16 555.158C499.92 553.343 498.465 550.89 497.892 548.6C497.188 545.787 497.583 542.308 498.169 539.442C498.723 536.736 499.482 534.422 499.824 533.439V524.097H509.061V533.439Z" fill="#1E1E1E"/>
<path d="M526.638 522.146C526.638 522.146 530.54 523.543 531.833 525.61C532.704 527.002 533.059 528.012 532.988 529.651C532.926 531.076 532.707 531.988 531.833 533.115C530.017 535.46 527.235 534.859 524.328 534.27C521.142 533.625 519.559 532.084 517.401 529.651C515.989 528.06 514.514 525.033 514.514 525.033L511.628 525.033C511.628 525.033 511.05 525.033 511.628 527.342C512.205 529.651 513.988 531.931 516.246 534.27C518.722 536.834 520.361 538.364 523.751 539.466C527.396 540.65 529.525 540.62 533.565 540.043C535.5 539.475 536.74 539.009 538.184 537.734C540.003 536.126 540.291 534.38 540.493 531.961C540.685 529.67 540.526 528.156 539.338 526.188C537.917 523.831 536.192 522.967 533.565 522.146C530.983 521.34 526.638 522.146 526.638 522.146Z" fill="#1E1E1E"/>
<path d="M510.289 525.042C510.144 525.621 510.208 526.433 510.506 527.622C511.163 530.254 513.148 532.725 515.414 535.072C517.925 537.673 519.725 539.373 523.392 540.564C525.286 541.179 526.834 541.494 528.455 541.569C530.06 541.642 531.69 541.477 533.726 541.186L533.809 541.174L533.889 541.15C535.879 540.566 537.313 540.042 538.947 538.599C541.126 536.673 541.436 534.518 541.642 532.057C541.741 530.871 541.758 529.804 541.567 528.748C541.374 527.678 540.979 526.676 540.325 525.591C539.532 524.277 538.628 523.34 537.534 522.625C536.461 521.923 535.251 521.463 533.908 521.044C532.397 520.572 530.48 520.59 529.049 520.692C528.313 520.745 527.661 520.824 527.194 520.889C526.961 520.922 526.772 520.952 526.64 520.974C526.574 520.985 526.521 520.993 526.485 521C526.467 521.003 526.452 521.006 526.442 521.008C526.438 521.008 526.434 521.009 526.431 521.01L526.428 521.011L526.425 521.011L522.217 521.792L526.246 523.233L526.252 523.236C526.257 523.238 526.266 523.24 526.278 523.245C526.302 523.254 526.34 523.268 526.389 523.288C526.489 523.326 526.636 523.384 526.817 523.46C527.18 523.613 527.675 523.838 528.205 524.121C529.321 524.717 530.379 525.465 530.852 526.223C531.26 526.875 531.509 527.377 531.656 527.869C531.8 528.352 531.863 528.881 531.832 529.601C531.803 530.271 531.739 530.741 531.611 531.149C531.487 531.544 531.286 531.934 530.919 532.408C530.259 533.26 529.453 533.584 528.426 533.64C527.318 533.699 526.055 533.442 524.556 533.138C521.754 532.57 520.384 531.275 518.263 528.885C517.641 528.184 516.968 527.117 516.43 526.173C516.166 525.711 515.944 525.297 515.789 524.998C515.712 524.849 515.651 524.73 515.61 524.649C515.59 524.608 515.575 524.577 515.565 524.556C515.56 524.546 515.556 524.538 515.554 524.534C515.552 524.531 515.55 524.528 515.55 524.528L515.234 523.878L511.626 523.878L511.626 525.033L514.513 525.033C514.531 525.07 515.996 528.07 517.399 529.651C519.557 532.084 521.14 533.625 524.327 534.27C527.233 534.858 530.016 535.46 531.832 533.115L531.988 532.906C532.731 531.872 532.929 530.987 532.987 529.651L532.995 529.352C533.009 528.08 532.738 527.183 532.134 526.117L531.832 525.61C530.548 523.557 526.688 522.165 526.636 522.146C526.69 522.137 530.998 521.345 533.564 522.146C536.191 522.967 537.916 523.831 539.337 526.188C540.376 527.91 540.628 529.284 540.546 531.135L540.492 531.961C540.302 534.229 540.037 535.905 538.505 537.43L538.182 537.734C536.919 538.85 535.812 539.346 534.259 539.833L533.564 540.043C529.776 540.584 527.668 540.643 524.416 539.673L523.75 539.466C520.783 538.502 519.158 537.21 517.139 535.184L516.245 534.27C514.128 532.077 512.428 529.937 511.748 527.775L511.626 527.342C511.049 525.033 511.626 525.033 511.626 525.033C511.626 523.878 511.621 523.878 511.621 523.878L511.588 523.878C511.575 523.879 511.562 523.88 511.549 523.881C511.521 523.882 511.492 523.885 511.462 523.89C511.401 523.898 511.333 523.912 511.262 523.934C511.118 523.978 510.966 524.053 510.823 524.167C510.531 524.401 510.369 524.724 510.289 525.042Z" fill="#1E1E1E"/>
<path d="M552.495 512.759C552.495 512.759 548.521 503.629 543.652 500.038C540.196 497.488 534.7 495.705 534.7 495.705C534.7 495.705 525.84 494.003 521.422 495.705C517.246 497.313 514.879 499.267 512.763 503.21C511.751 505.094 511.427 506.304 511.031 508.406C510.489 511.286 511.03 515.911 511.03 515.911L514.494 515.911C514.494 515.911 518.924 509.483 523.154 507.251C528.95 504.192 533.518 504.589 539.896 506.096C545.313 507.376 552.495 512.759 552.495 512.759Z" fill="#1E1E1E"/>
<path d="M553.552 512.299L552.494 512.76C553.552 512.299 553.552 512.299 553.552 512.299L553.552 512.297L553.551 512.295C553.55 512.293 553.55 512.292 553.549 512.29C553.547 512.284 553.543 512.277 553.539 512.267C553.53 512.248 553.518 512.22 553.502 512.185C553.47 512.113 553.423 512.009 553.362 511.876C553.24 511.612 553.062 511.232 552.833 510.767C552.375 509.836 551.712 508.557 550.894 507.161C549.28 504.41 546.971 501.052 544.336 499.108C542.498 497.753 540.161 496.627 538.328 495.851C537.404 495.46 536.59 495.151 536.006 494.939C535.714 494.832 535.478 494.75 535.315 494.694C535.234 494.666 535.169 494.645 535.126 494.63C535.104 494.623 535.087 494.617 535.075 494.613C535.069 494.611 535.065 494.609 535.061 494.608L535.056 494.607L534.699 495.704C534.709 495.708 539.86 497.381 543.32 499.8L543.65 500.037C548.52 503.629 552.494 512.76 552.494 512.76C552.494 512.76 545.311 507.376 539.894 506.096L538.718 505.827C532.94 504.553 528.586 504.384 523.152 507.251L522.756 507.472C518.65 509.878 514.493 515.911 514.493 515.911L511.029 515.91C511.026 515.883 510.489 511.278 511.029 508.406C511.376 506.567 511.668 505.411 512.413 503.888L512.761 503.21C514.746 499.513 516.949 497.564 520.658 496.01L521.42 495.704C525.839 494.003 534.699 495.704 534.699 495.704L535.056 494.607L534.987 494.585L534.916 494.571L534.914 494.57C534.913 494.57 534.91 494.57 534.907 494.569C534.902 494.568 534.895 494.567 534.886 494.565C534.868 494.561 534.84 494.557 534.805 494.55C534.735 494.538 534.634 494.519 534.505 494.497C534.246 494.452 533.873 494.391 533.414 494.323C532.495 494.188 531.222 494.024 529.805 493.916C527.037 493.703 523.481 493.674 521.005 494.628C518.839 495.462 517.076 496.411 515.567 497.706C514.055 499.003 512.851 500.601 511.744 502.664C510.657 504.688 510.304 506.022 509.895 508.192C509.598 509.77 509.605 511.758 509.673 513.29C509.708 514.068 509.759 514.754 509.803 515.245C509.825 515.49 509.844 515.688 509.858 515.826C509.866 515.894 509.871 515.948 509.875 515.985L509.882 516.04C509.882 516.041 509.882 516.042 509.882 516.043L509.883 516.045L510.001 517.065L515.099 517.065L515.444 516.566C515.444 516.566 515.444 516.564 515.445 516.563C515.447 516.56 515.45 516.557 515.454 516.552C515.461 516.541 515.473 516.524 515.488 516.502C515.52 516.457 515.567 516.39 515.629 516.304C515.753 516.13 515.938 515.878 516.173 515.567C516.643 514.945 517.312 514.093 518.109 513.174C519.731 511.305 521.778 509.282 523.691 508.272C526.446 506.818 528.869 506.203 531.347 506.115C533.851 506.026 536.465 506.472 539.629 507.22C542.15 507.815 545.169 509.398 547.625 510.894C548.838 511.632 549.885 512.332 550.629 512.847C551.001 513.105 551.297 513.315 551.498 513.461C551.599 513.533 551.675 513.59 551.726 513.628C551.752 513.647 551.771 513.661 551.784 513.67C551.79 513.675 551.795 513.679 551.797 513.681C551.799 513.682 551.8 513.682 551.8 513.683L555.295 516.302L553.552 512.299Z" fill="#1E1E1E"/>
<path d="M504.816 446.445C504.834 446.458 511.838 451.629 515.022 456.083C517.026 458.886 518.26 460.528 519.249 463.828C520.621 468.406 519.868 471.327 519.249 476.065C518.353 482.926 513.699 492.884 513.681 492.923L508.486 504.255V516.015H500.981V503.766C499.417 500.239 497.671 496.21 496.362 492.923C493.769 486.41 491.125 483.013 490.198 476.065C489.566 471.328 488.983 468.397 490.384 463.828C491.394 460.534 492.607 458.886 494.611 456.083C497.799 451.624 504.816 446.445 504.816 446.445Z" fill="#1E1E1E"/>
<path d="M505.502 445.516C505.524 445.532 507.304 446.847 509.485 448.724C511.648 450.585 514.284 453.066 515.961 455.411C517.961 458.208 519.305 459.991 520.355 463.497C521.814 468.366 520.999 471.58 520.394 476.215C519.927 479.787 518.497 484.098 517.214 487.464C515.958 490.759 514.806 493.24 514.73 493.403L509.64 504.507V517.17H499.826V504.009C498.286 500.532 496.578 496.589 495.289 493.35C493.988 490.084 492.753 487.779 491.596 485.118C490.465 482.518 489.535 479.825 489.053 476.217C488.427 471.527 487.793 468.34 489.28 463.49C490.35 459.998 491.667 458.215 493.672 455.411C495.351 453.063 497.992 450.579 500.156 448.717C501.249 447.777 502.239 446.979 502.957 446.416C503.316 446.134 503.608 445.91 503.811 445.756C503.912 445.679 503.991 445.621 504.045 445.58C504.072 445.56 504.093 445.543 504.107 445.533C504.114 445.527 504.12 445.523 504.124 445.52C504.126 445.519 504.128 445.518 504.129 445.517H504.13V445.516H504.131L504.816 445.01L505.502 445.516ZM508.486 516.015V504.255L513.681 492.923C513.706 492.87 518.067 483.533 519.154 476.716L519.249 476.065C519.849 471.475 520.573 468.59 519.371 464.252L519.249 463.828C518.384 460.94 517.33 459.323 515.738 457.086L515.022 456.083C511.844 451.639 504.863 446.479 504.816 446.445C504.816 446.445 497.799 451.624 494.611 456.083L493.895 457.086C492.306 459.324 491.267 460.946 490.384 463.828L490.144 464.666C489.056 468.77 489.605 471.624 490.198 476.065C491.125 483.013 493.769 486.41 496.362 492.923C497.671 496.21 499.417 500.239 500.981 503.766V516.015H508.486Z" fill="#1E1E1E"/>
<circle cx="503.676" cy="500" r="338.04" stroke="#1E1E1E" stroke-width="10"/>
</svg>
