<svg xmlns="http://www.w3.org/2000/svg" width="1000" height="1000" fill="none" xmlns:v="https://vecta.io/nano"><g fill="#1e1e1e"><path d="M596.765 240.126c-13.493 23.401-17.137 51.204-10.13 77.292a101.85 101.85 0 0 0 124.782 71.946 101.85 101.85 0 0 0 61.816-47.49l2.729 1.573a105 105 0 1 1-181.926-104.894l2.729 1.573zm-93.3-58.577c8.742 16.122 21.675 29.586 37.434 38.968a101.86 101.86 0 0 0 52.1 14.333V238a105.01 105.01 0 0 1-92.304-54.949l2.77-1.502zm91.534 582.601c-18.056 0-35.788 4.8-51.378 13.909s-28.479 22.197-37.346 37.925l-2.744-1.546a105 105 0 0 1 38.501-39.1c16.073-9.39 34.353-14.338 52.967-14.338v3.15z"/><path d="M504.666 185.206a105.01 105.01 0 0 1-38.524 39.353A105 105 0 0 1 412.999 239v-3.15a101.86 101.86 0 0 0 51.549-14.008c15.63-9.173 28.53-22.35 37.368-38.172l2.75 1.536zM413.457 761.01c18.368.255 36.348 5.324 52.144 14.702a105.02 105.02 0 0 1 37.874 38.739l-2.745 1.547c-8.747-15.523-21.415-28.481-36.737-37.577a101.86 101.86 0 0 0-50.58-14.261l.044-3.15zm183.332-524.094a101.86 101.86 0 0 0 37.28 37.286c15.485 8.941 33.05 13.648 50.93 13.648V291c-18.433 0-36.542-4.853-52.505-14.07a105 105 0 0 1-38.432-38.439l2.727-1.575z"/><use href="#B"/><path d="M633.479 617.509a105 105 0 0 1 143.011 39.97l-2.745 1.546c-13.254-23.536-35.315-40.845-61.33-48.116s-53.854-3.909-77.391 9.345-40.845 35.315-48.116 61.33-3.909 53.854 9.345 77.391l-2.745 1.546c-13.664-24.265-17.13-52.965-9.634-79.785a105 105 0 0 1 49.605-63.227z"/><path d="M685.853 711.15c-18.177.027-36.016 4.916-51.665 14.162s-28.537 22.512-37.33 38.42l-2.756-1.523c9.064-16.4 22.352-30.076 38.485-39.608A105 105 0 0 1 685.848 708l.005 3.15z"/><use href="#B" x="-183" y="-211"/><path d="M595.059 236.498c-8.948 16.312-22.07 29.954-38.022 39.529s-34.162 14.74-52.766 14.965-36.934-4.496-53.114-13.682a105.01 105.01 0 0 1-38.968-38.598l2.724-1.581a101.85 101.85 0 0 0 89.319 50.712 101.86 101.86 0 0 0 51.184-14.517c15.474-9.288 28.201-22.521 36.881-38.344l2.762 1.516z"/><use href="#B" x="-183"/><use href="#B" x="-183" y="209"/><use href="#B" x="-183" y="104"/><use href="#B" x="-183"/><use href="#B" x="-183" y="-105"/><path d="M503.05 708a105 105 0 0 1 91.853 54.22l-2.757 1.523a101.85 101.85 0 0 0-87.393-52.578l-1.705-.015a101.86 101.86 0 0 0-51.737 14.09c-15.678 9.234-28.597 22.5-37.412 38.417l-2.755-1.526c9.087-16.41 22.405-30.085 38.568-39.605s34.58-14.535 53.338-14.526zm-92.921-470.867a105 105 0 0 1 13.844 39.222c1.953 13.867 1.112 27.985-2.472 41.522a105 105 0 0 1-18.4 37.303c-8.56 11.083-19.25 20.342-31.441 27.232s-25.638 11.271-39.548 12.887-28.002.433-41.448-3.48-25.973-10.474-36.845-19.3a105.03 105.03 0 0 1-26.46-32.094l2.78-1.483c6.394 11.985 15.12 22.569 25.666 31.13s22.697 14.927 35.739 18.722a101.85 101.85 0 0 0 40.205 3.376c13.493-1.567 26.536-5.817 38.361-12.5a101.84 101.84 0 0 0 30.497-26.415c8.303-10.751 14.372-23.054 17.849-36.185s4.292-26.825 2.398-40.275a101.87 101.87 0 0 0-13.429-38.046l2.704-1.616z"/><path d="M410.937 238.491a105 105 0 0 1-37.874 38.113 104.99 104.99 0 0 1-51.769 14.388l-.038-3.15c17.665-.218 34.97-5.027 50.215-13.955a101.85 101.85 0 0 0 36.737-36.97l2.729 1.574z"/><use href="#B" x="-366"/><path d="M293.598 607.914c26.809-7.532 55.513-4.106 79.797 9.524s42.157 36.351 49.69 63.161 4.106 55.513-9.524 79.797l-2.748-1.542c13.222-23.555 16.546-51.398 9.24-77.403s-24.645-48.043-48.2-61.265-51.398-16.546-77.403-9.24-48.043 24.645-61.265 48.2l-2.747-1.542c13.631-24.283 36.35-42.157 63.16-49.69z"/><path d="M322.863 708.017a104.99 104.99 0 0 1 52.005 14.855c15.741 9.408 28.743 22.774 37.713 38.769l-2.747 1.541c-8.701-15.515-21.313-28.48-36.581-37.606s-32.661-14.094-50.446-14.41l.056-3.149zm-91.221-160.155a101.85 101.85 0 0 0 100.702-102.986c-.303-27.01-11.324-52.795-30.637-71.68a101.85 101.85 0 0 0-72.35-29.021l-.035-3.15c27.846-.312 54.676 10.45 74.587 29.919a105 105 0 0 1 1.666 148.483c-19.469 19.911-46.051 31.272-73.897 31.585l-.036-3.15z"/><path d="M228.916 547.856a101.85 101.85 0 0 0 39.59-7.344c12.576-5.058 24.016-12.577 33.649-22.113a101.87 101.87 0 0 0 30.193-72.939c-.074-13.555-2.854-26.959-8.175-39.426a101.87 101.87 0 0 0-22.816-33.178c-9.737-9.43-21.259-16.822-33.89-21.742a101.84 101.84 0 0 0-39.667-6.909l-.085-3.15a105.02 105.02 0 0 1 40.896 7.124 105 105 0 0 1 34.938 22.415c10.038 9.722 18.035 21.35 23.521 34.203a104.99 104.99 0 0 1 8.428 40.645c.077 13.974-2.637 27.824-7.981 40.736a105.01 105.01 0 0 1-23.145 34.459c-9.931 9.832-21.725 17.582-34.691 22.797a105 105 0 0 1-40.813 7.572l.048-3.15z"/><path d="M360.999 254.05c-48.307 27.89-64.859 89.661-36.968 137.968s89.661 64.859 137.968 36.969 64.859-89.661 36.969-137.969l3.464-2c28.995 50.221 11.788 114.438-38.433 143.433s-114.437 11.788-143.432-38.433-11.788-114.437 38.432-143.432 114.438-11.788 143.433 38.432l-3.464 2c-27.89-48.307-89.661-64.859-137.969-36.968z"/><path d="M509.17 300.904a105.01 105.01 0 0 1-18.105-36.751 105.02 105.02 0 0 1-2.662-40.883c1.805-13.67 6.286-26.851 13.185-38.789l2.727 1.576c-6.692 11.58-11.038 24.365-12.79 37.625s-.873 26.735 2.584 39.656a101.85 101.85 0 0 0 17.561 35.649 101.86 101.86 0 0 0 29.867 26.215 101.87 101.87 0 0 0 37.625 12.79c13.259 1.752 26.736.873 39.656-2.584a101.86 101.86 0 0 0 61.864-47.428l2.727 1.576c-6.899 11.938-16.082 22.401-27.025 30.791a105.01 105.01 0 0 1-36.751 18.105c-13.321 3.563-27.212 4.467-40.883 2.662a105 105 0 0 1-38.789-13.185 105.02 105.02 0 0 1-30.791-27.025zM269.5 517.033c-48.308 27.89-64.859 89.661-36.969 137.968S322.192 719.86 370.5 691.97s64.858-89.661 36.968-137.969l3.464-2c28.995 50.221 11.788 114.438-38.432 143.433s-114.438 11.788-143.433-38.433-11.788-114.438 38.433-143.433 114.437-11.788 143.432 38.433l-3.464 2c-27.89-48.307-89.661-64.859-137.968-36.968zm182.999-104.501c-48.307 27.891-64.859 89.661-36.968 137.969s89.661 64.859 137.968 36.969 64.859-89.661 36.969-137.969l3.464-2c28.995 50.221 11.788 114.438-38.433 143.433s-114.437 11.788-143.432-38.433-11.788-114.438 38.432-143.433 114.438-11.788 143.433 38.433l-3.464 2c-27.89-48.308-89.661-64.859-137.969-36.969z"/><path d="M635.498 307.033c-48.307 27.89-64.858 89.661-36.968 137.968s89.661 64.859 137.968 36.969 64.859-89.661 36.969-137.969l3.464-2c28.995 50.221 11.788 114.438-38.433 143.433s-114.437 11.788-143.432-38.433-11.788-114.438 38.432-143.433 114.438-11.788 143.433 38.433l-3.464 2c-27.89-48.307-89.661-64.859-137.969-36.968zM322.409 710.757a105.01 105.01 0 0 1 38.339-38.561 105 105 0 0 1 52.486-14.212c18.44-.047 36.567 4.764 52.558 13.947a105 105 0 0 1 38.533 38.367l-2.725 1.58c-8.976-15.472-21.867-28.308-37.377-37.216a101.86 101.86 0 0 0-50.981-13.528c-17.886.045-35.446 4.8-50.912 13.786s-28.291 21.887-37.188 37.405l-2.733-1.568z"/><path d="M695.5 658.484c0-55.781-45.219-101-101-101s-101 45.219-101 101 45.219 101 101 101v4c-57.99 0-105-47.01-105-105s47.01-105 105-105 105 47.01 105 105-47.01 105-105 105v-4c55.781 0 101-45.22 101-101z"/><path d="M774.498 555.634a101.85 101.85 0 0 0-51.233 13.823l-1.451.86c-14.906 9.01-27.262 21.698-35.875 36.859-8.89 15.65-13.474 33.376-13.286 51.374a101.85 101.85 0 0 0 14.359 51.085l-2.705 1.613c-9.501-15.938-14.609-34.11-14.803-52.665a104.99 104.99 0 0 1 13.697-52.964c9.165-16.134 22.442-29.551 38.479-38.885a105 105 0 0 1 52.818-14.251v3.151zm2.103 104.998a101.85 101.85 0 0 0-49.953 13.033c-15.256 8.562-28.049 20.909-37.147 35.851l-2.69-1.638a105 105 0 0 1 38.295-36.96c15.727-8.827 33.463-13.454 51.498-13.436l-.003 3.15zM229.179 552.509a105 105 0 0 1 53.576 13.341c16.349 9.146 29.953 22.5 39.401 38.677a104.99 104.99 0 0 1 14.332 53.32c-.064 18.734-5.14 37.109-14.7 53.22l-2.709-1.608a101.84 101.84 0 0 0 14.26-51.623c.063-18.171-4.737-36.029-13.902-51.721a101.84 101.84 0 0 0-38.22-37.516 101.86 101.86 0 0 0-51.969-12.941l-.069-3.149zm92.237-262.515c-9.216 15.959-22.472 29.211-38.432 38.425s-34.065 14.064-52.494 14.064v-3.15c17.876 0 35.438-4.704 50.92-13.642s28.338-21.792 37.278-37.272l2.728 1.575zm366.088-.208a101.85 101.85 0 0 0 87.355 50.545l-.019 3.151c-18.245-.113-36.145-4.978-51.937-14.116a105 105 0 0 1-38.121-37.993l2.722-1.587z"/><path d="M670.499 553.984a105 105 0 0 1 29.837-73.319l.917-.927c19.691-19.692 46.398-30.754 74.246-30.754v3.15c-27.012 0-52.918 10.731-72.019 29.831l-.889.901a101.85 101.85 0 0 0-28.942 71.118l.008 1.265a101.85 101.85 0 0 0 101.842 100.584v3.151a105 105 0 0 1-74.246-30.754c-19.384-19.384-30.407-45.565-30.746-72.942l-.008-1.304zM230.305 443.368a101.85 101.85 0 0 0 88.593-152.439l2.734-1.563c9.146 15.982 13.929 34.088 13.867 52.503a104.99 104.99 0 0 1-13.363 50.91l-.854 1.499a105 105 0 0 1-38.5 38.298 104.99 104.99 0 0 1-52.483 13.941l.006-3.149z"/><path d="M464.999 328.95a105 105 0 0 1-78.414 10.82l-1.262-.33c-26.899-7.208-49.833-24.806-63.757-48.922l2.729-1.576a101.85 101.85 0 0 0 61.843 47.455l1.225.32a101.85 101.85 0 0 0 76.061-10.495l1.092-.64a101.85 101.85 0 0 0 46.362-61.204 101.84 101.84 0 0 0-10.175-77.285l2.729-1.575c13.924 24.116 17.697 52.777 10.489 79.676a105 105 0 0 1-48.922 63.756zm-236.75 328.098a101.85 101.85 0 0 0 14.601-52.75c-.037-18.586-5.159-36.809-14.812-52.692l2.693-1.636a105.01 105.01 0 0 1 15.27 54.322c.038 19.161-5.169 37.968-15.055 54.382l-2.697-1.626z"/><path d="M452.499 308.032C404.191 335.922 387.64 397.693 415.53 446s89.661 64.859 137.969 36.969S618.358 393.308 590.468 345l3.464-2c28.995 50.221 11.788 114.438-38.433 143.433S441.061 498.221 412.066 448s-11.788-114.437 38.433-143.432S564.937 292.78 593.932 343l-3.464 2c-27.891-48.307-89.661-64.859-137.969-36.968zM232.18 657.983c18.429-.056 36.549 4.739 52.538 13.904a105 105 0 0 1 38.548 38.309l-2.722 1.584c-8.987-15.453-21.884-28.269-37.393-37.159s-33.084-13.542-50.961-13.488l-.01-3.15z"/><path d="M360 571.014c-48.307 27.891-64.859 89.661-36.968 137.969S412.693 773.842 461 745.952s64.859-89.662 36.969-137.969l3.464-2c28.995 50.221 11.788 114.438-38.433 143.433s-114.438 11.788-143.433-38.433S307.779 596.545 358 567.55s114.438-11.788 143.433 38.433l-3.464 2c-27.891-48.308-89.661-64.859-137.969-36.969zm184.999-105.5c-48.307 27.891-64.859 89.661-36.968 137.969s89.661 64.859 137.968 36.969 64.859-89.661 36.969-137.969l3.464-2c28.995 50.221 11.788 114.438-38.433 143.433s-114.438 11.788-143.433-38.433-11.788-114.438 38.433-143.433 114.438-11.788 143.433 38.433l-3.464 2c-27.891-48.308-89.661-64.859-137.969-36.969z"/><use href="#C"/><use href="#C" x="-183" y="107"/><use href="#C" x="-185"/><path d="M644.999 254.049c-48.308-27.891-110.078-11.339-137.969 36.968s-11.339 110.078 36.969 137.969 110.078 11.339 137.969-36.969l3.464 2c-28.995 50.221-93.212 67.428-143.433 38.433s-67.428-93.212-38.433-143.433 93.212-67.427 143.433-38.432 67.428 93.212 38.433 143.432l-3.464-2c27.89-48.307 11.339-110.078-36.969-137.968z"/><path d="M670.504 444.983c.274-27.846 11.6-54.444 31.484-73.941a105 105 0 0 1 74.545-30.019l-.03 3.15a101.85 101.85 0 0 0-72.31 29.119c-19.288 18.911-30.273 44.71-30.539 71.721s10.208 53.022 29.119 72.31a101.85 101.85 0 0 0 71.721 30.539l-.03 3.15a105 105 0 0 1-73.94-31.484c-19.496-19.884-30.295-46.699-30.02-74.545zM370.5 307.031c-48.308-27.891-110.078-11.339-137.969 36.968S221.192 454.078 269.5 481.968s110.078 11.339 137.968-36.969l3.465 2c-28.995 50.221-93.212 67.428-143.433 38.433s-67.428-93.212-38.433-143.433 93.212-67.427 143.433-38.432 67.428 93.212 38.433 143.432l-3.465-2c27.891-48.307 11.339-110.078-36.968-137.968zm182.999 105.5c-48.307-27.891-110.078-11.339-137.968 36.968s-11.339 110.079 36.968 137.969 110.078 11.339 137.969-36.969l3.464 2c-28.995 50.221-93.212 67.428-143.433 38.433s-67.427-93.212-38.432-143.433 93.212-67.427 143.432-38.432 67.428 93.212 38.433 143.432l-3.464-2c27.89-48.307 11.339-110.078-36.969-137.968z"/><path d="M735.499 518.031c-48.308-27.891-110.078-11.339-137.969 36.968s-11.339 110.079 36.969 137.969 110.078 11.339 137.969-36.969l3.464 2c-28.995 50.221-93.212 67.428-143.433 38.433s-67.428-93.212-38.433-143.433 93.212-67.427 143.433-38.432 67.428 93.212 38.433 143.432l-3.464-2c27.89-48.307 11.339-110.078-36.969-137.968z"/><path d="M777.855 557.092a101.85 101.85 0 0 0-11.675 49.924c.429 17.364 5.291 34.331 14.126 49.286l-2.712 1.602c-9.108-15.418-14.121-32.909-14.563-50.811s3.701-35.619 12.036-51.468l2.788 1.467zm.053-107.715c-8.705 15.001-13.436 31.976-13.744 49.318a101.86 101.86 0 0 0 11.987 49.773l-2.779 1.483a105.01 105.01 0 0 1-12.357-51.312c.317-17.877 5.194-35.378 14.168-50.843l2.725 1.581zm-547.082.181a105.02 105.02 0 0 1 13.185 50.668 105 105 0 0 1-12.922 50.736l-2.762-1.513c8.266-15.083 12.578-32.015 12.534-49.215a101.86 101.86 0 0 0-12.789-49.148l2.754-1.528zm547.447-108.597l2.692 1.637c-9.192 15.122-14.285 32.378-14.778 50.068a101.86 101.86 0 0 0 11.97 50.813l-2.778 1.484a105 105 0 0 1-12.34-52.385c.508-18.237 5.758-36.027 15.234-51.617zm-548.324-1.274c10.116 16.121 15.662 34.688 16.041 53.716s-4.42 37.803-13.885 54.315l-2.733-1.567c9.182-16.016 13.837-34.227 13.468-52.684a101.85 101.85 0 0 0-15.559-52.106l2.668-1.674z"/><path d="M228.445 447.988a105 105 0 0 1 74.552 30.005c19.888 19.493 31.218 46.088 31.498 73.934a105 105 0 0 1-103.939 106.05l-.031-3.15a101.85 101.85 0 0 0 100.82-102.868c-.271-27.011-11.262-52.809-30.554-71.716a101.85 101.85 0 0 0-72.314-29.106l-.032-3.149zm263.35 287.082a105 105 0 0 1 17.825-36.888c8.306-11.006 18.699-20.269 30.585-27.259a105 105 0 0 1 38.687-13.48 105.01 105.01 0 0 1 77.79 20.177c11.006 8.306 20.269 18.699 27.259 30.585l-2.716 1.596c-6.78-11.529-15.765-21.61-26.44-29.667a101.87 101.87 0 0 0-35.782-17.29c-12.947-3.358-26.428-4.133-39.675-2.281a101.83 101.83 0 0 0-37.527 13.076 101.85 101.85 0 0 0-29.667 26.44c-8.057 10.676-13.932 22.835-17.29 35.782a101.85 101.85 0 0 0-2.282 39.674c1.853 13.246 6.296 25.999 13.076 37.528l-2.715 1.596c-6.99-11.886-11.571-25.032-13.48-38.688s-1.11-27.554 2.352-40.901zM845.999 501c0-189.434-153.566-343-343-343s-343 153.566-343 343 153.566 343 343 343v7c-193.3 0-350-156.7-350-350s156.7-350 350-350 350 156.7 350 350-156.7 350-350 350v-7c189.434 0 343-153.566 343-343zm-13-1c0-182.254-147.746-330-330-330s-330 147.746-330 330 147.746 330 330 330v5c-185.016 0-335-149.985-335-335s149.984-335 335-335 335 149.985 335 335-149.985 335-335 335v-5c182.254 0 330-147.746 330-330z"/><path d="M817.999 499c0-173.97-141.03-315-315-315s-315 141.03-315 315 141.03 315 315 315v5c-176.731 0-320-143.269-320-320s143.269-320 320-320 320 143.269 320 320-143.269 320-320 320v-5c173.97 0 315-141.03 315-315z"/></g><path d="M616.34 445.432c-7.353-7.546-14.645-15.848-5.077-49.43-33.632 9.393-41.072 3.006-48.58-4.386-30.502-36.385-51.392-10.985-53.293-8.307-2.123 2.993-4.169 7.769-4.267 11.147l-.115 3.941-1.384-.245-.114-3.941c-.098-3.378-2.145-8.154-4.268-11.146-1.9-2.679-22.79-28.079-53.292 8.307-7.508 7.391-14.947 13.778-48.579 4.385 9.568 33.583 2.275 41.884-5.078 49.43-36.226 30.691-10.718 51.449-8.03 53.335 3.004 2.108 7.79 4.13 11.169 4.21l3.942.094v.213l-3.942.094c-3.379.08-8.165 2.102-11.169 4.21-2.688 1.886-28.196 22.644 8.03 53.335 7.353 7.546 14.646 15.848 5.078 49.43 33.632-9.393 41.071-3.006 48.579 4.385 30.502 36.385 51.392 10.986 53.292 8.307 2.123-2.992 3.774-9.94 3.872-13.318h.563l-.448 2.172c.098 3.378 2.145 8.154 4.268 11.146 1.901 2.679 22.791 28.079 53.293-8.307 7.508-7.391 14.947-13.778 48.579-4.385-9.568-33.582-2.276-41.884 5.077-49.43 36.226-30.691 10.719-51.449 8.03-53.335-3.003-2.108-7.79-4.13-11.168-4.21l-3.942-.094 1.86-.062h3.976c3.378-.08 8.165-2.102 11.168-4.21 2.689-1.886 28.196-22.644-8.03-53.335z" fill="#16ddeb"/><g fill="#1e1e1e"><path d="M443.473 389.064c15.724-18.694 29.728-22.295 40.606-19.788 10.455 2.409 16.772 10.216 17.918 11.833.85 1.198 1.664 2.607 2.377 4.089.684-1.392 1.455-2.712 2.258-3.844 1.147-1.616 7.464-9.425 17.919-11.834 10.879-2.506 24.881 1.096 40.604 19.788 3.607 3.546 6.739 6.338 12.659 7.477 6.225 1.197 15.881.614 32.538-4.039l5.813-1.624-1.653 5.806c-4.724 16.58-5.129 26.421-3.753 32.844 1.324 6.176 4.355 9.554 7.901 13.198 18.611 15.82 22.139 29.842 19.577 40.707-2.464 10.443-10.305 16.718-11.927 17.856-1.026.72-2.206 1.413-3.452 2.039a25.25 25.25 0 0 1 1.559 1.004c1.622 1.139 9.462 7.415 11.925 17.857 2.563 10.865-.966 24.885-19.577 40.705-3.546 3.644-6.577 7.023-7.9 13.199-1.376 6.424-.971 16.265 3.753 32.845l1.653 5.804-5.813-1.622c-16.658-4.653-26.314-5.236-32.539-4.039-5.919 1.138-9.05 3.93-12.657 7.476-15.724 18.693-29.726 22.294-40.604 19.788-10.455-2.409-16.771-10.217-17.918-11.833-.496-.699-.979-1.47-1.438-2.284-.396.836-.83 1.614-1.305 2.284-1.146 1.616-7.463 9.424-17.918 11.833-10.878 2.506-24.881-1.095-40.606-19.79-3.606-3.545-6.737-6.336-12.656-7.474-6.225-1.197-15.88-.614-32.537 4.039l-5.815 1.622 1.655-5.804c4.724-16.58 5.128-26.421 3.751-32.845-1.323-6.176-4.353-9.555-7.9-13.199-18.61-15.82-22.14-29.84-19.577-40.705 2.463-10.443 10.305-16.718 11.927-17.857a26.75 26.75 0 0 1 2.691-1.644c-.965-.519-1.877-1.071-2.691-1.643-1.622-1.138-9.463-7.414-11.927-17.857-2.562-10.865.966-24.887 19.577-40.708 3.546-3.643 6.577-7.021 7.9-13.197 1.377-6.423.973-16.264-3.751-32.845l-1.655-5.804 5.815 1.624c16.657 4.652 26.312 5.234 32.537 4.037 5.919-1.138 9.05-3.93 12.656-7.475zm39.088-13.202c-7.641-1.76-19.292.108-34.023 17.681l-.103.124-.116.113c-3.857 3.798-8.196 7.854-16.225 9.398-6.874 1.322-16.17.755-29.953-2.666 3.459 13.854 3.857 23.351 2.34 30.432-1.757 8.199-6.005 12.74-9.768 16.602l-.112.116-.124.104c-17.495 14.822-19.304 26.483-17.504 34.115 1.906 8.08 8.163 13.126 9.23 13.875 1.256.881 2.959 1.791 4.732 2.484 1.808.706 3.436 1.086 4.575 1.113l7.242.173v6.813l-7.242.173c-1.139.027-2.767.408-4.575 1.114-1.772.692-3.476 1.602-4.732 2.483-1.066.749-7.324 5.795-9.23 13.875-1.772 7.512-.048 18.929 16.695 33.422l.809.693.124.104.112.116c3.763 3.863 8.011 8.404 9.768 16.603 1.517 7.08 1.119 16.576-2.34 30.429 13.783-3.421 23.079-3.986 29.953-2.664 8.029 1.544 12.368 5.6 16.225 9.397l.116.114.103.124c14.731 17.572 26.382 19.441 34.023 17.68 8.09-1.864 13.169-8.094 13.924-9.157.705-.994 1.525-3.003 2.191-5.448.65-2.385 1.02-4.685 1.058-6.014l.096-3.281h7.994l-1.196 5.796c.091 1.112.47 2.597 1.117 4.228.701 1.769 1.62 3.467 2.508 4.719.754 1.063 5.833 7.293 13.922 9.157 7.641 1.761 19.292-.108 34.023-17.68l.105-.123.114-.114c3.858-3.797 8.197-7.854 16.226-9.398 6.875-1.322 16.17-.755 29.952 2.666-3.459-13.854-3.856-23.35-2.339-30.431 1.757-8.199 6.005-12.74 9.769-16.603l.112-.116.123-.104c17.496-14.822 19.304-26.483 17.504-34.115-1.906-8.08-8.163-13.126-9.23-13.875-1.256-.881-2.959-1.791-4.732-2.483-1.808-.706-3.436-1.087-4.576-1.114l-3.942-.094-.032-6.757 1.861-.062.056-.002h3.97c1.139-.031 2.758-.411 4.557-1.113 1.772-.692 3.476-1.602 4.731-2.483 1.067-.749 7.325-5.796 9.231-13.876 1.8-7.632-.008-19.293-17.504-34.114l-.123-.105-.113-.115c-3.764-3.863-8.011-8.404-9.768-16.603-1.517-7.081-1.12-16.578 2.34-30.432-13.783 3.421-23.078 3.988-29.953 2.666-8.029-1.544-12.369-5.6-16.227-9.398l-.114-.113-.105-.123c-14.731-17.573-26.382-19.441-34.023-17.68-8.089 1.864-13.168 8.094-13.922 9.157-.888 1.251-1.807 2.95-2.508 4.719-.716 1.804-1.105 3.43-1.138 4.57l-.227 7.854-7.948-1.408-.195-6.692c-.033-1.139-.422-2.764-1.137-4.569-.702-1.768-1.621-3.468-2.508-4.719-.755-1.064-5.834-7.294-13.924-9.158zm10.335 141.308h25.402v5.773h-25.402v-5.773z"/><path d="M607.882 503.586c0-57.551-46.655-104.205-104.206-104.205s-104.205 46.654-104.205 104.205 46.654 104.206 104.205 104.206v4.506c-60.039 0-108.711-48.672-108.711-108.712s48.672-108.711 108.711-108.711 108.712 48.672 108.712 108.711-48.672 108.712-108.712 108.712v-4.506c57.551 0 104.206-46.655 104.206-104.206z"/><path d="M539.691 470.214l3.98-2.114-38.303-72.099-3.979 2.114 38.302 72.099z"/><path d="M469.119 468.895l-3.976-2.12 38.17-71.569 3.976 2.121-38.17 71.568z"/><path d="M469.179 468.7l-2.114-3.979-72.099 38.302 2.114 3.98 72.099-38.303z"/><path d="M468.13 537.65c1.096.588 1.508 1.954.92 3.05s-1.952 1.509-3.049.922l-69.916-37.476 2.13-3.971 69.915 37.475z"/><path d="M468.789 538.085l-3.979 2.114 38.302 72.099 3.98-2.114-38.303-72.099z"/><path d="M538.576 538.059l3.965 2.14-38.302 70.972-3.966-2.14 38.303-70.972z"/><path d="M538.175 538.473l2.114 3.979 72.099-38.302-2.115-3.98-72.098 38.303z"/><path d="M539.299 469.825l2.117-3.978 69.846 37.176-2.117 3.978-69.846-37.176z"/><path d="M578.296 429.566v149.167H429.129V429.566h149.167zM438.169 569.693h131.086V438.607H438.169v131.086zm18.459-56.829s3.974-9.13 8.843-12.722c3.456-2.549 8.952-4.333 8.952-4.333s8.86-1.701 13.278 0c4.176 1.608 6.543 3.562 8.66 7.505 1.011 1.885 1.335 3.094 1.731 5.196.542 2.88.001 7.505.001 7.505h-3.464s-4.43-6.428-8.66-8.66c-5.796-3.058-10.364-2.661-16.742-1.155-5.417 1.28-12.599 6.664-12.599 6.664z"/><path d="M455.571 512.403l1.058.461-1.058-.461.001-.001v-.003l.012-.028.037-.082.14-.308.529-1.11 1.94-3.606c1.613-2.751 3.922-6.108 6.557-8.052 1.838-1.356 4.175-2.481 6.008-3.257.924-.392 1.738-.701 2.322-.913l.691-.245.19-.063c.021-.008.038-.013.05-.017l.019-.007.357 1.098c-.01.003-5.161 1.676-8.621 4.096l-.33.236c-4.87 3.592-8.844 12.723-8.844 12.723s7.183-5.383 12.6-6.663l1.176-.27c5.778-1.274 10.132-1.443 15.566 1.424l.396.221c4.106 2.406 8.263 8.439 8.263 8.439h3.464c.004-.028.54-4.633 0-7.505-.347-1.839-.639-2.995-1.384-4.518l-.348-.678c-1.985-3.696-4.188-5.645-7.897-7.199l-.762-.306c-4.419-1.702-13.279 0-13.279 0l-.357-1.098.069-.022.071-.014.002-.001c.012-.001.019-.003.028-.005l.081-.014.3-.054 1.091-.173a52.59 52.59 0 0 1 3.609-.408c2.768-.213 6.324-.241 8.8.712 2.166.834 3.929 1.783 5.438 3.078s2.716 2.895 3.823 4.958c1.087 2.025 1.44 3.359 1.849 5.528.297 1.578.29 3.566.222 5.098-.035.779-.086 1.464-.13 1.955l-.055.581-.017.16-.007.054-.001.005-.118 1.021h-5.098l-.345-.5-.044-.064-.141-.198-.544-.737a45.94 45.94 0 0 0-1.936-2.392c-1.621-1.87-3.669-3.893-5.582-4.903-2.755-1.453-5.178-2.068-7.656-2.156-2.504-.09-5.118.357-8.282 1.104-2.521.596-5.54 2.179-7.996 3.674-1.213.738-2.26 1.439-3.004 1.954l-.869.613-.228.167-.058.043-.016.012-3.495 2.619 1.743-4.003zm27.004 9.743s-3.903 1.397-5.196 3.464c-.87 1.392-1.225 2.402-1.154 4.041.062 1.425.281 2.337 1.154 3.464 1.816 2.345 4.599 1.744 7.505 1.155 3.187-.645 4.77-2.186 6.928-4.619 1.412-1.591 2.887-4.618 2.887-4.618h2.886s.577 0 0 2.309-2.36 4.589-4.618 6.928c-2.476 2.564-4.115 4.094-7.505 5.196-3.645 1.184-5.774 1.154-9.814.577-1.935-.568-3.175-1.034-4.619-2.309-1.82-1.608-2.107-3.354-2.309-5.773-.192-2.291-.033-3.805 1.154-5.773 1.422-2.357 3.147-3.221 5.774-4.042 2.582-.806 6.927 0 6.927 0z"/><path d="M498.92 525.042c.145.579.081 1.391-.217 2.58-.657 2.632-2.642 5.103-4.908 7.45-2.511 2.601-4.311 4.301-7.978 5.492-1.895.615-3.442.93-5.063 1.005-1.605.073-3.235-.092-5.271-.383l-.083-.012-.08-.024c-1.99-.584-3.424-1.108-5.058-2.551-2.18-1.926-2.489-4.081-2.695-6.542-.099-1.186-.116-2.253.075-3.309.193-1.07.588-2.072 1.242-3.157.793-1.314 1.697-2.251 2.791-2.966 1.073-.702 2.283-1.162 3.626-1.581 1.511-.472 3.428-.454 4.859-.352l1.855.197.554.085.155.026.043.008.017.003 4.208.781-4.029 1.441-.006.003c-.005.002-.014.004-.026.009l-.111.043-.428.172-1.388.661c-1.117.596-2.174 1.344-2.647 2.102-.408.652-.657 1.154-.804 1.646-.145.483-.207 1.012-.176 1.732.029.67.093 1.14.221 1.548.124.395.325.785.692 1.259.66.852 1.466 1.176 2.493 1.232 1.108.059 2.371-.198 3.87-.502 2.802-.568 4.172-1.863 6.293-4.253.622-.701 1.295-1.768 1.833-2.712l.641-1.175.179-.349.045-.093.011-.022.004-.007.316-.649h3.608v1.155h-2.887c-.018.037-1.484 3.037-2.886 4.618-2.158 2.433-3.741 3.974-6.928 4.619-2.906.588-5.689 1.19-7.505-1.155l-.156-.209c-.743-1.034-.941-1.919-.999-3.255l-.008-.299c-.014-1.272.257-2.169.861-3.235l.302-.507c1.284-2.053 5.144-3.445 5.196-3.464-.054-.009-4.362-.801-6.928 0-2.627.821-4.352 1.685-5.773 4.042-1.039 1.722-1.291 3.096-1.209 4.947l.054.826c.19 2.268.455 3.944 1.987 5.469l.323.304c1.263 1.116 2.37 1.612 3.923 2.099l.695.21c3.788.541 5.896.6 9.148-.37l.666-.207c2.967-.964 4.592-2.256 6.611-4.282l.894-.914c2.117-2.193 3.817-4.333 4.497-6.495l.122-.433c.577-2.309 0-2.309 0-2.309l.005-1.155h.033l.039.003c.028.001.057.004.087.009.061.008.129.022.2.044.144.044.296.119.438.233.293.234.455.557.535.875zm8.987 8.589c.578 1.627 3.243 9.59 1.967 14.688-1.043 4.169-5.431 9.262-5.431 9.262-.012-.014-4.39-5.099-5.431-9.262-1.276-5.098 1.389-13.061 1.967-14.688v-8.379h6.928v8.379z"/><path d="M500.979 525.252v8.379c-.578 1.627-3.243 9.59-1.968 14.688 1.042 4.161 5.415 9.242 5.432 9.262 0 0 4.388-5.093 5.431-9.262 1.276-5.098-1.389-13.061-1.967-14.688v-8.379h-6.928zm8.082 8.187c.342.982 1.102 3.297 1.656 6.003.586 2.866.981 6.345.277 9.158-.574 2.293-2.031 4.75-3.273 6.566a42.49 42.49 0 0 1-1.669 2.268l-.529.657-.149.177-.04.048c-.013.014-.014.016-.015.017l-.001.001-.875 1.016-.875-1.016c-.028-.032-1.152-1.34-2.408-3.176-1.24-1.815-2.695-4.268-3.268-6.558-.704-2.813-.309-6.292.277-9.158.554-2.706 1.313-5.02 1.655-6.003v-9.342h9.237v9.342zm17.577-11.293s3.902 1.397 5.195 3.464c.871 1.392 1.226 2.402 1.155 4.041-.062 1.425-.281 2.337-1.155 3.464-1.816 2.345-4.598 1.744-7.505 1.155-3.186-.645-4.769-2.186-6.927-4.619-1.412-1.591-2.887-4.618-2.887-4.618h-2.886s-.578 0 0 2.309 2.36 4.589 4.618 6.928c2.476 2.564 4.115 4.094 7.505 5.196 3.645 1.184 5.774 1.154 9.814.577 1.935-.568 3.175-1.034 4.619-2.309 1.819-1.608 2.107-3.354 2.309-5.773.192-2.291.033-3.805-1.155-5.773-1.421-2.357-3.146-3.221-5.773-4.042-2.582-.806-6.927 0-6.927 0z"/><path d="M510.289 525.042c-.145.579-.081 1.391.217 2.58.657 2.632 2.642 5.103 4.908 7.45 2.511 2.601 4.311 4.301 7.978 5.492 1.894.615 3.442.93 5.063 1.005 1.605.073 3.235-.092 5.271-.383l.083-.012.08-.024c1.99-.584 3.424-1.108 5.058-2.551 2.179-1.926 2.489-4.081 2.695-6.542.099-1.186.116-2.253-.075-3.309-.193-1.07-.588-2.072-1.242-3.157-.793-1.314-1.697-2.251-2.791-2.966-1.073-.702-2.283-1.162-3.626-1.581-1.511-.472-3.428-.454-4.859-.352l-1.855.197-.554.085-.155.026-.043.008-.014.003h-.003l-4.208.781 4.029 1.441.006.003c.005.002.014.004.026.009l.111.043.428.172 1.388.661c1.116.596 2.174 1.344 2.647 2.102.408.652.657 1.154.804 1.646.144.483.207 1.012.176 1.732-.029.67-.093 1.14-.221 1.548-.124.395-.325.785-.692 1.259-.66.852-1.466 1.176-2.493 1.232-1.108.059-2.371-.198-3.87-.502-2.802-.568-4.172-1.863-6.293-4.253-.622-.701-1.295-1.768-1.833-2.712l-.641-1.175-.179-.349-.045-.093-.011-.022-.32-.656h-3.608v1.155h2.887c.018.037 1.483 3.037 2.886 4.618 2.158 2.433 3.741 3.974 6.928 4.619 2.906.588 5.689 1.19 7.505-1.155l.156-.209c.743-1.034.941-1.919.999-3.255l.008-.299c.014-1.272-.257-2.169-.861-3.235l-.302-.507c-1.284-2.053-5.144-3.445-5.196-3.464.054-.009 4.362-.801 6.928 0 2.627.821 4.352 1.685 5.773 4.042 1.039 1.722 1.291 3.096 1.209 4.947l-.054.826c-.19 2.268-.455 3.944-1.987 5.469l-.323.304c-1.263 1.116-2.37 1.612-3.923 2.099l-.695.21c-3.788.541-5.896.6-9.148-.37l-.666-.207c-2.967-.964-4.592-2.256-6.611-4.282l-.894-.914c-2.117-2.193-3.817-4.333-4.497-6.495l-.122-.433c-.577-2.309 0-2.309 0-2.309l-.005-1.155h-.033l-.039.003c-.028.001-.057.004-.087.009-.061.008-.129.022-.2.044a1.33 1.33 0 0 0-.439.233c-.292.234-.454.557-.534.875zm42.206-12.283s-3.974-9.13-8.843-12.721c-3.456-2.55-8.952-4.333-8.952-4.333s-8.86-1.702-13.278 0c-4.176 1.608-6.543 3.562-8.659 7.505-1.012 1.884-1.336 3.094-1.732 5.196-.542 2.88-.001 7.505-.001 7.505h3.464s4.43-6.428 8.66-8.66c5.796-3.059 10.364-2.662 16.742-1.155 5.417 1.28 12.599 6.663 12.599 6.663z"/><path d="M553.552 512.299l-1.058.461 1.058-.461v-.002l-.001-.002c-.004-.011-.008-.018-.012-.028l-.037-.082-.14-.309-.529-1.109-1.939-3.606c-1.614-2.751-3.923-6.109-6.558-8.053-1.838-1.355-4.175-2.481-6.008-3.257a48.39 48.39 0 0 0-2.322-.912l-.691-.245-.189-.064-.051-.017-.019-.006-.357 1.097c.01.004 5.161 1.677 8.621 4.096l.33.237c4.87 3.592 8.844 12.723 8.844 12.723s-7.183-5.384-12.6-6.664l-1.176-.269c-5.778-1.274-10.132-1.443-15.566 1.424l-.396.221c-4.106 2.406-8.263 8.439-8.263 8.439l-3.464-.001c-.003-.027-.54-4.632 0-7.504.347-1.839.639-2.995 1.384-4.518l.348-.678c1.985-3.697 4.188-5.646 7.897-7.2l.762-.306c4.419-1.701 13.279 0 13.279 0l.357-1.097-.069-.022-.071-.014-.002-.001c-.012-.002-.019-.003-.028-.005-.018-.004-.046-.008-.081-.015l-.3-.053-1.091-.174c-.919-.135-2.192-.299-3.609-.407-2.768-.213-6.324-.242-8.8.712-2.166.834-3.929 1.783-5.438 3.078s-2.716 2.895-3.823 4.958c-1.087 2.024-1.44 3.358-1.849 5.528-.297 1.578-.29 3.566-.222 5.098.035.778.086 1.464.13 1.955l.055.581.017.159.007.055.001.005.118 1.02h5.098l.345-.499.044-.064.141-.198a34.47 34.47 0 0 1 .544-.737c.47-.622 1.139-1.474 1.936-2.393 1.622-1.869 3.669-3.892 5.582-4.902 2.755-1.454 5.178-2.069 7.656-2.157 2.504-.089 5.118.357 8.282 1.105 2.521.595 5.54 2.178 7.996 3.674 1.213.738 2.26 1.438 3.004 1.953l.869.614.228.167.058.042c.015.012.016.012.016.013l3.495 2.619-1.743-4.003zm-48.736-65.854c.018.013 7.022 5.184 10.206 9.638 2.004 2.803 3.238 4.445 4.227 7.745 1.372 4.578.619 7.499 0 12.237-.896 6.861-5.55 16.819-5.568 16.858l-5.195 11.332v11.76h-7.505v-12.249l-4.619-10.843c-2.593-6.513-5.237-9.91-6.164-16.858-.632-4.737-1.215-7.668.186-12.237 1.01-3.294 2.223-4.942 4.227-7.745 3.188-4.459 10.205-9.638 10.205-9.638z"/><path d="M505.502 445.516l3.983 3.208c2.163 1.861 4.799 4.342 6.476 6.687 2 2.797 3.344 4.58 4.394 8.086 1.459 4.869.644 8.083.039 12.718-.467 3.572-1.897 7.883-3.18 11.249-1.256 3.295-2.408 5.776-2.484 5.939l-5.09 11.104v12.663h-9.814v-13.161l-4.537-10.659c-1.301-3.266-2.536-5.571-3.693-8.232-1.131-2.6-2.061-5.293-2.543-8.901-.626-4.69-1.26-7.877.227-12.727 1.07-3.492 2.387-5.275 4.392-8.079 1.679-2.348 4.32-4.832 6.484-6.694a81.25 81.25 0 0 1 2.801-2.301l.854-.66.234-.176.062-.047c.007-.006.013-.01.017-.013l.006-.003v-.001h.001l.685-.506.686.506zm2.984 70.499v-11.76l5.195-11.332c.025-.053 4.386-9.39 5.473-16.207l.095-.651c.6-4.59 1.324-7.475.122-11.813l-.122-.424c-.865-2.888-1.919-4.505-3.511-6.742l-.716-1.003c-3.178-4.444-10.159-9.604-10.206-9.638 0 0-7.017 5.179-10.205 9.638l-.716 1.003c-1.589 2.238-2.628 3.86-3.511 6.742l-.24.838c-1.088 4.104-.539 6.958.054 11.399.927 6.948 3.571 10.345 6.164 16.858 1.309 3.287 3.055 7.316 4.619 10.843v12.249h7.505z"/></g><circle cx="503.676" cy="500" r="338.04" stroke="#1e1e1e" stroke-width="10"/><defs ><path id="B" d="M786.999 500c0-55.781-45.219-101-101-101s-101 45.219-101 101 45.219 101 101 101v4c-57.99 0-105-47.01-105-105s47.01-105 105-105 105 47.01 105 105-47.01 105-105 105v-4c55.781 0 101-45.219 101-101z"/><path id="C" d="M543.999 358.514c-48.307 27.891-64.858 89.661-36.968 137.969s89.661 64.859 137.968 36.969 64.859-89.661 36.969-137.969l3.464-2c28.995 50.221 11.788 114.438-38.433 143.433s-114.437 11.788-143.432-38.433-11.788-114.438 38.432-143.433 114.438-11.788 143.433 38.433l-3.464 2c-27.89-48.308-89.661-64.859-137.969-36.969z"/></defs></svg>