<svg xmlns="http://www.w3.org/2000/svg" width="800" height="800" fill="none" xmlns:v="https://vecta.io/nano"><rect width="800" height="800" rx="120" fill="url(#A)"/><path d="M96.256 405.239v-5.966h52.734v5.966h-23.047V472h-6.64v-66.761H96.256zM163.94 472v-72.727h6.641v33.345h41.264v-33.345h6.641V472h-6.641v-33.416h-41.264V472h-6.641zm73.828 0v-72.727h42.188v5.966h-35.547v27.379h33.31v5.966h-33.31v27.45h36.257V472h-42.898zM100.659 593v-72.727h6.641v66.761h34.659V593h-41.3zm56.25 0v-72.727h42.188v5.966H163.55v27.379h33.309v5.966H163.55v27.45h36.257V593h-42.898zm59.375 0v-72.727h42.081v5.966h-35.44v27.379h32.137v5.966h-32.137V593h-6.641zm54.19-66.761v-5.966h52.735v5.966h-23.047V593h-6.641v-66.761h-23.047zM121.966 714h-21.307v-72.727h22.585c6.937 0 12.867 1.444 17.792 4.332 4.947 2.888 8.735 7.031 11.363 12.429s3.942 11.873 3.942 19.425c0 7.623-1.35 14.169-4.048 19.638-2.676 5.445-6.582 9.623-11.719 12.535-5.114 2.912-11.316 4.368-18.608 4.368zm-14.666-5.966h14.275c6.25 0 11.482-1.231 15.696-3.693s7.375-5.978 9.482-10.547 3.16-10.014 3.16-16.335c-.023-6.274-1.065-11.672-3.125-16.193-2.036-4.522-5.066-7.99-9.091-10.405-4.001-2.415-8.948-3.622-14.843-3.622H107.3v60.795zM172.436 714v-72.727h23.473c5.161 0 9.47.935 12.927 2.805 3.48 1.847 6.096 4.415 7.848 7.706 1.775 3.267 2.663 7.02 2.663 11.257s-.888 7.978-2.663 11.222c-1.752 3.243-4.356 5.776-7.813 7.599s-7.741 2.735-12.855 2.735h-19.993v-6.073h19.815c3.788 0 6.937-.627 9.446-1.882 2.534-1.255 4.416-3.042 5.647-5.362 1.254-2.32 1.882-5.066 1.882-8.239s-.628-5.942-1.882-8.309c-1.255-2.392-3.149-4.238-5.682-5.54-2.51-1.302-5.682-1.953-9.517-1.953h-16.655V714h-6.641zm32.067-32.812L222.401 714h-7.671l-17.72-32.812h7.493zM235.629 714h-6.96l26.456-72.727h7.102L288.683 714h-6.96l-22.799-64.098h-.497L235.629 714zm5.007-27.876h36.08v5.965h-36.08v-5.965zM308.125 714l-19.922-72.727h6.748l16.477 62.535h.568l16.477-62.535h7.671l16.477 62.535h.568l16.478-62.535h6.782L356.527 714h-7.102l-16.868-61.683h-.461L315.228 714h-7.103zm80.327 0v-72.727h42.188v5.966h-35.547v27.379h33.309v5.966h-33.309v27.45h36.257V714h-42.898zm59.375 0v-72.727H471.3c5.161 0 9.47.935 12.926 2.805 3.48 1.847 6.096 4.415 7.848 7.706 1.776 3.267 2.664 7.02 2.664 11.257s-.888 7.978-2.664 11.222c-1.752 3.243-4.356 5.776-7.812 7.599s-7.742 2.735-12.855 2.735h-19.993v-6.073h19.815c3.788 0 6.937-.627 9.446-1.882 2.533-1.255 4.415-3.042 5.646-5.362 1.255-2.32 1.882-5.066 1.882-8.239s-.627-5.942-1.882-8.309c-1.254-2.392-3.148-4.238-5.681-5.54-2.51-1.302-5.682-1.953-9.517-1.953h-16.655V714h-6.641zm32.067-32.812L497.792 714h-7.671l-17.72-32.812h7.493z" fill="#1e1e1e"/><path d="M100 319.954c0-57.681 30.004-74.485 86.121-115.939C242.296 162.518 340.54 100 400 100s157.704 62.518 213.879 104.015C669.996 245.469 700 262.273 700 319.954v296.361c0 10.989-2.408 21.871-7.087 32.025s-11.537 19.378-20.182 27.149-18.909 13.935-30.205 18.141-23.403 6.37-35.629 6.37" stroke="#1e1e1e" stroke-width="30" stroke-linecap="round"/><defs><linearGradient id="A" x1="400" y1="0" x2="400" y2="800" gradientUnits="userSpaceOnUse"><stop offset=".082" stop-color="#b0d1e0"/><stop offset=".346" stop-color="#e0a8c8"/><stop offset=".447" stop-color="#d59ea8"/><stop offset=".779" stop-color="#815b91"/><stop offset=".827" stop-color="#785a92"/><stop offset=".928" stop-color="#665994"/><stop offset=".986" stop-color="#61639d"/></linearGradient></defs></svg>