<svg width="131" height="149" viewBox="0 0 131 149" fill="none" xmlns="http://www.w3.org/2000/svg">
<path d="M121.377 30.6779L74.5476 2.87561C71.8156 1.24623 68.6939 0.385986 65.5129 0.385986C62.332 0.385986 59.2103 1.24623 56.4783 2.87561L9.64147 30.6779C6.87205 32.3486 4.5839 34.7098 3.00103 37.5304C1.41816 40.3509 0.594813 43.5341 0.611579 46.7684V102.365C0.596461 105.598 1.4206 108.779 3.00339 111.598C4.58618 114.416 6.87343 116.776 9.64147 118.446L56.4706 146.239C59.2029 147.867 62.3245 148.727 65.5052 148.727C68.686 148.727 71.8076 147.867 74.5399 146.239L121.369 118.446C124.14 116.776 126.43 114.416 128.015 111.595C129.599 108.774 130.424 105.591 130.408 102.355V46.7706C130.425 43.5364 129.601 40.3532 128.019 37.5327C126.436 34.7122 124.148 32.351 121.378 30.6803L121.377 30.6779Z" fill="#F3F3F3"/>
<path d="M121.377 30.6779L74.5476 2.87561C71.8156 1.24623 68.6939 0.385986 65.5129 0.385986C62.332 0.385986 59.2103 1.24623 56.4783 2.87561L9.64147 30.6779C6.87205 32.3486 4.5839 34.7098 3.00103 37.5304C1.41816 40.3509 0.594813 43.5341 0.611579 46.7684V102.365C0.596461 105.598 1.4206 108.779 3.00339 111.598C4.58618 114.416 6.87343 116.776 9.64147 118.446L56.4706 146.239C59.2029 147.867 62.3245 148.727 65.5052 148.727C68.686 148.727 71.8076 147.867 74.5399 146.239L121.369 118.446C124.14 116.776 126.43 114.416 128.015 111.595C129.599 108.774 130.424 105.591 130.408 102.355V46.7706C130.425 43.5364 129.601 40.3532 128.019 37.5327C126.436 34.7122 124.148 32.351 121.378 30.6803L121.377 30.6779ZM58.1102 143.396L11.2814 115.603C9.00632 114.225 7.12675 112.281 5.82543 109.961C4.52411 107.641 3.84533 105.023 3.85511 102.363V46.7671C3.84443 44.1068 4.52282 41.4891 5.82422 39.1688C7.12563 36.8485 9.00569 34.9048 11.2814 33.5269L58.1105 5.72458C60.3475 4.39004 62.9038 3.68545 65.5086 3.68545C68.1135 3.68545 70.6698 4.39004 72.9068 5.72458L119.697 33.5269C121.603 34.6811 123.234 36.2373 124.476 38.0868C125.718 39.9363 126.542 42.0346 126.889 44.2353C125.333 40.9253 121.835 40.0159 117.756 42.36L73.4879 69.7775C67.9648 72.9936 63.8953 76.6224 63.886 83.2803V137.873C63.886 141.858 65.4892 144.436 67.9648 145.196C67.1541 145.344 66.3321 145.423 65.508 145.43C62.904 145.428 60.3485 144.725 58.1098 143.395L58.1102 143.396Z" fill="#1E1E1E"/>
<path d="M109.103 107.738L97.4378 114.715C97.2849 114.776 97.153 114.881 97.0582 115.016C96.9633 115.15 96.9095 115.31 96.9033 115.474V118.541C96.9033 118.916 97.1566 119.066 97.4661 118.888L109.309 111.686C109.451 111.58 109.56 111.435 109.623 111.269C109.686 111.103 109.701 110.922 109.665 110.748V108.057C109.656 107.71 109.384 107.56 109.103 107.739V107.738Z" fill="#F3F3F3"/>
<path d="M84.2745 82.0551C84.6496 81.8677 84.959 82.0551 84.9685 82.5898L85.0059 86.6591C86.4086 86.0219 87.9735 85.8321 89.4879 86.1154C89.7786 86.1905 89.9006 86.5842 89.7881 87.053L88.8973 90.6257C88.8297 90.8953 88.6904 91.1416 88.4941 91.3383C88.4252 91.4064 88.3462 91.4633 88.2598 91.5072C88.1538 91.5645 88.0315 91.5843 87.9128 91.5633C86.4361 91.2364 84.8903 91.4846 83.5901 92.2574C82.6586 92.677 81.8643 93.351 81.2987 94.2018C80.7331 95.0526 80.419 96.0458 80.3926 97.0672C80.3926 98.9427 81.3302 99.4584 84.6027 99.5148C88.9253 99.5899 90.8009 101.474 90.8477 105.835C90.7969 108.083 90.2572 110.294 89.2662 112.313C88.2752 114.332 86.8566 116.112 85.1089 117.528L85.184 121.522C85.1808 121.766 85.1164 122.006 84.9968 122.219C84.8772 122.432 84.7063 122.611 84.4995 122.741L82.1366 124.101C81.7615 124.288 81.452 124.101 81.4425 123.576V119.647C79.4174 120.491 77.3637 120.688 76.0511 120.163C75.8073 120.069 75.6948 119.703 75.7981 119.281L76.6513 115.671C76.7161 115.385 76.8628 115.125 77.0732 114.921C77.14 114.857 77.2158 114.803 77.2983 114.762C77.3587 114.734 77.4243 114.72 77.4906 114.72C77.5569 114.72 77.6224 114.734 77.6829 114.762C79.3544 115.215 81.1372 114.989 82.643 114.133C83.7092 113.619 84.6144 112.823 85.2606 111.831C85.9069 110.84 86.2695 109.69 86.3093 108.507C86.3093 106.482 85.1935 105.638 82.5588 105.619C79.1548 105.619 75.995 104.963 75.9294 99.9929C75.968 97.8487 76.4807 95.7396 77.4307 93.8169C78.3807 91.8942 79.7444 90.2056 81.4239 88.8722L81.2553 84.7838C81.2545 84.5363 81.317 84.2927 81.4367 84.0761C81.5565 83.8594 81.7296 83.677 81.9396 83.546L84.2745 82.0551Z" fill="#F3F3F3"/>
</svg>
