<svg width="137" height="151" viewBox="0 0 137 151" fill="none" xmlns="http://www.w3.org/2000/svg">
<g clip-path="url(#clip0_323_328)">
<path d="M124.377 31.1779L77.5476 3.37561C74.8156 1.74623 71.6939 0.885986 68.5129 0.885986C65.332 0.885986 62.2103 1.74623 59.4783 3.37561L12.6415 31.1779C9.87205 32.8486 7.5839 35.2098 6.00103 38.0304C4.41816 40.8509 3.59481 44.0341 3.61158 47.2684V102.865C3.59646 106.098 4.4206 109.279 6.00339 112.098C7.58618 114.916 9.87343 117.276 12.6415 118.946L59.4706 146.739C62.2029 148.367 65.3245 149.227 68.5052 149.227C71.686 149.227 74.8076 148.367 77.5399 146.739L124.369 118.946C127.14 117.276 129.43 114.916 131.015 112.095C132.599 109.274 133.424 106.091 133.408 102.855V47.2706C133.425 44.0364 132.601 40.8532 131.019 38.0327C129.436 35.2122 127.148 32.851 124.378 31.1803L124.377 31.1779Z" fill="#251518"/>
<path d="M124.377 31.1779L77.5476 3.37561C74.8156 1.74623 71.6939 0.885986 68.5129 0.885986C65.332 0.885986 62.2103 1.74623 59.4783 3.37561L12.6415 31.1779C9.87205 32.8486 7.5839 35.2098 6.00103 38.0304C4.41816 40.8509 3.59481 44.0341 3.61158 47.2684V102.865C3.59646 106.098 4.4206 109.279 6.00339 112.098C7.58618 114.916 9.87343 117.276 12.6415 118.946L59.4706 146.739C62.2029 148.367 65.3245 149.227 68.5052 149.227C71.686 149.227 74.8076 148.367 77.5399 146.739L124.369 118.946C127.14 117.276 129.43 114.916 131.015 112.095C132.599 109.274 133.424 106.091 133.408 102.855V47.2706C133.425 44.0364 132.601 40.8532 131.019 38.0327C129.436 35.2122 127.148 32.851 124.378 31.1803L124.377 31.1779ZM61.1102 143.896L14.2814 116.103C12.0063 114.725 10.1267 112.781 8.82543 110.461C7.52411 108.141 6.84533 105.523 6.85511 102.863V47.2671C6.84443 44.6068 7.52282 41.9891 8.82422 39.6688C10.1256 37.3485 12.0057 35.4048 14.2814 34.0269L61.1105 6.22458C63.3475 4.89004 65.9038 4.18545 68.5086 4.18545C71.1135 4.18545 73.6698 4.89004 75.9068 6.22458L122.697 34.0269C124.603 35.1811 126.234 36.7373 127.476 38.5868C128.718 40.4363 129.542 42.5346 129.889 44.7353C128.333 41.4253 124.835 40.5159 120.756 42.86L76.4879 70.2775C70.9648 73.4936 66.8953 77.1224 66.886 83.7803V138.373C66.886 142.358 68.4892 144.936 70.9648 145.696C70.1541 145.844 69.3321 145.923 68.508 145.93C65.904 145.928 63.3485 145.225 61.1098 143.895L61.1102 143.896Z" fill="#F3F3F3"/>
<path d="M112.103 108.238L100.438 115.215C100.285 115.276 100.153 115.381 100.058 115.516C99.9633 115.65 99.9095 115.81 99.9033 115.974V119.041C99.9033 119.416 100.157 119.566 100.466 119.388L112.309 112.186C112.451 112.08 112.56 111.935 112.623 111.769C112.686 111.603 112.701 111.422 112.665 111.248V108.557C112.656 108.21 112.384 108.06 112.103 108.239V108.238Z" fill="#251518"/>
<path d="M87.2745 82.5551C87.6496 82.3677 87.959 82.5551 87.9685 83.0898L88.0059 87.1591C89.4086 86.5219 90.9735 86.3321 92.4879 86.6154C92.7786 86.6905 92.9006 87.0842 92.7881 87.553L91.8973 91.1257C91.8297 91.3953 91.6904 91.6416 91.4941 91.8383C91.4252 91.9064 91.3462 91.9633 91.2598 92.0072C91.1538 92.0645 91.0315 92.0843 90.9128 92.0633C89.4361 91.7364 87.8903 91.9846 86.5901 92.7574C85.6586 93.177 84.8643 93.851 84.2987 94.7018C83.7331 95.5526 83.419 96.5458 83.3926 97.5672C83.3926 99.4427 84.3302 99.9584 87.6027 100.015C91.9253 100.09 93.8009 101.974 93.8477 106.335C93.7969 108.583 93.2572 110.794 92.2662 112.813C91.2752 114.832 89.8566 116.612 88.1089 118.028L88.184 122.022C88.1808 122.266 88.1164 122.506 87.9968 122.719C87.8772 122.932 87.7063 123.111 87.4995 123.241L85.1366 124.601C84.7615 124.788 84.452 124.601 84.4425 124.076V120.147C82.4174 120.991 80.3637 121.188 79.0511 120.663C78.8073 120.569 78.6948 120.203 78.7981 119.781L79.6513 116.171C79.7161 115.885 79.8628 115.625 80.0732 115.421C80.14 115.357 80.2158 115.303 80.2983 115.262C80.3587 115.234 80.4243 115.22 80.4906 115.22C80.5569 115.22 80.6224 115.234 80.6829 115.262C82.3544 115.715 84.1372 115.489 85.643 114.633C86.7092 114.119 87.6144 113.323 88.2606 112.331C88.9069 111.34 89.2695 110.19 89.3093 109.007C89.3093 106.982 88.1935 106.138 85.5588 106.119C82.1548 106.119 78.995 105.463 78.9294 100.493C78.968 98.3487 79.4807 96.2396 80.4307 94.3169C81.3807 92.3942 82.7444 90.7056 84.4239 89.3722L84.2553 85.2838C84.2545 85.0363 84.317 84.7927 84.4367 84.5761C84.5565 84.3594 84.7296 84.177 84.9396 84.046L87.2745 82.5551Z" fill="#251518"/>
</g>
<defs>
<clipPath id="clip0_323_328">
<rect width="136.14" height="150" fill="white" transform="translate(0.44043 0.0561523)"/>
</clipPath>
</defs>
</svg>
