<svg width="24" height="24" viewBox="0 0 24 24" fill="none" xmlns="http://www.w3.org/2000/svg">
<path fill-rule="evenodd" clip-rule="evenodd" d="M15.5188 7.57622C15.5188 7.57622 17.9118 9.57022 19.6748 11.0402C19.9598 11.2772 20.1248 11.6292 20.1248 12.0002C20.1248 12.3712 19.9598 12.7232 19.6748 12.9602C17.9118 14.4302 15.5188 16.4242 15.5188 16.4242C15.2008 16.6892 15.1578 17.1622 15.4228 17.4802C15.6878 17.7982 16.1608 17.8412 16.4788 17.5762C16.4788 17.5762 18.8718 15.5822 20.6348 14.1132C21.2618 13.5902 21.6248 12.8162 21.6248 12.0002C21.6248 11.1842 21.2618 10.4102 20.6348 9.88722C18.8718 8.41822 16.4788 6.42421 16.4788 6.42421C16.1608 6.15921 15.6878 6.20222 15.4228 6.52022C15.1578 6.83821 15.2008 7.31122 15.5188 7.57622Z" fill="currentColor"/>
<path fill-rule="evenodd" clip-rule="evenodd" d="M7.51905 6.42421C7.51905 6.42421 5.12605 8.41822 3.36305 9.88722C2.73605 10.4102 2.37305 11.1842 2.37305 12.0002C2.37305 12.8162 2.73605 13.5902 3.36305 14.1132C5.12605 15.5822 7.51905 17.5762 7.51905 17.5762C7.83705 17.8412 8.31005 17.7982 8.57505 17.4802C8.84005 17.1622 8.79705 16.6892 8.47905 16.4242C8.47905 16.4242 6.08605 14.4302 4.32305 12.9602C4.03805 12.7232 3.87305 12.3712 3.87305 12.0002C3.87305 11.6292 4.03805 11.2772 4.32305 11.0402C6.08605 9.57022 8.47905 7.57622 8.47905 7.57622C8.79705 7.31122 8.84005 6.83821 8.57505 6.52022C8.31005 6.20222 7.83705 6.15921 7.51905 6.42421Z" fill="currentColor"/>
<path fill-rule="evenodd" clip-rule="evenodd" d="M14.2882 2.76325L8.2882 20.7633C8.1582 21.1562 8.3702 21.5812 8.7632 21.7122C9.1562 21.8423 9.5812 21.6302 9.7122 21.2372L15.7122 3.23725C15.8422 2.84425 15.6302 2.41925 15.2372 2.28825C14.8442 2.15825 14.4192 2.37025 14.2882 2.76325Z" fill="currentColor"/>
</svg>
