<svg width="151" height="107" viewBox="0 0 151 107" fill="currentColor" xmlns="http://www.w3.org/2000/svg">
<path d="M149.121 40.6201C148.704 40.2768 144.95 37.4632 136.887 37.4632C134.802 37.4632 132.647 37.6692 130.562 38.0123C129.033 27.5123 120.205 22.434 119.857 22.1596L117.703 20.9241L116.312 22.9144C114.575 25.5909 113.254 28.6105 112.489 31.6987C111.03 37.6692 111.933 43.2967 114.992 48.1003C111.308 50.1593 105.33 50.6397 104.079 50.7082H5.37607C2.80433 50.7082 0.719011 52.7672 0.719011 55.3063C0.580174 63.816 2.03972 72.3256 5.02873 80.3549C8.4345 89.1392 13.5088 95.6588 20.0427 99.6392C27.4106 104.1 39.4355 106.639 52.9897 106.639C59.1065 106.639 65.2232 106.09 71.2706 104.992C79.681 103.482 87.7441 100.6 95.1816 96.4136C101.277 92.9251 106.769 88.4758 111.447 83.2374C119.301 74.5217 123.958 64.7768 127.364 56.1298H128.754C137.304 56.1298 142.587 52.7671 145.506 49.8846C147.452 48.1003 148.912 45.9045 149.954 43.434L150.58 41.6496L149.121 40.6201Z" fill="currentColor"/>
<path d="M14.5517 47.8943H27.7583C28.3841 47.8943 28.9402 47.4141 28.9402 46.728V35.0614C28.9402 34.4436 28.4535 33.8948 27.7583 33.8948H14.5517C13.9262 33.8948 13.3701 34.375 13.3701 35.0614V46.728C13.4395 47.4141 13.9262 47.8945 14.5517 47.8945V47.8943ZM32.763 47.8943H45.9698C46.5953 47.8943 47.1514 47.4141 47.1514 46.728V35.0614C47.1514 34.4436 46.6647 33.8948 45.9698 33.8948H32.7627C32.1372 33.8948 31.5811 34.375 31.5811 35.0614V46.728C31.6508 47.4141 32.1374 47.8945 32.7627 47.8945M51.3215 47.8945H64.5283C65.1539 47.8945 65.71 47.4141 65.71 46.728V35.0614C65.71 34.4436 65.2233 33.8948 64.5283 33.8948H51.3215C50.696 33.8948 50.1399 34.375 50.1399 35.0614V46.728C50.1399 47.4141 50.6266 47.8945 51.3215 47.8945ZM69.6024 47.8945H82.8092C83.4348 47.8945 83.9909 47.4141 83.9909 46.728V35.0614C83.9909 34.4436 83.5042 33.8948 82.8092 33.8948H69.6024C68.9769 33.8948 68.4208 34.375 68.4208 35.0614V46.728C68.4208 47.4141 68.9769 47.8945 69.6024 47.8945ZM32.763 31.2183H45.9695C46.5951 31.2183 47.1511 30.6695 47.1511 30.0517V18.3851C47.1511 17.7674 46.6645 17.2183 45.9695 17.2183H32.7627C32.1372 17.2183 31.5811 17.6987 31.5811 18.3851V30.0517C31.6508 30.6692 32.1377 31.2183 32.763 31.2183ZM51.3215 31.2183H64.5283C65.1539 31.2183 65.71 30.6695 65.71 30.0517V18.3851C65.71 17.7674 65.2233 17.2183 64.5283 17.2183H51.3215C50.696 17.2183 50.1399 17.6987 50.1399 18.3851V30.0517C50.1399 30.6692 50.6266 31.2183 51.3215 31.2183ZM69.6024 31.2183H82.8092C83.4348 31.2183 83.9909 30.6695 83.9909 30.0517V18.3851C83.9909 17.7674 83.4345 17.2183 82.8092 17.2183H69.6024C68.9769 17.2183 68.4208 17.6987 68.4208 18.3851V30.0517C68.4208 30.6692 68.9769 31.2183 69.6024 31.2183ZM69.6024 14.4734H82.8092C83.4348 14.4734 83.9909 13.993 83.9909 13.3068V1.64022C83.9909 1.02247 83.4345 0.473389 82.8092 0.473389H69.6024C68.9769 0.473389 68.4208 0.953805 68.4208 1.64022V13.3068C68.4208 13.9243 68.9769 14.4734 69.6024 14.4734ZM88.0221 47.8945H101.229C101.854 47.8945 102.411 47.4141 102.411 46.728V35.0614C102.411 34.4436 101.924 33.8948 101.229 33.8948H88.0224C87.3966 33.8948 86.8405 34.375 86.8405 35.0614V46.728C86.9102 47.4141 87.3969 47.8945 88.0224 47.8945" fill="currentColor"/>
</svg>
