<svg width="101" height="151" viewBox="0 0 101 151" fill="none" xmlns="http://www.w3.org/2000/svg">
<g clip-path="url(#clip0_100_169)">
<path d="M50.4297 75.5562C50.4297 61.7493 61.6225 50.5562 75.4297 50.5562C89.2366 50.5562 100.43 61.7493 100.43 75.5562C100.43 89.3634 89.2366 100.556 75.4297 100.556C61.6225 100.556 50.4297 89.3634 50.4297 75.5562Z" fill="#424242"/>
<path d="M0.429688 125.556C0.429688 111.749 11.6225 100.556 25.4297 100.556H50.4297V125.556C50.4297 139.363 39.2369 150.556 25.4297 150.556C11.6225 150.556 0.429688 139.363 0.429688 125.556Z" fill="#1E1E1E"/>
<path d="M50.4297 0.556396V50.556H75.4297C89.2369 50.556 100.43 39.3633 100.43 25.556C100.43 11.7488 89.2369 0.556396 75.4297 0.556396H50.4297Z" fill="#424242"/>
<path d="M0.429688 25.5562C0.429688 39.3634 11.6225 50.5562 25.4297 50.5562H50.4297V0.556152H25.4297C11.6225 0.556152 0.429688 11.7493 0.429688 25.5562Z" fill="#1E1E1E"/>
<path d="M0.429688 75.5562C0.429688 89.3634 11.6225 100.556 25.4297 100.556H50.4297V50.5562H25.4297C11.6225 50.5562 0.429688 61.7493 0.429688 75.5562Z" fill="#4E4E4E"/>
</g>
<defs>
<clipPath id="clip0_100_169">
<rect width="100.02" height="150" fill="white" transform="translate(0.419922 0.556152)"/>
</clipPath>
</defs>
</svg>
