<svg width="101" height="151" viewBox="0 0 101 151" fill="none" xmlns="http://www.w3.org/2000/svg">
<g clip-path="url(#clip0_100_162)">
<path d="M50.4297 75.0562C50.4297 61.2493 61.6225 50.0562 75.4297 50.0562C89.2366 50.0562 100.43 61.2493 100.43 75.0562C100.43 88.8634 89.2366 100.056 75.4297 100.056C61.6225 100.056 50.4297 88.8634 50.4297 75.0562Z" fill="#DDDDDD"/>
<path d="M0.429688 125.056C0.429688 111.249 11.6225 100.056 25.4297 100.056H50.4297V125.056C50.4297 138.863 39.2369 150.056 25.4297 150.056C11.6225 150.056 0.429688 138.863 0.429688 125.056Z" fill="#F3F3F3"/>
<path d="M50.4297 0.0563965V50.056H75.4297C89.2369 50.056 100.43 38.8633 100.43 25.056C100.43 11.2488 89.2369 0.0563965 75.4297 0.0563965H50.4297Z" fill="#DDDDDD"/>
<path d="M0.429688 25.0562C0.429688 38.8634 11.6225 50.0561 25.4297 50.0561H50.4297V0.0561523H25.4297C11.6225 0.0561523 0.429688 11.2493 0.429688 25.0562Z" fill="#F3F3F3"/>
<path d="M0.429688 75.0562C0.429688 88.8634 11.6225 100.056 25.4297 100.056H50.4297V50.0562H25.4297C11.6225 50.0562 0.429688 61.2493 0.429688 75.0562Z" fill="#ADADAD"/>
</g>
<defs>
<clipPath id="clip0_100_162">
<rect width="100.02" height="150" fill="white" transform="translate(0.419922 0.0561523)"/>
</clipPath>
</defs>
</svg>
