<svg width="151" height="151" viewBox="0 0 151 151" fill="currentColor" xmlns="http://www.w3.org/2000/svg">
<path d="M147.751 68.873L82.2598 3.38516C78.4904 -0.386523 72.3732 -0.386523 68.5992 3.38516L54.9996 16.9848L72.2514 34.2365C76.2603 32.8818 80.8576 33.7906 84.0533 36.9863C87.2643 40.2025 88.1666 44.8391 86.7791 48.8609L103.405 65.4875C107.428 64.1018 112.069 64.9982 115.281 68.2162C119.771 72.7045 119.771 79.9789 115.281 84.4701C110.79 88.9619 103.516 88.9619 99.0223 84.4701C95.6449 81.0893 94.8105 76.1293 96.5203 71.9686L81.0152 56.4635L81.0135 97.2664C82.1375 97.8222 83.164 98.5563 84.0533 99.4402C88.5434 103.929 88.5434 111.204 84.0533 115.698C79.5621 120.188 72.2842 120.188 67.7994 115.698C63.3094 111.204 63.3094 103.929 67.7994 99.4408C68.8754 98.3643 70.1542 97.5117 71.5617 96.9324V55.7492C70.1521 55.1738 68.8727 54.3207 67.7994 53.2408C64.3975 49.8436 63.5795 44.852 65.3227 40.6748L48.3164 23.6668L3.41016 68.5701C-0.363281 72.3453 -0.363281 78.4631 3.41016 82.2354L68.9027 147.724C72.6732 151.497 78.7892 151.497 82.5644 147.724L147.751 82.5395C151.523 78.766 151.523 72.6447 147.751 68.873Z" fill="currentColor"/>
</svg>
