<svg width="33" height="33" viewBox="0 0 33 33" fill="none" xmlns="http://www.w3.org/2000/svg">
<path fill-rule="evenodd" clip-rule="evenodd" d="M5.83301 17.5H27.1663C27.7183 17.5 28.1663 17.052 28.1663 16.5C28.1663 15.948 27.7183 15.5 27.1663 15.5H5.83301C5.28101 15.5 4.83301 15.948 4.83301 16.5C4.83301 17.052 5.28101 17.5 5.83301 17.5Z" fill="currentColor"/>
<path fill-rule="evenodd" clip-rule="evenodd" d="M5.83301 9.5H27.1663C27.7183 9.5 28.1663 9.052 28.1663 8.5C28.1663 7.948 27.7183 7.5 27.1663 7.5H5.83301C5.28101 7.5 4.83301 7.948 4.83301 8.5C4.83301 9.052 5.28101 9.5 5.83301 9.5Z" fill="currentColor"/>
<path fill-rule="evenodd" clip-rule="evenodd" d="M5.83301 25.5H27.1663C27.7183 25.5 28.1663 25.052 28.1663 24.5C28.1663 23.948 27.7183 23.5 27.1663 23.5H5.83301C5.28101 23.5 4.83301 23.948 4.83301 24.5C4.83301 25.052 5.28101 25.5 5.83301 25.5Z" fill="currentColor"/>
</svg>
