<svg width="32" height="33" viewBox="0 0 32 33" fill="currentColor" xmlns="http://www.w3.org/2000/svg">
<path fill-rule="evenodd" clip-rule="evenodd" d="M5.33301 17.5H26.6663C27.2183 17.5 27.6663 17.052 27.6663 16.5C27.6663 15.948 27.2183 15.5 26.6663 15.5H5.33301C4.78101 15.5 4.33301 15.948 4.33301 16.5C4.33301 17.052 4.78101 17.5 5.33301 17.5Z" fill="currentColor" fill-opacity="0.6"/>
<path fill-rule="evenodd" clip-rule="evenodd" d="M5.33301 9.5H26.6663C27.2183 9.5 27.6663 9.052 27.6663 8.5C27.6663 7.948 27.2183 7.5 26.6663 7.5H5.33301C4.78101 7.5 4.33301 7.948 4.33301 8.5C4.33301 9.052 4.78101 9.5 5.33301 9.5Z" fill="currentColor"/>
<path fill-rule="evenodd" clip-rule="evenodd" d="M5.33301 25.5H26.6663C27.2183 25.5 27.6663 25.052 27.6663 24.5C27.6663 23.948 27.2183 23.5 26.6663 23.5H5.33301C4.78101 23.5 4.33301 23.948 4.33301 24.5C4.33301 25.052 4.78101 25.5 5.33301 25.5Z" fill="currentColor"/>
</svg>
