<svg width="150" height="132" viewBox="0 0 150 132" fill="currentColor" xmlns="http://www.w3.org/2000/svg">
<path d="M2.83122e-07 132V130L4 128.6C8.53333 127.133 10.8 123.333 10.8 117.2V14.8C10.8 12.1333 10.4667 10 9.8 8.39999C9.26667 6.79999 7.73333 5.46666 5.2 4.4L2.83122e-07 1.99999V-5.24521e-06H38.6L75.6 96.8L110.4 -5.24521e-06H149.8V1.99999L146.6 3.19999C144.067 4.13333 142.333 5.46666 141.4 7.2C140.467 8.79999 140 10.9333 140 13.6V118.2C140 120.867 140.333 122.933 141 124.4C141.667 125.867 143.267 127.133 145.8 128.2L149.8 130V132H100V130L104.2 128.2C106.733 127.133 108.333 125.867 109 124.4C109.667 122.933 110 120.867 110 118.2V73.2L110.4 16L68.6 132H58.6L15 17.4L15.6 67.2V117.6C15.6 120.533 16 122.933 16.8 124.8C17.7333 126.533 19.4667 127.8 22 128.6L26.4 130V132H2.83122e-07Z" fill="currentColor"/>
</svg>
