<svg width="21" height="20" viewBox="0 0 21 20" fill="none" xmlns="http://www.w3.org/2000/svg">
<path d="M19.4999 10.8282C19.3426 12.5304 18.7038 14.1526 17.6581 15.505C16.6125 16.8574 15.2034 17.884 13.5956 18.4647C11.9878 19.0455 10.2479 19.1563 8.5794 18.7843C6.91092 18.4123 5.3829 17.5728 4.17413 16.364C2.96536 15.1552 2.12584 13.6272 1.75381 11.9587C1.38178 10.2902 1.49262 8.55029 2.07336 6.9425C2.65411 5.33472 3.68073 3.92557 5.03311 2.87996C6.3855 1.83435 8.0077 1.19551 9.7099 1.03821C8.71331 2.38648 8.23375 4.04766 8.35843 5.71962C8.48312 7.39159 9.20376 8.96327 10.3893 10.1488C11.5748 11.3343 13.1465 12.055 14.8185 12.1797C16.4905 12.3044 18.1516 11.8248 19.4999 10.8282Z" stroke="#F3F3F3" stroke-width="2" stroke-linecap="round" stroke-linejoin="round"/>
</svg>
