<svg width="151" height="167" viewBox="0 0 151 167" fill="currentColor" xmlns="http://www.w3.org/2000/svg">
<g clip-path="url(#clip0_72_246)">
<path d="M68.7493 2.95841C72.8277 0.623957 78.1398 0.613413 82.2147 2.95841C102.715 14.5422 123.222 26.1078 143.719 37.6987C147.574 39.8703 150.153 44.1607 150.114 48.6029V118.295C150.142 122.922 147.309 127.315 143.241 129.437C122.808 140.957 102.386 152.491 81.9564 164.011C77.7936 166.391 72.3749 166.208 68.3422 163.632C62.2164 160.081 56.08 156.548 49.9536 153C48.7017 152.254 47.2905 151.66 46.4065 150.446C47.188 149.393 48.5852 149.261 49.7205 148.801C52.2775 147.988 54.626 146.683 56.9751 145.417C57.5691 145.01 58.2944 145.166 58.8638 145.53C64.1021 148.533 69.2941 151.624 74.55 154.599C75.6712 155.246 76.8065 154.387 77.7649 153.852C97.816 142.52 117.892 131.23 137.939 119.894C138.682 119.537 139.093 118.748 139.032 117.935C139.046 94.9445 139.036 71.9503 139.039 48.9603C139.124 48.037 138.59 47.1882 137.755 46.8103C117.393 35.3431 97.0416 23.8583 76.6829 12.3882C76.3302 12.1457 75.9124 12.0156 75.4843 12.0149C75.0563 12.0143 74.6381 12.1432 74.2846 12.3847C53.926 23.8583 33.5779 35.3537 13.2193 46.8203C12.3874 47.1987 11.8292 48.0335 11.9282 48.9603C11.9317 71.9503 11.9282 94.9445 11.9282 117.938C11.8929 118.335 11.9801 118.733 12.178 119.079C12.376 119.425 12.6752 119.702 13.0353 119.873C18.4681 122.954 23.908 126.013 29.3443 129.083C32.4069 130.732 36.1672 131.711 39.5414 130.448C42.5191 129.38 44.6064 126.342 44.5495 123.18C44.5777 100.324 44.5355 77.4646 44.5706 54.6121C44.4962 53.5975 45.4587 52.7592 46.4452 52.8547C49.0556 52.8371 51.6695 52.8196 54.2798 52.8617C55.3694 52.8371 56.1193 53.9297 55.9845 54.9519C55.974 77.9525 56.0126 100.954 55.967 123.954C55.974 130.084 53.4556 136.754 47.7855 139.754C40.8004 143.372 32.1667 142.605 25.2659 139.135C19.2918 136.153 13.5907 132.634 7.72263 129.44C3.64482 127.329 0.825315 122.919 0.85402 118.296V48.6029C0.811256 44.0688 3.49251 39.7004 7.46781 37.5604C27.8973 26.0311 48.3233 14.493 68.7493 2.95841Z" fill="currentColor"/>
<path d="M86.5722 51.235C95.4824 50.6615 105.021 50.8952 113.039 55.2847C119.247 58.6484 122.689 65.708 122.798 72.6047C122.625 73.535 121.652 74.0482 120.764 73.9843C118.179 73.9808 115.593 74.0194 113.008 73.9667C111.911 74.0089 111.274 72.9978 111.136 72.0283C110.394 68.7284 108.594 65.4602 105.488 63.8685C100.72 61.4814 95.1918 61.6015 89.9928 61.6513C86.1973 61.8528 82.116 62.1814 78.9005 64.4133C76.4319 66.104 75.682 69.5169 76.5631 72.2655C77.3937 74.2391 79.672 74.8759 81.536 75.4629C92.2739 78.2713 103.653 77.9918 114.186 81.6877C118.546 83.1944 122.812 86.1234 124.305 90.6892C126.257 96.8086 125.401 104.123 121.048 109.036C117.517 113.078 112.375 115.279 107.246 116.474C100.423 117.995 93.3424 118.034 86.4135 117.358C79.8981 116.615 73.1179 114.904 68.0882 110.464C63.7872 106.73 61.6864 100.911 61.895 95.2949C61.9448 94.3464 62.8891 93.6851 63.7977 93.763C66.401 93.7419 69.0044 93.7349 71.6077 93.7665C72.6475 93.6921 73.4185 94.5907 73.4718 95.5708C73.9521 98.7148 75.1337 102.015 77.8753 103.879C83.1663 107.292 89.8053 107.059 95.8637 107.154C100.883 106.931 106.517 106.864 110.613 103.547C112.774 101.654 113.415 98.4887 112.831 95.7653C112.198 93.466 109.793 92.3945 107.727 91.6939C97.1267 88.3407 85.6209 89.5575 75.1232 85.7655C70.8614 84.2594 66.7402 81.4118 65.1029 77.0334C62.8182 70.8368 63.8651 63.172 68.6752 58.4252C73.3651 53.7036 80.1353 51.8858 86.5722 51.235Z" fill="currentColor"/>
</g>
<defs>
<clipPath id="clip0_72_246">
<rect width="150" height="165.198" fill="currentColor" transform="translate(0.5 0.861206)"/>
</clipPath>
</defs>
</svg>
