<svg width="151" height="155" viewBox="0 0 151 155" fill="none" xmlns="http://www.w3.org/2000/svg">
<g clip-path="url(#clip0_72_257)">
<path d="M149.999 92.8332C149.1 90.1092 146.743 88.2119 143.697 87.7566C142.26 87.5422 140.615 87.6336 138.668 88.0349C135.274 88.7351 132.756 89.0017 130.919 89.0533C137.854 77.3433 143.494 63.9898 146.741 51.4197C151.991 31.0941 149.185 21.8345 145.907 17.6463C137.231 6.56032 124.573 0.604851 109.302 0.422625C101.156 0.323015 94.0044 1.93141 90.2738 3.08805C86.8003 2.47516 83.0656 2.13298 79.1468 2.0697C71.8009 1.95251 65.3105 3.55387 59.7646 6.84509C56.6943 5.80681 51.7666 4.34313 46.0759 3.40915C32.6919 1.21188 21.9048 2.92399 14.0146 8.49802C4.4603 15.2468 0.0312005 26.9726 0.850341 43.3496C1.1105 48.5492 4.01909 64.3695 8.59878 79.373C11.2308 87.9968 14.0375 95.1582 16.9408 100.66C21.0582 108.462 25.4638 113.056 30.4097 114.706C33.1818 115.63 38.2185 116.277 43.516 111.864C44.1875 112.678 45.0834 113.486 46.2722 114.236C47.7822 115.188 49.6285 115.967 51.4724 116.428C58.1175 118.089 64.3419 117.673 69.6523 115.345C69.6851 116.289 69.7103 117.192 69.7314 117.971C69.7666 119.235 69.8017 120.474 69.848 121.633C70.1627 129.47 70.6959 135.563 72.2755 139.826C72.3623 140.06 72.4789 140.418 72.6019 140.797C73.39 143.21 74.7078 147.249 78.0605 150.413C81.5322 153.69 85.7316 154.695 89.5777 154.695C91.5066 154.695 93.347 154.442 94.9613 154.096C100.715 152.862 107.25 150.984 111.977 144.253C116.447 137.889 118.62 128.305 119.013 113.204C119.064 112.777 119.111 112.369 119.156 111.98L119.25 111.182L120.302 111.275L120.574 111.293C126.434 111.56 133.6 110.318 138.001 108.273C141.479 106.66 152.623 100.776 149.999 92.8332Z" fill="#1E1E1E"/>
<path d="M139.978 94.3777C122.553 97.9724 121.354 92.0726 121.354 92.0726C139.753 64.772 147.444 30.1179 140.807 21.6365C122.7 -1.49924 91.3549 9.44255 90.8317 9.72615L90.6635 9.75661C87.2205 9.04177 83.368 8.61638 79.0373 8.54548C71.1529 8.41657 65.1717 10.6127 60.633 14.0545C60.633 14.0545 4.71701 -8.98108 7.31799 43.0256C7.87111 54.0892 23.1758 126.74 41.4301 104.796C48.1022 96.7718 54.5492 89.9873 54.5492 89.9873C57.7508 92.1142 61.584 93.1994 65.6024 92.8097L65.9147 92.5449C65.8174 93.541 65.8619 94.5154 66.0395 95.6691C61.3367 100.923 62.719 101.845 53.3182 103.781C43.8055 105.741 49.3936 109.231 53.0422 110.144C57.4655 111.25 67.6983 112.817 74.6123 103.137L74.3369 104.242C76.1791 105.718 77.4729 113.841 77.2561 121.206C77.0393 128.57 76.8946 133.626 78.3459 137.575C79.7985 141.525 81.2451 150.41 93.6037 147.762C103.93 145.549 109.281 139.815 110.026 130.249C110.554 123.448 111.75 124.454 111.825 118.374L112.784 115.495C113.889 106.277 112.96 103.303 119.321 104.686L120.868 104.822C125.55 105.035 131.679 104.069 135.276 102.397C143.021 98.8027 147.614 92.8009 139.977 94.3777H139.978Z" fill="#1E1E1E"/>
<path d="M63.9059 47.9731C62.3356 47.7546 60.9135 47.9567 60.194 48.5016C59.7897 48.8081 59.6643 49.1632 59.6303 49.4075C59.5401 50.055 59.9936 50.771 60.2725 51.1401C61.0612 52.1854 62.2131 52.9038 63.3534 53.062C63.5186 53.0854 63.6833 53.096 63.8467 53.096C65.7481 53.096 67.4772 51.6153 67.6295 50.5225C67.82 49.1538 65.8331 48.2409 63.9059 47.9731ZM115.928 48.0165C115.778 46.9436 113.869 46.6378 112.057 46.8897C110.248 47.1417 108.493 47.9585 108.64 49.0337C108.757 49.8698 110.267 51.2971 112.054 51.2971C112.205 51.2971 112.358 51.2872 112.511 51.2655C113.704 51.1003 114.58 50.3427 114.996 49.9061C115.628 49.2405 115.995 48.4987 115.928 48.0165Z" fill="#F3F3F3"/>
<path d="M145.777 93.9692C145.112 91.96 142.974 91.3137 139.42 92.0473C128.871 94.2247 125.092 92.7165 123.852 91.803C132.052 79.3108 138.798 64.21 142.437 50.1212C144.161 43.4473 145.113 37.2493 145.191 32.1973C145.277 26.6526 144.333 22.578 142.385 20.0889C134.533 10.0548 123.007 4.67234 109.056 4.52468C99.4647 4.41687 91.3612 6.87136 89.7903 7.5616C86.4821 6.73894 82.8757 6.23386 78.9493 6.16941C71.7493 6.05281 65.5255 7.77664 60.3727 11.2905C58.1345 10.4573 52.3501 8.47156 45.2761 7.33191C33.0464 5.36316 23.328 6.85496 16.3929 11.768C8.11766 17.6309 4.29735 28.111 5.03739 42.9165C5.28641 47.8975 8.1247 63.221 12.6036 77.8958C18.4993 97.2106 24.9083 108.145 31.6513 110.394C32.4405 110.657 33.3505 110.841 34.3542 110.841C36.814 110.841 39.8298 109.733 42.9675 105.96C46.7946 101.369 50.7534 96.8897 54.8392 92.5272C57.4899 93.9499 60.402 94.7444 63.3804 94.8241C63.3862 94.902 63.3938 94.98 63.4009 95.0573C62.8882 95.6687 62.3862 96.2889 61.895 96.9177C59.8313 99.5374 59.4019 100.083 52.7591 101.45C50.8694 101.841 45.8509 102.875 45.777 106.393C45.6974 110.237 51.7097 111.851 52.3946 112.022C54.7817 112.62 57.0815 112.914 59.2747 112.914C64.6085 112.914 69.3024 111.161 73.0536 107.769C72.9382 121.472 73.5095 134.974 75.1548 139.088C76.5024 142.456 79.7942 150.687 90.1923 150.686C91.7181 150.686 93.3974 150.509 95.2448 150.113C106.097 147.786 110.81 142.99 112.633 132.416C113.608 126.764 115.282 113.269 116.07 106.031C117.731 106.549 119.871 106.787 122.183 106.786C127.007 106.786 132.573 105.761 136.063 104.141C139.984 102.32 147.06 97.8516 145.777 93.9692ZM119.933 45.0551C119.898 47.1921 119.603 49.1321 119.292 51.1571C118.956 53.335 118.609 55.5868 118.522 58.3202C118.436 60.9803 118.768 63.746 119.089 66.4208C119.738 71.8231 120.404 77.3848 117.826 82.8727C117.397 82.1137 117.016 81.3293 116.683 80.5237C116.363 79.7468 115.667 78.4987 114.703 76.7714C110.953 70.0471 102.173 54.3007 106.668 47.8753C108.007 45.9628 111.404 43.9964 119.933 45.0551ZM109.595 8.85183C122.095 9.12781 131.984 13.8042 138.984 22.7503C144.354 29.6122 138.441 60.835 121.324 87.7712C121.152 87.5523 120.979 87.3341 120.805 87.1167L120.588 86.846C125.012 79.5411 124.147 72.3135 123.377 65.9057C123.06 63.276 122.762 60.7923 122.838 58.4591C122.916 55.9864 123.243 53.8653 123.56 51.8145C123.948 49.2874 124.344 46.6723 124.235 43.5897C124.316 43.2663 124.349 42.8843 124.306 42.4307C124.028 39.4747 120.653 30.6276 113.774 22.6202C110.011 18.2403 104.524 13.3389 97.0313 10.0331C100.254 9.36511 104.661 8.74226 109.595 8.85183ZM39.647 103.199C36.1899 107.356 33.8028 106.559 33.0177 106.298C27.9024 104.592 21.9669 93.78 16.7339 76.6354C12.2058 61.8007 9.55966 46.8833 9.34989 42.7003C8.68895 29.471 11.8958 20.2512 18.8819 15.2966C30.2515 7.23406 48.944 12.0598 56.4552 14.5073C56.3474 14.6139 56.2349 14.7136 56.1282 14.8219C43.8024 27.2696 44.0948 48.5368 44.1253 49.837C44.1241 50.3386 44.1663 51.0487 44.2237 52.0255C44.4358 55.6026 44.8308 62.26 43.7761 69.7993C42.7964 76.8053 44.9561 83.6626 49.7005 88.6132C50.1874 89.1203 50.6991 89.6029 51.2339 90.0593C49.1222 92.321 44.5325 97.3225 39.647 103.199ZM52.8183 85.6255C48.9944 81.6352 47.2577 76.0852 48.0528 70.3969C49.1661 62.4329 48.7554 55.4966 48.5345 51.77C48.5034 51.2485 48.4759 50.7915 48.46 50.4311C50.2606 48.8344 58.605 44.3637 64.5558 45.7272C67.271 46.3489 68.9257 48.1981 69.6136 51.3786C73.1737 67.8452 70.0847 74.7083 67.6026 80.2237C67.0911 81.3598 66.6077 82.4339 66.1952 83.5448L65.8753 84.4038C65.0655 86.5753 64.312 88.5944 63.845 90.5116C59.7798 90.4999 55.8253 88.7632 52.8183 85.6249V85.6255ZM53.4423 107.832C52.2552 107.536 51.1876 107.021 50.5612 106.594C51.0845 106.348 52.0155 106.013 53.6304 105.68C61.445 104.071 62.652 102.936 65.2876 99.5895C65.8917 98.822 66.5767 97.9524 67.5253 96.893L67.5265 96.8919C68.9392 95.3098 69.5854 95.5782 70.7573 96.0645C71.7071 96.4571 72.6323 97.6477 73.0073 98.9579C73.1849 99.5766 73.3841 100.751 72.7319 101.665C67.2265 109.374 59.2038 109.274 53.4423 107.832ZM94.3401 145.89C84.78 147.939 81.395 143.061 79.1644 137.484C77.7247 133.884 77.0169 117.65 77.519 99.7225C77.5255 99.4841 77.4915 99.2538 77.4259 99.037C77.3672 98.6089 77.2779 98.1855 77.1587 97.7702C76.4122 95.1616 74.5929 92.9796 72.4102 92.0749C71.5431 91.7157 69.9517 91.0565 68.0392 91.5458C68.447 89.8653 69.1542 87.9675 69.9212 85.9126L70.2429 85.0483C70.605 84.0739 71.0597 83.0643 71.5401 81.9956C74.1376 76.2253 77.6948 68.3216 73.8341 50.4663C72.388 43.7784 67.5587 40.5124 60.238 41.2712C55.8493 41.7253 51.8339 43.496 49.8311 44.5114C49.4005 44.7294 49.0067 44.9403 48.6388 45.1454C49.1977 38.4071 51.3095 25.8141 59.2091 17.8466C64.1831 12.8309 70.8071 10.3536 78.8778 10.4872C94.7802 10.7473 104.978 18.9083 110.733 25.7093C115.692 31.5692 118.378 37.4725 119.449 40.6565C111.39 39.8368 105.908 41.4276 103.13 45.4003C97.0847 54.0417 106.437 70.8136 110.932 78.8743C111.756 80.3514 112.467 81.6282 112.691 82.1708C114.155 85.718 116.05 88.0864 117.433 89.8149C117.857 90.3446 118.269 90.8585 118.582 91.3073C116.141 92.011 111.756 93.637 112.156 101.765C111.833 105.843 109.542 124.936 108.377 131.682C106.841 140.594 103.561 143.913 94.3401 145.891V145.89ZM134.245 100.225C131.749 101.383 127.572 102.252 123.604 102.439C119.221 102.644 116.99 101.948 116.465 101.52C116.218 96.4548 118.103 95.9257 120.099 95.3655C120.412 95.2776 120.718 95.1915 121.013 95.0883C121.197 95.2378 121.398 95.386 121.618 95.5313C125.141 97.8563 131.424 98.1071 140.294 96.2761L140.391 96.2567C139.195 97.3753 137.148 98.8764 134.245 100.225Z" fill="#F3F3F3"/>
</g>
<defs>
<clipPath id="clip0_72_257">
<rect width="150" height="154.703" fill="white" transform="translate(0.580078 0.20459)"/>
</clipPath>
</defs>
</svg>
