<svg width="151" height="156" viewBox="0 0 151 156" fill="none" xmlns="http://www.w3.org/2000/svg">
<g clip-path="url(#clip0_72_307)">
<path d="M149.998 93.3332C149.099 90.6092 146.743 88.7119 143.696 88.2566C142.259 88.0422 140.614 88.1336 138.667 88.5349C135.273 89.2351 132.756 89.5017 130.918 89.5533C137.854 77.8433 143.493 64.4898 146.74 51.9197C151.99 31.5941 149.185 22.3345 145.906 18.1463C137.23 7.06032 124.572 1.10485 109.302 0.922625C101.155 0.823015 94.004 2.43141 90.2733 3.58805C86.7999 2.97516 83.0651 2.63298 79.1463 2.5697C71.8004 2.45251 65.31 4.05387 59.7641 7.34509C56.6938 6.30681 51.7661 4.84313 46.0754 3.90915C32.6915 1.71188 21.9043 3.42399 14.0141 8.99802C4.45981 15.7468 0.0307122 27.4726 0.849853 43.8496C1.11001 49.0492 4.0186 64.8695 8.59829 79.873C11.2303 88.4968 14.037 95.6582 16.9403 101.16C21.0577 108.962 25.4633 113.556 30.4092 115.206C33.1813 116.13 38.218 116.777 43.5155 112.364C44.187 113.178 45.0829 113.986 46.2717 114.736C47.7817 115.688 49.628 116.467 51.4719 116.928C58.117 118.589 64.3415 118.173 69.6518 115.845C69.6846 116.789 69.7098 117.692 69.7309 118.471C69.7661 119.735 69.8012 120.974 69.8475 122.133C70.1622 129.97 70.6954 136.063 72.275 140.326C72.3618 140.56 72.4784 140.918 72.6014 141.297C73.3895 143.71 74.7073 147.749 78.06 150.913C81.5317 154.19 85.7311 155.195 89.5772 155.195C91.5061 155.195 93.3465 154.942 94.9608 154.596C100.715 153.362 107.25 151.484 111.977 144.753C116.447 138.389 118.619 128.805 119.012 113.704C119.063 113.277 119.11 112.869 119.155 112.48L119.249 111.682L120.302 111.775L120.573 111.793C126.434 112.06 133.6 110.818 138.001 108.773C141.478 107.16 152.622 101.276 149.998 93.3332Z" fill="#F3F3F3"/>
<path d="M139.978 94.8777C122.552 98.4724 121.354 92.5726 121.354 92.5726C139.752 65.272 147.444 30.6179 140.807 22.1365C122.699 -0.999245 91.3544 9.94255 90.8312 10.2261L90.663 10.2566C87.22 9.54177 83.3675 9.11638 79.0368 9.04548C71.1525 8.91657 65.1712 11.1127 60.6325 14.5545C60.6325 14.5545 4.71652 -8.48108 7.3175 43.5256C7.87062 54.5892 23.1753 127.24 41.4296 105.296C48.1017 97.2718 54.5488 90.4873 54.5488 90.4873C57.7503 92.6142 61.5835 93.6994 65.6019 93.3097L65.9142 93.0449C65.8169 94.041 65.8614 95.0154 66.039 96.1691C61.3363 101.423 62.7185 102.345 53.3177 104.281C43.805 106.241 49.3931 109.731 53.0417 110.644C57.465 111.75 67.6978 113.317 74.6118 103.637L74.3364 104.742C76.1786 106.218 77.4724 114.341 77.2556 121.706C77.0388 129.07 76.8941 134.126 78.3454 138.075C79.798 142.025 81.2446 150.91 93.6032 148.262C103.929 146.049 109.281 140.315 110.025 130.749C110.553 123.948 111.749 124.954 111.824 118.874L112.783 115.995C113.889 106.777 112.959 103.803 119.321 105.186L120.868 105.322C125.549 105.535 131.678 104.569 135.275 102.897C143.02 99.3027 147.614 93.3009 139.977 94.8777H139.978Z" fill="#F3F3F3"/>
<path d="M63.9054 48.4731C62.3351 48.2546 60.913 48.4567 60.1935 49.0016C59.7892 49.3081 59.6638 49.6632 59.6298 49.9075C59.5396 50.555 59.9931 51.271 60.272 51.6401C61.0607 52.6854 62.2127 53.4038 63.3529 53.562C63.5181 53.5854 63.6828 53.596 63.8462 53.596C65.7476 53.596 67.4767 52.1153 67.6291 51.0225C67.8195 49.6538 65.8326 48.7409 63.9054 48.4731ZM115.927 48.5165C115.777 47.4436 113.868 47.1378 112.057 47.3897C110.247 47.6417 108.493 48.4585 108.639 49.5337C108.757 50.3698 110.267 51.7971 112.054 51.7971C112.205 51.7971 112.357 51.7872 112.511 51.7655C113.704 51.6003 114.579 50.8427 114.995 50.4061C115.628 49.7405 115.995 48.9987 115.927 48.5165Z" fill="#1E1E1E"/>
<path d="M145.777 94.4692C145.112 92.46 142.974 91.8137 139.42 92.5473C128.871 94.7247 125.092 93.2165 123.852 92.303C132.052 79.8108 138.798 64.71 142.437 50.6212C144.161 43.9473 145.113 37.7493 145.191 32.6973C145.277 27.1526 144.333 23.078 142.385 20.5889C134.533 10.5548 123.007 5.17234 109.056 5.02468C99.4647 4.91687 91.3612 7.37136 89.7903 8.0616C86.4821 7.23894 82.8757 6.73386 78.9493 6.66941C71.7493 6.55281 65.5255 8.27664 60.3727 11.7905C58.1345 10.9573 52.3501 8.97156 45.2761 7.83191C33.0464 5.86316 23.328 7.35496 16.3929 12.268C8.11766 18.1309 4.29735 28.611 5.03739 43.4165C5.28641 48.3975 8.1247 63.721 12.6036 78.3958C18.4993 97.7106 24.9083 108.645 31.6513 110.894C32.4405 111.157 33.3505 111.341 34.3542 111.341C36.814 111.341 39.8298 110.233 42.9675 106.46C46.7946 101.869 50.7534 97.3897 54.8392 93.0272C57.4899 94.4499 60.402 95.2444 63.3804 95.3241C63.3862 95.402 63.3938 95.48 63.4009 95.5573C62.8882 96.1687 62.3862 96.7889 61.895 97.4177C59.8313 100.037 59.4019 100.583 52.7591 101.95C50.8694 102.341 45.8509 103.375 45.777 106.893C45.6974 110.737 51.7097 112.351 52.3946 112.522C54.7817 113.12 57.0815 113.414 59.2747 113.414C64.6085 113.414 69.3024 111.661 73.0536 108.269C72.9382 121.972 73.5095 135.474 75.1548 139.588C76.5024 142.956 79.7942 151.187 90.1923 151.186C91.7181 151.186 93.3974 151.009 95.2448 150.613C106.097 148.286 110.81 143.49 112.633 132.916C113.608 127.264 115.282 113.769 116.07 106.531C117.731 107.049 119.871 107.287 122.183 107.286C127.007 107.286 132.573 106.261 136.063 104.641C139.984 102.82 147.06 98.3516 145.777 94.4692ZM119.933 45.5551C119.898 47.6921 119.603 49.6321 119.292 51.6571C118.956 53.835 118.609 56.0868 118.522 58.8202C118.436 61.4803 118.768 64.246 119.089 66.9208C119.738 72.3231 120.404 77.8848 117.826 83.3727C117.397 82.6137 117.016 81.8293 116.683 81.0237C116.363 80.2468 115.667 78.9987 114.703 77.2714C110.953 70.5471 102.173 54.8007 106.668 48.3753C108.007 46.4628 111.404 44.4964 119.933 45.5551ZM109.595 9.35183C122.095 9.62781 131.984 14.3042 138.984 23.2503C144.354 30.1122 138.441 61.335 121.324 88.2712C121.152 88.0523 120.979 87.8341 120.805 87.6167L120.588 87.346C125.012 80.0411 124.147 72.8135 123.377 66.4057C123.06 63.776 122.762 61.2923 122.838 58.9591C122.916 56.4864 123.243 54.3653 123.56 52.3145C123.948 49.7874 124.344 47.1723 124.235 44.0897C124.316 43.7663 124.349 43.3843 124.306 42.9307C124.028 39.9747 120.653 31.1276 113.774 23.1202C110.011 18.7403 104.524 13.8389 97.0313 10.5331C100.254 9.86511 104.661 9.24226 109.595 9.35183ZM39.647 103.699C36.1899 107.856 33.8028 107.059 33.0177 106.798C27.9024 105.092 21.9669 94.28 16.7339 77.1354C12.2058 62.3007 9.55966 47.3833 9.34989 43.2003C8.68895 29.971 11.8958 20.7512 18.8819 15.7966C30.2515 7.73406 48.944 12.5598 56.4552 15.0073C56.3474 15.1139 56.2349 15.2136 56.1282 15.3219C43.8024 27.7696 44.0948 49.0368 44.1253 50.337C44.1241 50.8386 44.1663 51.5487 44.2237 52.5255C44.4358 56.1026 44.8308 62.76 43.7761 70.2993C42.7964 77.3053 44.9561 84.1626 49.7005 89.1132C50.1874 89.6203 50.6991 90.1029 51.2339 90.5593C49.1222 92.821 44.5325 97.8225 39.647 103.699ZM52.8183 86.1255C48.9944 82.1352 47.2577 76.5852 48.0528 70.8969C49.1661 62.9329 48.7554 55.9966 48.5345 52.27C48.5034 51.7485 48.4759 51.2915 48.46 50.9311C50.2606 49.3344 58.605 44.8637 64.5558 46.2272C67.271 46.8489 68.9257 48.6981 69.6136 51.8786C73.1737 68.3452 70.0847 75.2083 67.6026 80.7237C67.0911 81.8598 66.6077 82.9339 66.1952 84.0448L65.8753 84.9038C65.0655 87.0753 64.312 89.0944 63.845 91.0116C59.7798 90.9999 55.8253 89.2632 52.8183 86.1249V86.1255ZM53.4423 108.332C52.2552 108.036 51.1876 107.521 50.5612 107.094C51.0845 106.848 52.0155 106.513 53.6304 106.18C61.445 104.571 62.652 103.436 65.2876 100.09C65.8917 99.322 66.5767 98.4524 67.5253 97.393L67.5265 97.3919C68.9392 95.8098 69.5854 96.0782 70.7573 96.5645C71.7071 96.9571 72.6323 98.1477 73.0073 99.4579C73.1849 100.077 73.3841 101.251 72.7319 102.165C67.2265 109.874 59.2038 109.774 53.4423 108.332ZM94.3401 146.39C84.78 148.439 81.395 143.561 79.1644 137.984C77.7247 134.384 77.0169 118.15 77.519 100.223C77.5255 99.9841 77.4915 99.7538 77.4259 99.537C77.3672 99.1089 77.2779 98.6855 77.1587 98.2702C76.4122 95.6616 74.5929 93.4796 72.4102 92.5749C71.5431 92.2157 69.9517 91.5565 68.0392 92.0458C68.447 90.3653 69.1542 88.4675 69.9212 86.4126L70.2429 85.5483C70.605 84.5739 71.0597 83.5643 71.5401 82.4956C74.1376 76.7253 77.6948 68.8216 73.8341 50.9663C72.388 44.2784 67.5587 41.0124 60.238 41.7712C55.8493 42.2253 51.8339 43.996 49.8311 45.0114C49.4005 45.2294 49.0067 45.4403 48.6388 45.6454C49.1977 38.9071 51.3095 26.3141 59.2091 18.3466C64.1831 13.3309 70.8071 10.8536 78.8778 10.9872C94.7802 11.2473 104.978 19.4083 110.733 26.2093C115.692 32.0692 118.378 37.9725 119.449 41.1565C111.39 40.3368 105.908 41.9276 103.13 45.9003C97.0847 54.5417 106.437 71.3136 110.932 79.3743C111.756 80.8514 112.467 82.1282 112.691 82.6708C114.155 86.218 116.05 88.5864 117.433 90.3149C117.857 90.8446 118.269 91.3585 118.582 91.8073C116.141 92.511 111.756 94.137 112.156 102.265C111.833 106.343 109.542 125.436 108.377 132.182C106.841 141.094 103.561 144.413 94.3401 146.391V146.39ZM134.245 100.725C131.749 101.883 127.572 102.752 123.604 102.939C119.221 103.144 116.99 102.448 116.465 102.02C116.218 96.9548 118.103 96.4257 120.099 95.8655C120.412 95.7776 120.718 95.6915 121.013 95.5883C121.197 95.7378 121.398 95.886 121.618 96.0313C125.141 98.3563 131.424 98.6071 140.294 96.7761L140.391 96.7567C139.195 97.8753 137.148 99.3764 134.245 100.725Z" fill="#1E1E1E"/>
</g>
<defs>
<clipPath id="clip0_72_307">
<rect width="150" height="154.703" fill="white" transform="translate(0.580078 0.70459)"/>
</clipPath>
</defs>
</svg>
