<svg width="151" height="151" viewBox="0 0 151 151" fill="currentColor" xmlns="http://www.w3.org/2000/svg">
<g clip-path="url(#clip0_72_254)">
<path d="M74.8578 0.802612C36.8739 0.802612 39.2456 17.2747 39.2456 17.2747L39.2878 34.3403H75.5351V39.4638H24.8909C24.8909 39.4638 0.584961 36.7072 0.584961 75.0327C0.584961 113.359 21.7998 112 21.7998 112H34.4607V94.2151C34.4607 94.2151 33.7781 73.0003 55.3368 73.0003H91.2877C91.2877 73.0003 111.486 73.3266 111.486 53.4793V20.6629C111.486 20.6629 114.554 0.802612 74.8578 0.802612ZM54.8711 12.2789C55.7276 12.2781 56.5759 12.4462 57.3674 12.7737C58.1589 13.1011 58.8781 13.5814 59.4837 14.1871C60.0894 14.7927 60.5697 15.5119 60.8971 16.3034C61.2246 17.0949 61.3927 17.9432 61.3919 18.7997C61.3927 19.6563 61.2246 20.5046 60.8971 21.2961C60.5697 22.0876 60.0894 22.8067 59.4837 23.4124C58.8781 24.0181 58.1589 24.4984 57.3674 24.8258C56.5759 25.1532 55.7276 25.3214 54.8711 25.3206C54.0145 25.3214 53.1662 25.1532 52.3747 24.8258C51.5832 24.4984 50.8641 24.0181 50.2584 23.4124C49.6527 22.8067 49.1724 22.0876 48.845 21.2961C48.5176 20.5046 48.3494 19.6563 48.3502 18.7997C48.3494 17.9432 48.5176 17.0949 48.845 16.3034C49.1724 15.5119 49.6527 14.7927 50.2584 14.1871C50.8641 13.5814 51.5832 13.1011 52.3747 12.7737C53.1662 12.4462 54.0145 12.2781 54.8711 12.2789Z" fill="currentColor"/>
<path d="M75.9367 149.648C113.921 149.648 111.549 133.176 111.549 133.176L111.507 116.111H75.2588V110.988H125.903C125.903 110.988 150.209 113.744 150.209 75.4176C150.209 37.0915 128.994 38.4508 128.994 38.4508H116.333V56.2352C116.333 56.2352 117.016 77.45 95.4571 77.45H59.5062C59.5062 77.45 39.3079 77.1237 39.3079 96.9716V129.789C39.3079 129.789 36.2408 149.648 75.9361 149.648H75.9367ZM95.9234 138.173C95.0669 138.174 94.2186 138.006 93.4271 137.678C92.6356 137.351 91.9164 136.871 91.3108 136.265C90.7051 135.659 90.2248 134.94 89.8974 134.149C89.5699 133.357 89.4018 132.509 89.4026 131.652C89.4017 130.796 89.5698 129.947 89.8972 129.156C90.2246 128.364 90.7049 127.645 91.3106 127.039C91.9162 126.434 92.6354 125.953 93.427 125.626C94.2185 125.298 95.0668 125.13 95.9234 125.131C96.78 125.13 97.6283 125.298 98.4198 125.626C99.2113 125.953 99.9304 126.433 100.536 127.039C101.142 127.645 101.622 128.364 101.95 129.155C102.277 129.947 102.445 130.795 102.444 131.652C102.445 132.508 102.277 133.357 101.95 134.148C101.622 134.94 101.142 135.659 100.536 136.264C99.9304 136.87 99.2113 137.35 98.4198 137.678C97.6283 138.005 96.78 138.174 95.9234 138.173Z" fill="currentColor"/>
</g>
<defs>
<clipPath id="clip0_72_254">
<rect width="150" height="149.4" fill="currentColor" transform="translate(0.5 0.760376)"/>
</clipPath>
</defs>
</svg>
