<svg width="151" height="171" viewBox="0 0 151 171" fill="currentColor" xmlns="http://www.w3.org/2000/svg">
<g clip-path="url(#clip0_72_242)">
<path d="M150.5 85.4756C150.5 75.5388 138.056 66.1218 118.977 60.282C123.38 40.8364 121.423 25.3656 112.801 20.4124C110.814 19.2506 108.49 18.7003 105.952 18.7003V25.5184C107.359 25.5184 108.49 25.7936 109.438 26.3134C113.596 28.6982 115.4 37.7789 113.994 49.4585C113.657 52.3325 113.107 55.3594 112.434 58.4475C106.442 56.9799 99.8987 55.8486 93.0194 55.1148C88.8918 49.4585 84.6113 44.3219 80.3002 39.8274C90.2676 30.5633 99.6235 25.4879 105.983 25.4879V18.6697C97.575 18.6697 86.5681 24.6623 75.4389 35.0578C64.3096 24.7235 53.3027 18.792 44.8946 18.792V25.6102C51.2236 25.6102 60.6101 30.655 70.5775 39.858C66.297 44.3525 62.0165 49.4585 57.9501 55.1148C51.0402 55.8486 44.4972 56.9799 38.5045 58.4781C37.8013 55.4206 37.2815 52.4548 36.9146 49.6114C35.4776 37.9318 37.2509 28.8511 41.3785 26.4357C42.2958 25.8853 43.4882 25.6407 44.8946 25.6407V18.8226C42.3263 18.8226 40.0026 19.3729 37.9847 20.5347C29.3932 25.4879 27.467 40.9281 31.9003 60.3126C12.8828 66.1829 0.5 75.5694 0.5 85.4756C0.5 95.4124 12.9439 104.829 32.0226 110.669C27.6199 130.115 29.5766 145.586 38.1987 150.539C40.1861 151.701 42.5098 152.251 45.0781 152.251C53.4861 152.251 64.4931 146.258 75.6223 135.863C86.7515 146.197 97.7585 152.129 106.167 152.129C108.735 152.129 111.059 151.578 113.076 150.417C121.668 145.463 123.594 130.023 119.161 110.639C138.117 104.799 150.5 95.3819 150.5 85.4756ZM110.692 65.0822C109.56 69.0264 108.154 73.0928 106.564 77.1593C105.31 74.7133 103.996 72.2673 102.559 69.8213C101.152 67.3753 99.6541 64.9905 98.1559 62.6668C102.498 63.3089 106.686 64.1038 110.692 65.0822ZM96.6883 97.6444C94.3035 101.772 91.8575 105.686 89.3198 109.324C84.7642 109.721 80.1474 109.935 75.5 109.935C70.8832 109.935 66.2664 109.721 61.7413 109.355C59.2036 105.716 56.7271 101.833 54.3422 97.7361C52.0185 93.7308 49.9089 89.6644 47.9827 85.5673C49.8783 81.4703 52.0186 77.3733 54.3117 73.368C56.6965 69.2404 59.1425 65.3268 61.6802 61.6884C66.2358 61.291 70.8526 61.0769 75.5 61.0769C80.1168 61.0769 84.7336 61.291 89.2587 61.6579C91.7964 65.2963 94.2729 69.1793 96.6578 73.2763C98.9815 77.2816 101.091 81.348 103.017 85.445C101.091 89.5421 98.9814 93.6391 96.6883 97.6444ZM106.564 93.6697C108.215 97.7667 109.621 101.864 110.783 105.838C106.778 106.817 102.559 107.642 98.1865 108.284C99.6847 105.93 101.183 103.515 102.589 101.038C103.996 98.5922 105.31 96.1157 106.564 93.6697ZM75.5612 126.293C72.7177 123.358 69.8742 120.086 67.0614 116.509C69.8131 116.631 72.626 116.723 75.4694 116.723C78.3435 116.723 81.1869 116.662 83.9692 116.509C81.2175 120.086 78.374 123.358 75.5612 126.293ZM52.8135 108.284C48.4719 107.642 44.2831 106.847 40.2778 105.869C41.4091 101.925 42.8155 97.8584 44.4054 93.792C45.659 96.238 46.9737 98.6839 48.4107 101.13C49.8477 103.576 51.3153 105.961 52.8135 108.284ZM75.4083 44.6583C78.2517 47.5934 81.0952 50.8649 83.9081 54.4422C81.1563 54.3199 78.3435 54.2282 75.5 54.2282C72.626 54.2282 69.7825 54.2893 67.0002 54.4422C69.7519 50.8649 72.5954 47.5934 75.4083 44.6583ZM52.7829 62.6668C51.2848 65.0211 49.7866 67.4365 48.3801 69.9131C46.9737 72.359 45.659 74.805 44.4054 77.251C42.7544 73.154 41.3479 69.057 40.1861 65.0822C44.1914 64.1344 48.4107 63.3089 52.7829 62.6668ZM25.1127 100.946C14.2892 96.3297 7.28761 90.2759 7.28761 85.4756C7.28761 80.6754 14.2892 74.591 25.1127 70.0048C27.7422 68.8735 30.6162 67.8645 33.5819 66.9167C35.3247 72.9094 37.6178 79.1466 40.4613 85.5368C37.6484 91.8963 35.3859 98.103 33.6737 104.065C30.6468 103.117 27.7727 102.078 25.1127 100.946ZM41.562 144.638C37.4038 142.253 35.5999 133.172 37.0063 121.493C37.3426 118.619 37.893 115.592 38.5656 112.504C44.5583 113.971 51.1013 115.103 57.9806 115.836C62.1082 121.493 66.3887 126.629 70.6998 131.124C60.7324 140.388 51.3765 145.463 45.0169 145.463C43.6411 145.433 42.4792 145.158 41.562 144.638ZM114.085 121.34C115.522 133.019 113.749 142.1 109.621 144.516C108.704 145.066 107.512 145.311 106.105 145.311C99.7764 145.311 90.3899 140.266 80.4226 131.063C84.703 126.568 88.9835 121.462 93.0499 115.806C99.9599 115.072 106.503 113.941 112.496 112.443C113.199 115.531 113.749 118.496 114.085 121.34ZM125.857 100.946C123.227 102.078 120.353 103.087 117.387 104.035C115.645 98.0419 113.352 91.8046 110.508 85.4145C113.321 79.0549 115.584 72.8482 117.296 66.8861C120.323 67.834 123.197 68.8735 125.887 70.0048C136.711 74.6216 143.712 80.6754 143.712 85.4756C143.682 90.2759 136.68 96.3603 125.857 100.946Z" fill="currentColor"/>
<path d="M75.4693 99.4483C83.1862 99.4483 89.442 93.1925 89.442 85.4756C89.442 77.7587 83.1862 71.5029 75.4693 71.5029C67.7524 71.5029 61.4966 77.7587 61.4966 85.4756C61.4966 93.1925 67.7524 99.4483 75.4693 99.4483Z" fill="currentColor"/>
</g>
<defs>
<clipPath id="clip0_72_242">
<rect width="150" height="170.921" fill="currentColor" transform="translate(0.5)"/>
</clipPath>
</defs>
</svg>
