<svg width="64" height="64" viewBox="0 0 64 64" fill="none" xmlns="http://www.w3.org/2000/svg">
<path fill-rule="evenodd" clip-rule="evenodd" d="M20.102 11.392C20.8634 10.9522 21.3328 10.1415 21.3328 9.26195V7.38462C21.3328 5.42523 22.1106 3.5479 23.4956 2.16287C24.8807 0.777846 26.758 0 28.7174 0H35.2815C37.2409 0 39.1182 0.777846 40.5032 2.16287C41.8882 3.5479 42.6661 5.42523 42.6661 7.38462V9.26195C42.6661 10.1415 43.1354 10.9522 43.8969 11.392C44.6583 11.8318 45.597 11.8318 46.3584 11.392C46.9131 11.0736 47.4612 10.7586 47.983 10.4533C49.6798 9.47528 51.695 9.20944 53.5888 9.71815C55.4792 10.2236 57.094 11.4609 58.072 13.1577C58.5906 14.057 59.1518 15.0285 59.7131 16C60.2743 16.9715 60.8355 17.943 61.3541 18.8423C62.3321 20.5391 62.598 22.5543 62.0926 24.4447C61.5838 26.3385 60.3465 27.9499 58.6497 28.9313C58.1278 29.2332 57.5797 29.5483 57.0251 29.8667C56.2636 30.3065 55.7943 31.1204 55.7943 32C55.7943 32.8796 56.2636 33.6935 57.0251 34.1333C57.5797 34.4517 58.1278 34.7668 58.6497 35.0687C60.3465 36.0501 61.5838 37.6615 62.0926 39.5553C62.598 41.4457 62.3321 43.4609 61.3541 45.1577C60.8355 46.057 60.2743 47.0285 59.7131 48C59.1518 48.9715 58.5906 49.943 58.072 50.8423C57.094 52.5391 55.4792 53.7764 53.5888 54.2818C51.695 54.7906 49.6798 54.5247 47.983 53.5467C47.4612 53.2414 46.9131 52.9264 46.3584 52.608C45.597 52.1682 44.6583 52.1682 43.8969 52.608C43.1354 53.0478 42.6661 53.8585 42.6661 54.7381V56.6154C42.6661 58.5748 41.8882 60.4521 40.5032 61.8371C39.1182 63.2222 37.2409 64 35.2815 64H28.7174C26.758 64 24.8807 63.2222 23.4956 61.8371C22.1106 60.4521 21.3328 58.5748 21.3328 56.6154V54.7381C21.3328 53.8585 20.8634 53.0478 20.102 52.608C19.3406 52.1682 18.4019 52.1682 17.6404 52.608C17.0858 52.9264 16.541 53.2414 16.0158 53.5467C14.319 54.5247 12.3038 54.7906 10.4134 54.2818C8.51963 53.7764 6.90814 52.5391 5.92681 50.8423C4.88968 49.0437 3.68517 46.9563 2.64476 45.1577C1.66671 43.4609 1.40086 41.4457 1.90958 39.5553C2.41501 37.6615 3.65235 36.0501 5.34917 35.0687C5.57294 34.94 5.80029 34.809 6.03046 34.6763C6.34042 34.4976 6.65548 34.316 6.97378 34.1333C7.73522 33.6935 8.20455 32.8796 8.20455 32C8.20455 31.1204 7.73522 30.3065 6.97378 29.8667C6.65548 29.684 6.34042 29.5024 6.03046 29.3237C5.80029 29.191 5.57294 29.06 5.34917 28.9313C3.65235 27.9499 2.41501 26.3385 1.90958 24.4447C1.40086 22.5543 1.66671 20.5391 2.64476 18.8423C3.68517 17.0437 4.88968 14.9563 5.92681 13.1577C6.90814 11.4609 8.51963 10.2236 10.4134 9.71815C12.3038 9.20944 14.319 9.47528 16.0158 10.4533C16.541 10.7586 17.0858 11.0736 17.6404 11.392C18.4019 11.8318 19.3406 11.8318 20.102 11.392ZM21.333 32.0008C21.333 26.1128 26.1117 21.3341 31.9997 21.3341C37.8877 21.3341 42.6664 26.1128 42.6664 32.0008C42.6664 37.8888 37.8877 42.6675 31.9997 42.6675C26.1117 42.6675 21.333 37.8888 21.333 32.0008Z" fill="#D2B9F4"/>
<path fill-rule="evenodd" clip-rule="evenodd" d="M31.9994 21.3341C26.1114 21.3341 21.3327 26.1128 21.3327 32.0008C21.3327 37.8888 26.1114 42.6674 31.9994 42.6674C37.8874 42.6674 42.6661 37.8888 42.6661 32.0008C42.6661 26.1128 37.8874 21.3341 31.9994 21.3341ZM31.9994 26.2572C35.1699 26.2572 37.743 28.8303 37.743 32.0008C37.743 35.1712 35.1699 37.7444 31.9994 37.7444C28.8289 37.7444 26.2558 35.1712 26.2558 32.0008C26.2558 28.8303 28.8289 26.2572 31.9994 26.2572Z" fill="#F3F3F3"/>
<path fill-rule="evenodd" clip-rule="evenodd" d="M21.3332 9.26195C21.3332 10.1415 20.8639 10.9522 20.1025 11.392C19.341 11.8318 18.4024 11.8318 17.6409 11.392C17.0863 11.0736 16.5414 10.7586 16.0163 10.4533C14.3195 9.47528 12.3043 9.20944 10.4139 9.71815C8.52012 10.2236 6.90863 11.4609 5.9273 13.1577C4.89017 14.9563 3.68566 17.0437 2.64525 18.8423C1.6672 20.5391 1.40135 22.5543 1.91007 24.4447C2.4155 26.3385 3.65284 27.9499 5.34966 28.9313C5.87478 29.2332 6.4196 29.5483 6.97427 29.8667C7.73571 30.3065 8.20504 31.1204 8.20504 32C8.20504 32.8796 7.73571 33.6935 6.97427 34.1333C6.4196 34.4517 5.87478 34.7668 5.34966 35.0687C3.65284 36.0501 2.4155 37.6615 1.91007 39.5553C1.40135 41.4457 1.6672 43.4609 2.64525 45.1577C3.68566 46.9563 4.89017 49.0437 5.9273 50.8423C6.90863 52.5391 8.52012 53.7764 10.4139 54.2818C12.3043 54.7906 14.3195 54.5247 16.0163 53.5467C16.5414 53.2414 17.0863 52.9264 17.6409 52.608C18.4024 52.1682 19.341 52.1682 20.1025 52.608C20.8639 53.0478 21.3332 53.8585 21.3332 54.7381C21.3332 55.3781 21.3332 56.0115 21.3332 56.6154C21.3332 58.5748 22.1111 60.4521 23.4961 61.8371C24.8811 63.2222 26.7585 64 28.7179 64H35.282C37.2413 64 39.1187 63.2222 40.5037 61.8371C41.8887 60.4521 42.6666 58.5748 42.6666 56.6154V54.7381C42.6666 53.8585 43.1359 53.0478 43.8973 52.608C44.6588 52.1682 45.5974 52.1682 46.3589 52.608C46.9135 52.9264 47.4616 53.2414 47.9835 53.5467C49.6803 54.5247 51.6955 54.7906 53.5892 54.2818C55.4797 53.7764 57.0945 52.5391 58.0725 50.8423C59.1096 49.0437 60.3174 46.9563 61.3546 45.1577C62.3326 43.4609 62.5985 41.4457 62.093 39.5553C61.5843 37.6615 60.347 36.0501 58.6502 35.0687C58.1283 34.7668 57.5802 34.4517 57.0255 34.1333C56.2641 33.6935 55.7948 32.8796 55.7948 32C55.7948 31.1204 56.2641 30.3065 57.0255 29.8667C57.5802 29.5483 58.1283 29.2332 58.6502 28.9313C60.347 27.9499 61.5843 26.3385 62.093 24.4447C62.5985 22.5543 62.3326 20.5391 61.3546 18.8423C60.3174 17.0437 59.1096 14.9563 58.0725 13.1577C57.0945 11.4609 55.4797 10.2236 53.5892 9.71815C51.6955 9.20944 49.6803 9.47528 47.9835 10.4533C47.4616 10.7586 46.9135 11.0736 46.3589 11.392C45.5974 11.8318 44.6588 11.8318 43.8973 11.392C43.1359 10.9522 42.6666 10.1415 42.6666 9.26195C42.6666 8.62195 42.6666 7.98851 42.6666 7.38462C42.6666 5.42523 41.8887 3.5479 40.5037 2.16287C39.1187 0.777846 37.2413 0 35.282 0H28.7179C26.7585 0 24.8811 0.777846 23.4961 2.16287C22.1111 3.5479 21.3332 5.42523 21.3332 7.38462V9.26195ZM26.2563 9.26195V7.38462C26.2563 6.73149 26.5156 6.10462 26.9784 5.64513C27.4411 5.18236 28.0647 4.92308 28.7179 4.92308H35.282C35.9351 4.92308 36.562 5.18236 37.0247 5.64513C37.4842 6.10462 37.7435 6.73149 37.7435 7.38462V9.26195C37.7435 11.9007 39.1515 14.336 41.4358 15.6554C43.7201 16.9748 46.5361 16.9748 48.8204 15.6554C49.3751 15.337 49.9232 15.022 50.445 14.7167C51.0128 14.3918 51.6824 14.3032 52.3125 14.4738C52.946 14.6412 53.4809 15.0548 53.8091 15.6193C54.8463 17.4178 56.0541 19.5052 57.0912 21.3038C57.4161 21.8683 57.5047 22.5411 57.3373 23.1713C57.1667 23.8014 56.7564 24.3397 56.1886 24.6679C55.6668 24.9698 55.1187 25.2849 54.564 25.6033C52.2797 26.9227 50.8717 29.3612 50.8717 32C50.8717 34.6388 52.2797 37.0773 54.564 38.3967C55.1187 38.7151 55.6668 39.0302 56.1886 39.3321C56.7564 39.6603 57.1667 40.1986 57.3373 40.8287C57.5047 41.4589 57.4161 42.1317 57.0912 42.6962C56.0541 44.4948 54.8463 46.5822 53.8091 48.3807C53.4809 48.9452 52.946 49.3588 52.3125 49.5262C51.6824 49.6968 51.0128 49.6082 50.445 49.2833C49.9232 48.9781 49.3751 48.663 48.8204 48.3446C46.5361 47.0252 43.7201 47.0252 41.4358 48.3446C39.1515 49.664 37.7435 52.0993 37.7435 54.7381C37.7435 55.3781 37.7435 56.0115 37.7435 56.6154C37.7435 57.2685 37.4842 57.8954 37.0247 58.3549C36.562 58.8176 35.9351 59.0769 35.282 59.0769H28.7179C28.0647 59.0769 27.4411 58.8176 26.9784 58.3549C26.5156 57.8954 26.2563 57.2685 26.2563 56.6154V54.7381C26.2563 52.0993 24.8483 49.664 22.564 48.3446C20.2797 47.0252 17.4637 47.0252 15.1794 48.3446C14.6247 48.663 14.0799 48.9781 13.5548 49.2833C12.9903 49.6082 12.3174 49.6968 11.6873 49.5262C11.0571 49.3588 10.5189 48.9452 10.1907 48.3807C9.15355 46.5822 7.94904 44.4948 6.90863 42.6962C6.58371 42.1317 6.49509 41.4589 6.66576 40.8287C6.83314 40.1986 7.24668 39.6603 7.81119 39.3321C8.33632 39.0302 8.88114 38.7151 9.43581 38.3967C11.7201 37.0773 13.1281 34.6388 13.1281 32C13.1281 29.3612 11.7201 26.9227 9.43581 25.6033C8.88114 25.2849 8.33632 24.9698 7.81119 24.6679C7.24668 24.3397 6.83314 23.8014 6.66576 23.1713C6.49509 22.5411 6.58371 21.8683 6.90863 21.3038C7.94904 19.5052 9.15355 17.4178 10.1907 15.6193C10.5189 15.0548 11.0571 14.6412 11.6873 14.4738C12.3174 14.3032 12.9903 14.3918 13.5548 14.7167C14.0799 15.022 14.6247 15.337 15.1794 15.6554C17.4637 16.9748 20.2797 16.9748 22.564 15.6554C24.8483 14.336 26.2563 11.9007 26.2563 9.26195Z" fill="#F3F3F3"/>
</svg>
