<svg width="151" height="91" viewBox="0 0 151 91" fill="currentColor" xmlns="http://www.w3.org/2000/svg">
<g clip-path="url(#clip0_323_317)">
<path d="M75.5001 0.490356C55.5074 0.490356 43.0127 10.4839 38.014 30.4691C45.512 20.4756 54.2587 16.7294 64.2541 19.2268C69.9577 20.6518 74.0339 24.7898 78.5469 29.3685C85.8968 36.8271 94.4034 45.4594 112.986 45.4594C132.977 45.4594 145.474 35.4659 150.47 15.4788C142.974 25.4723 134.228 29.2204 124.23 26.7229C118.529 25.298 114.452 21.1599 109.939 16.5813C102.59 9.12268 94.081 0.490356 75.5001 0.490356ZM38.014 45.4594C18.0232 45.4594 5.52656 55.453 0.529785 75.44C8.02588 65.4465 16.7726 61.6985 26.7699 64.1978C32.4716 65.6246 36.5478 69.7608 41.0608 74.3376C48.4107 81.7962 56.9192 90.4304 75.5001 90.4304C95.4928 90.4304 107.988 80.4368 112.986 60.4497C105.488 70.4433 96.7415 74.1913 86.7461 71.692C81.0425 70.2689 76.9663 66.129 72.4533 61.5522C65.1034 54.0936 56.5967 45.4594 38.014 45.4594Z" fill="currentColor"/>
</g>
<defs>
<clipPath id="clip0_323_317">
<rect width="150" height="89.94" fill="currentColor" transform="translate(0.5 0.490356)"/>
</clipPath>
</defs>
</svg>
