<svg width="151" height="151" viewBox="0 0 151 151" fill="none" xmlns="http://www.w3.org/2000/svg">
<g clip-path="url(#clip0_100_176)">
<path d="M0.5 75.9603V0.960327H150.5V150.96H0.5" fill="#F3F3F3"/>
<path d="M33.3877 76.2228V82.3353H52.8877V137.835H66.7252V82.3353H86.2252V76.3353C86.2252 72.9603 86.2252 70.2228 86.0752 70.1478C86.0752 70.0353 74.1877 69.9978 59.7502 69.9978L33.5002 70.1103V76.2603L33.3877 76.2228ZM121.025 69.9603C124.85 70.8603 127.775 72.5853 130.4 75.3228C131.788 76.8228 133.85 79.4478 134 80.1228C134 80.3478 127.513 84.7353 123.575 87.1728C123.425 87.2853 122.825 86.6478 122.225 85.6728C120.275 82.8978 118.288 81.6978 115.175 81.4728C110.675 81.1728 107.675 83.5353 107.675 87.4728C107.675 88.6728 107.9 89.3478 108.35 90.3228C109.363 92.3853 111.238 93.6228 117.05 96.1728C127.775 100.785 132.425 103.823 135.238 108.173C138.425 113.048 139.138 120.698 137 126.435C134.6 132.698 128.75 136.935 120.388 138.323C117.763 138.773 111.763 138.698 108.95 138.21C102.95 137.085 97.2127 134.085 93.6877 130.223C92.3002 128.723 89.6377 124.71 89.7877 124.448L91.2127 123.548L96.8377 120.285L101.075 117.81L102.05 119.123C103.288 121.073 106.063 123.698 107.675 124.598C112.55 127.11 119.075 126.773 122.3 123.848C123.688 122.573 124.288 121.223 124.288 119.348C124.288 117.623 124.025 116.835 123.163 115.523C121.963 113.873 119.563 112.523 112.813 109.523C105.05 106.223 101.75 104.123 98.6752 100.898C96.9127 98.9478 95.3002 95.9103 94.5502 93.3978C93.9877 91.2228 93.8002 85.8978 94.3252 83.7603C95.9377 76.2603 101.6 71.0103 109.7 69.5103C112.325 68.9853 118.513 69.2103 121.1 69.8853L121.025 69.9603Z" fill="#1E1E1E"/>
</g>
<defs>
<clipPath id="clip0_100_176">
<rect width="150" height="150" fill="white" transform="translate(0.5 0.960327)"/>
</clipPath>
</defs>
</svg>
