<svg width="151" height="151" viewBox="0 0 151 151" fill="none" xmlns="http://www.w3.org/2000/svg">
<g clip-path="url(#clip0_100_179)">
<path d="M0.5 75.4603V0.460327H150.5V150.46H0.5" fill="#1E1E1E"/>
<path d="M33.3877 75.7228V81.8353H52.8877V137.335H66.7252V81.8353H86.2252V75.8353C86.2252 72.4603 86.2252 69.7228 86.0752 69.6478C86.0752 69.5353 74.1877 69.4978 59.7502 69.4978L33.5002 69.6103V75.7603L33.3877 75.7228ZM121.025 69.4603C124.85 70.3603 127.775 72.0853 130.4 74.8228C131.788 76.3228 133.85 78.9478 134 79.6228C134 79.8478 127.513 84.2353 123.575 86.6728C123.425 86.7853 122.825 86.1478 122.225 85.1728C120.275 82.3978 118.288 81.1978 115.175 80.9728C110.675 80.6728 107.675 83.0353 107.675 86.9728C107.675 88.1728 107.9 88.8478 108.35 89.8228C109.363 91.8853 111.238 93.1228 117.05 95.6728C127.775 100.285 132.425 103.323 135.238 107.673C138.425 112.548 139.138 120.198 137 125.935C134.6 132.198 128.75 136.435 120.388 137.823C117.763 138.273 111.763 138.198 108.95 137.71C102.95 136.585 97.2127 133.585 93.6877 129.723C92.3002 128.223 89.6377 124.21 89.7877 123.948L91.2127 123.048L96.8377 119.785L101.075 117.31L102.05 118.623C103.288 120.573 106.063 123.198 107.675 124.098C112.55 126.61 119.075 126.273 122.3 123.348C123.688 122.073 124.288 120.723 124.288 118.848C124.288 117.123 124.025 116.335 123.163 115.023C121.963 113.373 119.563 112.023 112.813 109.023C105.05 105.723 101.75 103.623 98.6752 100.398C96.9127 98.4478 95.3002 95.4103 94.5502 92.8978C93.9877 90.7228 93.8002 85.3978 94.3252 83.2603C95.9377 75.7603 101.6 70.5103 109.7 69.0103C112.325 68.4853 118.513 68.7103 121.1 69.3853L121.025 69.4603Z" fill="#F3F3F3"/>
</g>
<defs>
<clipPath id="clip0_100_179">
<rect width="150" height="150" fill="white" transform="translate(0.5 0.460327)"/>
</clipPath>
</defs>
</svg>
